<?xml version="1.0" encoding="utf-8"?>
<!-- Generator: Adobe Illustrator 19.1.0, SVG Export Plug-In . SVG Version: 6.00 Build 0)  -->
<svg version="1.1" xmlns="http://www.w3.org/2000/svg" xmlns:xlink="http://www.w3.org/1999/xlink" x="0px" y="0px"
	 viewBox="-204 0 907.1 301.7" style="enable-background:new 0 0 203.8 301.7;" xml:space="preserve">
<style type="text/css">
	.st0{fill-rule:evenodd;clip-rule:evenodd;fill:url(#SVGID_1_);}
	.st1{fill-rule:evenodd;clip-rule:evenodd;fill:url(#SVGID_2_);}
	.st2{fill-rule:evenodd;clip-rule:evenodd;fill:url(#SVGID_3_);}
	.st3{fill:#12172F;}
	.st4{fill-rule:evenodd;clip-rule:evenodd;fill:#E9B579;}
	.st5{fill-rule:evenodd;clip-rule:evenodd;fill:#1D1D1B;}
	.st6{fill-rule:evenodd;clip-rule:evenodd;fill:#271323;}
	.st7{opacity:0.49;}
	.st8{fill:#F4D47A;}
	.st9{fill-rule:evenodd;clip-rule:evenodd;fill:url(#SVGID_4_);}
	.st10{fill-rule:evenodd;clip-rule:evenodd;fill:#482F4F;}
	.st11{fill:#1D1D1B;}
	.st12{fill:none;stroke:#1D1D1B;stroke-miterlimit:10;}
	.st13{fill-rule:evenodd;clip-rule:evenodd;fill:#877997;}
	.st14{fill-rule:evenodd;clip-rule:evenodd;fill:#5D396B;}
	.st15{fill-rule:evenodd;clip-rule:evenodd;fill:#9990AD;}
	.st16{fill-rule:evenodd;clip-rule:evenodd;fill:#FF3201;}
	.st17{fill-rule:evenodd;clip-rule:evenodd;fill:#FFFFFF;}
	.st18{fill-rule:evenodd;clip-rule:evenodd;fill:#5F4761;}
	.st19{fill-rule:evenodd;clip-rule:evenodd;fill:url(#SVGID_5_);}
	.st20{fill-rule:evenodd;clip-rule:evenodd;fill:#F4D47A;}
	.st21{fill-rule:evenodd;clip-rule:evenodd;fill:url(#SVGID_6_);}
	.st22{fill-rule:evenodd;clip-rule:evenodd;fill:#553D57;}
	.st23{opacity:0.53;fill-rule:evenodd;clip-rule:evenodd;fill:#E9B579;}
	.st24{fill:#E9B579;}
	.st25{opacity:0.62;fill-rule:evenodd;clip-rule:evenodd;fill:#E9B579;}
	.st26{fill-rule:evenodd;clip-rule:evenodd;fill:none;stroke:#1D1D1B;stroke-miterlimit:10;}
	.st27{fill-rule:evenodd;clip-rule:evenodd;fill:#291B32;}
	.st28{fill-rule:evenodd;clip-rule:evenodd;fill:#482F43;}
	.st29{fill-rule:evenodd;clip-rule:evenodd;fill:#7C637C;}
	.st30{fill:url(#SVGID_7_);}
	.st31{fill:#232E4F;}
	.st32{fill:#FFFFFF;}
	.st33{fill:#E2E3E4;}
	.st34{fill:#F5F6F6;}
	.st35{fill:#FF3200;}
	.st36{fill:#C22600;}
	.st37{fill:#E3C571;}
	.st38{fill:#E6E7E8;}
	.st39{opacity:0.3;fill:#1D1D1B;}
	.st40{fill:#F9F8F7;}
	.st41{fill:#3A4D57;}
	.st42{fill:none;}
	.st43{fill:none;stroke:url(#SVGID_8_);stroke-width:3.8006;stroke-miterlimit:10;}
	.st44{fill-rule:evenodd;clip-rule:evenodd;fill:url(#SVGID_9_);}
	.st45{fill-rule:evenodd;clip-rule:evenodd;fill:url(#SVGID_10_);}
	.st46{fill-rule:evenodd;clip-rule:evenodd;fill:url(#SVGID_11_);}
	.st47{opacity:0.5;}
	.st48{fill:none;stroke:url(#SVGID_12_);stroke-width:3.8006;stroke-miterlimit:10;}
	.st49{fill-rule:evenodd;clip-rule:evenodd;fill:url(#SVGID_13_);}
	.st50{opacity:0.3;fill-rule:evenodd;clip-rule:evenodd;fill:#1D1D1B;}
</style>
<g id="Слой_2">
</g>
<g id="Слой_1">
	<g>
		<g>
			<path class="st4" d="M96.7,161.3c-0.6,0.3-1.4,0.8-2.1,1.4c-3.6,0.4-11.3,1.3-11.7,1.9c-1.1,1.9,5.6,1.5,10.2,1.1
				c-3.3,0.8-11.4,2.8-11.7,3.5c-0.9,2.2,6.9,0.6,11.3-0.5c-3.4,1.7-7.9,4.1-8,4.6c-0.3,2,5.1-0.2,9.2-2.1c-2.7,2.2-5.5,4.7-5.5,5.1
				c0.1,2,4.8-1.2,8.4-4c1.3,0.3,4.1,0.4,6.9-0.1c3.6-0.6,7.1-4.1,7.1-4.1L96.7,161.3z"/>
			<path class="st4" d="M109.4,164.1c-1.3-0.4-11.2-5.2-13.1-4.7c-1.9,0.5-8.2-0.9-7.7,0.6c0.4,1.5,3,3,8.1,3l2.7,1.9
				c0,0,0.3,2.2,2.4,3.7c2,1.5,8-1.7,8-2.2C109.8,165.8,109.4,164.1,109.4,164.1z"/>
		</g>
		<path class="st5" d="M148.6,126.7c0,1,0.2,20.5-16,30.8c-12.4,7.8-25.4,4.6-27.6,4c0.9,3.3,1.8,6.6,2.8,9.9
			c3.7,1,15.7,3.5,28.1-2.7c20.7-10.3,22.6-35,22.6-36.1C155.2,130.6,151.9,128.6,148.6,126.7z"/>
	</g>
	<rect x="10.2" y="89.7" class="st6" width="53" height="70.4"/>
	<g class="st7">
		<path class="st8" d="M35.1,131.6h-3v-2.9c0-0.1-0.1-0.2-0.2-0.2h-8.1c-0.1,0-0.2,0.1-0.2,0.2v4.3c0,0.1,0.1,0.2,0.2,0.2h8.4h2
			l1-1.3C35.4,131.9,35.3,131.6,35.1,131.6z"/>
		<path class="st8" d="M37.7,130.3l-3.1,3.8H22.2c-0.4,0-0.7,0.3-0.7,0.7l0.6,15c0,0.4,0.3,0.7,0.7,0.7h27.5c0.4,0,0.7-0.3,0.7-0.7
			l0.9-19c0-0.4-0.3-0.7-0.7-0.7H38.3C38.1,130,37.9,130.1,37.7,130.3z"/>
	</g>
	<rect x="150.6" y="205.7" class="st10" width="6.9" height="49.2"/>
	<g>
		<path class="st4" d="M145.9,70.9l-14,1l0.1,62.9l20.5-3.4c0-10.3-0.5-21.7-2.1-34.2C149.3,87.7,147.7,78.9,145.9,70.9z"/>
		<polygon class="st4" points="114.9,77.4 132,71.9 134.7,79.7 		"/>
		<path class="st11" d="M128.2,68.6c0.7,0.8,1.6,1.7,2.7,2.5c4.8,3.1,10.3,2,11.8,1.6c0.4,0.8,0.9,1.8,1.6,2.8
			c1.1,1.5,2.2,2.5,3.2,3.2c-0.2-2.9-0.4-5.8-0.7-8.7c-2.3-0.7-5.2-1.5-8.7-1.7C134.2,67.8,130.7,68.1,128.2,68.6z"/>
		<path class="st12" d="M133.4,73c0,0.3,0.1,1.2,0.9,1.8c0.8,0.7,2,0.9,3.2,0.4"/>
		<path class="st12" d="M133.3,92.7c1-0.1,3.5-0.6,5.9-2.7c2.4-2.1,3.2-4.6,3.5-5.5"/>
	</g>
	<path class="st5" d="M169.1,191.6c0.5,5.1,1,10.2,1.6,15.3c-21.9,0.2-43.8,0.5-65.8,0.7c-11.4,19-22.9,38-34.3,57
		c-8.4,0.2-16.9,0.3-25.3,0.5c7.3-4.2,14.6-8.5,21.8-12.7c7.7-18.7,15.5-37.4,23.2-56.1c17.2-2.8,34.3-5.5,51.5-8.3
		C150.9,189.2,160,190.4,169.1,191.6z"/>
	<path class="st5" d="M170.3,191.3c0.2,5.2,0.4,10.4,0.7,15.6c-18.7,0.2-37.4,0.4-56.1,0.6c-11.4,19-22.9,38-34.3,57
		c-8.4,0.2-16.9,0.3-25.3,0.5c7.3-4.2,14.6-8.5,21.8-12.7c7.7-18.7,15.5-37.4,23.2-56.1c17.2-2.8,34.3-5.5,51.5-8.3
		C158,189.1,164.1,190.2,170.3,191.3z"/>
	<path class="st5" d="M154.3,115.5c4.7,7.9,10.2,19,13.8,33.2c5.3,21,3.9,39,2.2,49.9c-12.5-0.7-25-1.4-37.5-2.2
		c-2.5-9.5-4.8-21.5-5.4-35.4c-0.8-17.3,1.2-32.1,3.5-43.2C138.7,117.2,146.5,116.4,154.3,115.5z"/>
	<rect x="127.1" y="205.7" class="st14" width="53.8" height="7.1"/>
	
		<rect x="150.7" y="169.7" transform="matrix(0.146 -0.9893 0.9893 0.146 -12.7017 331.7977)" class="st14" width="70.2" height="7.1"/>
	<path class="st28" d="M158,247.4c7.6,4,22.2,11.8,22.2,11.8l-0.7,3l-25.5-5.3l-25.5,5.3l-0.7-3c0,0,14.6-7.8,22.2-11.8H158z"/>
	<g>
		<path class="st29" d="M179.6,265.6c1.8,0,3.4-1.5,3.4-3.4c0-1.8-1.5-3.4-3.4-3.4s-3.4,1.5-3.4,3.4
			C176.2,264.1,177.7,265.6,179.6,265.6z"/>
		<path class="st29" d="M128.5,265.6c1.8,0,3.4-1.5,3.4-3.4c0-1.8-1.5-3.4-3.4-3.4c-1.8,0-3.4,1.5-3.4,3.4
			C125.1,264.1,126.7,265.6,128.5,265.6z"/>
	</g>
	<g>
		<path class="st8" d="M81.6,159h-3v-2.9c0-0.1-0.1-0.2-0.2-0.2h-8.1c-0.1,0-0.2,0.1-0.2,0.2v4.3c0,0.1,0.1,0.2,0.2,0.2h8.4h2l1-1.3
			C81.9,159.2,81.8,159,81.6,159z"/>
		<path class="st8" d="M84.2,157.6l-3.1,3.8H68.7c-0.4,0-0.7,0.3-0.7,0.7l0.6,15c0,0.4,0.3,0.7,0.7,0.7h27.5c0.4,0,0.7-0.3,0.7-0.7
			l0.9-19c0-0.4-0.3-0.7-0.7-0.7H84.8C84.6,157.4,84.4,157.5,84.2,157.6z"/>
	</g>
	<path class="st17" d="M132.7,117.8c2.9-0.3,5.9-0.6,8.8-0.9c-2.2,14-4.5,27.9-6.7,41.9c-1.3-5.4-2.5-12.1-2.9-19.6
		C131.4,130.9,131.9,123.7,132.7,117.8z"/>
	<polygon class="st5" points="126.6,114.1 127.4,126.4 136.6,121.1 145.2,124.4 145.3,109.8 135.9,116.3 	"/>
</g>
</svg>
