<?xml version="1.0" encoding="utf-8"?>
<!-- Generator: Adobe Illustrator 19.1.0, SVG Export Plug-In . SVG Version: 6.00 Build 0)  -->
<svg version="1.1" xmlns="http://www.w3.org/2000/svg" xmlns:xlink="http://www.w3.org/1999/xlink" x="0px" y="0px"
	 viewBox="0 0 907.1 301.7" style="enable-background:new 0 0 907.1 301.7;" xml:space="preserve">
<style type="text/css">
	.st0{fill-rule:evenodd;clip-rule:evenodd;fill:url(#SVGID_1_);}
	.st1{fill-rule:evenodd;clip-rule:evenodd;fill:url(#SVGID_2_);}
	.st2{fill-rule:evenodd;clip-rule:evenodd;fill:url(#SVGID_3_);}
	.st3{fill:#12172F;}
	.st4{fill-rule:evenodd;clip-rule:evenodd;fill:#E9B579;}
	.st5{fill-rule:evenodd;clip-rule:evenodd;fill:#1D1D1B;}
	.st6{fill-rule:evenodd;clip-rule:evenodd;fill:#271323;}
	.st7{opacity:0.49;}
	.st8{fill:#F4D47A;}
	.st9{fill-rule:evenodd;clip-rule:evenodd;fill:url(#SVGID_4_);}
	.st10{fill-rule:evenodd;clip-rule:evenodd;fill:#482F4F;}
	.st11{fill:#1D1D1B;}
	.st12{fill:none;stroke:#1D1D1B;stroke-miterlimit:10;}
	.st13{fill-rule:evenodd;clip-rule:evenodd;fill:#877997;}
	.st14{fill-rule:evenodd;clip-rule:evenodd;fill:#5D396B;}
	.st15{fill-rule:evenodd;clip-rule:evenodd;fill:#9990AD;}
	.st16{fill-rule:evenodd;clip-rule:evenodd;fill:#FF3201;}
	.st17{fill-rule:evenodd;clip-rule:evenodd;fill:#FFFFFF;}
	.st18{fill-rule:evenodd;clip-rule:evenodd;fill:#5F4761;}
	.st19{fill-rule:evenodd;clip-rule:evenodd;fill:url(#SVGID_5_);}
	.st20{fill-rule:evenodd;clip-rule:evenodd;fill:#F4D47A;}
	.st21{fill-rule:evenodd;clip-rule:evenodd;fill:url(#SVGID_6_);}
	.st22{fill-rule:evenodd;clip-rule:evenodd;fill:#553D57;}
	.st23{opacity:0.53;fill-rule:evenodd;clip-rule:evenodd;fill:#E9B579;}
	.st24{fill:#E9B579;}
	.st25{opacity:0.62;fill-rule:evenodd;clip-rule:evenodd;fill:#E9B579;}
	.st26{fill-rule:evenodd;clip-rule:evenodd;fill:none;stroke:#1D1D1B;stroke-miterlimit:10;}
	.st27{fill-rule:evenodd;clip-rule:evenodd;fill:#291B32;}
	.st28{fill-rule:evenodd;clip-rule:evenodd;fill:#482F43;}
	.st29{fill-rule:evenodd;clip-rule:evenodd;fill:#7C637C;}
	.st30{fill:url(#SVGID_7_);}
	.st31{fill:#232E4F;}
	.st32{fill:#FFFFFF;}
	.st33{fill:#E2E3E4;}
	.st34{fill:#F5F6F6;}
	.st35{fill:#FF3200;}
	.st36{fill:#C22600;}
	.st37{fill:#E3C571;}
	.st38{fill:#E6E7E8;}
	.st39{opacity:0.3;fill:#1D1D1B;}
	.st40{fill:#F9F8F7;}
	.st41{fill:#3A4D57;}
	.st42{fill:none;}
	.st43{fill:none;stroke:url(#SVGID_8_);stroke-width:3.8006;stroke-miterlimit:10;}
	.st44{fill-rule:evenodd;clip-rule:evenodd;fill:url(#SVGID_9_);}
	.st45{fill-rule:evenodd;clip-rule:evenodd;fill:url(#SVGID_10_);}
	.st46{fill-rule:evenodd;clip-rule:evenodd;fill:url(#SVGID_11_);}
	.st47{opacity:0.5;}
	.st48{font-family:'Ubuntu';}
	.st49{font-size:14.2042px;}
	.st50{fill:none;stroke:url(#SVGID_12_);stroke-width:3.8006;stroke-miterlimit:10;}
	.st51{fill-rule:evenodd;clip-rule:evenodd;fill:url(#SVGID_13_);}
	.st52{opacity:0.3;fill-rule:evenodd;clip-rule:evenodd;fill:#1D1D1B;}
</style>
<g id="Слой_2">
</g>
<g id="Слой_1">
	<rect x="175.4" y="84.6" class="st13" width="34.7" height="80.6"/>
	<g>
		<g>
			<rect x="185.3" y="169.8" class="st10" width="7.1" height="95.8"/>
			<rect x="305.9" y="169.8" class="st10" width="7.1" height="95.8"/>
		</g>
		<rect x="173" y="165.2" class="st14" width="150.7" height="8.1"/>
	</g>
	<rect x="210.2" y="84.6" class="st15" width="60.6" height="80.6"/>
	<g>
		<g>
			<g>
				<g>
					<rect x="28.8" y="63.4" class="st16" width="9.7" height="45.7"/>
					<rect x="30.1" y="64.9" class="st17" width="7.1" height="23.8"/>
					<rect x="30.8" y="83.4" class="st18" width="5.7" height="0.9"/>
					<rect x="30.8" y="85.1" class="st18" width="5.7" height="0.9"/>
					<rect x="30.8" y="86.8" class="st18" width="5.7" height="0.9"/>
					<ellipse class="st17" cx="33.7" cy="105.1" rx="1.1" ry="1.2"/>
				</g>
			</g>
			<g>
				<g>
					<radialGradient id="SVGID_1_" cx="44.3036" cy="86.2624" r="16.5086" gradientUnits="userSpaceOnUse">
						<stop  offset="0" style="stop-color:#3D41A3"/>
						<stop  offset="1" style="stop-color:#2C4EDD"/>
					</radialGradient>
					<rect x="39.5" y="63.4" class="st0" width="9.7" height="45.7"/>
					<rect x="40.8" y="64.9" class="st17" width="7.1" height="23.8"/>
					<rect x="41.4" y="83.4" class="st18" width="5.7" height="0.9"/>
					<rect x="41.4" y="85.1" class="st18" width="5.7" height="0.9"/>
					<rect x="41.4" y="86.8" class="st18" width="5.7" height="0.9"/>
					<ellipse class="st17" cx="44.3" cy="105.1" rx="1.1" ry="1.2"/>
				</g>
			</g>
			<g>
				<g>
					<rect x="50.1" y="63.4" class="st20" width="9.7" height="45.7"/>
					<rect x="51.4" y="64.9" class="st17" width="7.1" height="23.8"/>
					<rect x="52.1" y="83.4" class="st18" width="5.7" height="0.9"/>
					<rect x="52.1" y="85.1" class="st18" width="5.7" height="0.9"/>
					<rect x="52.1" y="86.8" class="st18" width="5.7" height="0.9"/>
					<ellipse class="st17" cx="54.9" cy="105.1" rx="1.1" ry="1.2"/>
				</g>
			</g>
			<g>
				<g>
					<rect x="60.7" y="63.4" class="st16" width="9.7" height="45.7"/>
					<rect x="62" y="64.9" class="st17" width="7.1" height="23.8"/>
					<rect x="62.7" y="83.4" class="st18" width="5.7" height="0.9"/>
					<rect x="62.7" y="85.1" class="st18" width="5.7" height="0.9"/>
					<rect x="62.7" y="86.8" class="st18" width="5.7" height="0.9"/>
					<ellipse class="st17" cx="65.6" cy="105.1" rx="1.1" ry="1.2"/>
				</g>
			</g>
			<g>
				<g>
					<rect x="71.4" y="63.4" class="st20" width="9.7" height="45.7"/>
					<rect x="72.7" y="64.9" class="st17" width="7.1" height="23.8"/>
					<rect x="73.3" y="83.4" class="st18" width="5.7" height="0.9"/>
					<rect x="73.3" y="85.1" class="st18" width="5.7" height="0.9"/>
					<rect x="73.3" y="86.8" class="st18" width="5.7" height="0.9"/>
					<ellipse class="st17" cx="76.2" cy="105.1" rx="1.1" ry="1.2"/>
				</g>
			</g>
			<g>
				<g>
					<radialGradient id="SVGID_2_" cx="86.8441" cy="86.2624" r="16.5086" gradientUnits="userSpaceOnUse">
						<stop  offset="0" style="stop-color:#3D41A3"/>
						<stop  offset="1" style="stop-color:#2C4EDD"/>
					</radialGradient>
					<rect x="82" y="63.4" class="st1" width="9.7" height="45.7"/>
					<rect x="83.3" y="64.9" class="st17" width="7.1" height="23.8"/>
					<rect x="84" y="83.4" class="st18" width="5.7" height="0.9"/>
					<rect x="84" y="85.1" class="st18" width="5.7" height="0.9"/>
					<rect x="84" y="86.8" class="st18" width="5.7" height="0.9"/>
					<ellipse class="st17" cx="86.8" cy="105.1" rx="1.1" ry="1.2"/>
				</g>
			</g>
		</g>
		<g>
			<rect x="24.7" y="109.1" class="st15" width="71.8" height="157.8"/>
			<rect x="29.6" y="116.6" class="st13" width="61.9" height="46.7"/>
			<rect x="29.6" y="165.4" class="st13" width="61.9" height="46.7"/>
			<rect x="29.6" y="214.3" class="st13" width="61.9" height="46.7"/>
			<rect x="49.3" y="126.3" class="st22" width="21.8" height="11.6"/>
			<path class="st6" d="M52.3,130.9H68c0.6,0,1.1,0.6,1.1,1.2v3c0,0.7-0.5,1.2-1.1,1.2H52.3c-0.6,0-1.1-0.6-1.1-1.2v-3
				C51.2,131.5,51.7,130.9,52.3,130.9z"/>
			<rect x="49.3" y="173.2" class="st22" width="21.8" height="11.6"/>
			<path class="st6" d="M51.9,177.8h15.7c0.6,0,1.1,0.6,1.1,1.2v3c0,0.7-0.5,1.2-1.1,1.2H51.9c-0.6,0-1.1-0.6-1.1-1.2v-3
				C50.8,178.3,51.3,177.8,51.9,177.8z"/>
			<rect x="49.4" y="221.5" class="st22" width="21.8" height="11.6"/>
			<path class="st6" d="M52.3,226.1H68c0.6,0,1.1,0.6,1.1,1.2v3c0,0.7-0.5,1.2-1.1,1.2H52.3c-0.6,0-1.1-0.6-1.1-1.2v-3
				C51.2,226.6,51.7,226.1,52.3,226.1z"/>
		</g>
	</g>
	<rect x="214" y="89.7" class="st6" width="53" height="70.4"/>
	<rect x="213.4" y="122.7" class="st15" width="54.3" height="4.3"/>
	<g class="st47">
		<path class="st8" d="M238.9,102.1h-3v-2.9c0-0.1-0.1-0.2-0.2-0.2h-8.1c-0.1,0-0.2,0.1-0.2,0.2v4.3c0,0.1,0.1,0.2,0.2,0.2h8.4h2
			l1-1.3C239.2,102.4,239.1,102.1,238.9,102.1z"/>
		<path class="st8" d="M241.6,100.8l-3.1,3.8H226c-0.4,0-0.7,0.3-0.7,0.7l0.6,15c0,0.4,0.3,0.7,0.7,0.7h27.5c0.4,0,0.7-0.3,0.7-0.7
			l0.9-19c0-0.4-0.3-0.7-0.7-0.7h-12.9C241.9,100.6,241.7,100.6,241.6,100.8z"/>
	</g>
	<g class="st47">
		<path class="st8" d="M238.9,131.6h-3v-2.9c0-0.1-0.1-0.2-0.2-0.2h-8.1c-0.1,0-0.2,0.1-0.2,0.2v4.3c0,0.1,0.1,0.2,0.2,0.2h8.4h2
			l1-1.3C239.2,131.9,239.1,131.6,238.9,131.6z"/>
		<path class="st8" d="M241.6,130.3l-3.1,3.8H226c-0.4,0-0.7,0.3-0.7,0.7l0.6,15c0,0.4,0.3,0.7,0.7,0.7h27.5c0.4,0,0.7-0.3,0.7-0.7
			l0.9-19c0-0.4-0.3-0.7-0.7-0.7h-12.9C241.9,130,241.7,130.1,241.6,130.3z"/>
	</g>
	<rect x="522.6" y="145.1" class="st42" width="324.1" height="53.6"/>
	<text transform="matrix(1 0 0 1 522.5664 157.0948)"><tspan x="0" y="0" class="st32 st48 st49">Выбирайте подходящий из двух вариантов </tspan><tspan x="0" y="17" class="st32 st48 st49">архивирования.</tspan></text>
</g>
</svg>
