<?xml version="1.0" encoding="utf-8"?>
<!-- Generator: Adobe Illustrator 19.1.0, SVG Export Plug-In . SVG Version: 6.00 Build 0)  -->
<svg version="1.1" xmlns="http://www.w3.org/2000/svg" xmlns:xlink="http://www.w3.org/1999/xlink" x="0px" y="0px"
	 viewBox="0 0 203.8 301.7" style="enable-background:new 0 0 203.8 301.7;" xml:space="preserve">
<style type="text/css">
	.st0{fill-rule:evenodd;clip-rule:evenodd;fill:url(#SVGID_1_);}
	.st1{fill-rule:evenodd;clip-rule:evenodd;fill:url(#SVGID_2_);}
	.st2{fill-rule:evenodd;clip-rule:evenodd;fill:url(#SVGID_3_);}
	.st3{fill:#12172F;}
	.st4{fill-rule:evenodd;clip-rule:evenodd;fill:#E9B579;}
	.st5{fill-rule:evenodd;clip-rule:evenodd;fill:#1D1D1B;}
	.st6{fill-rule:evenodd;clip-rule:evenodd;fill:#271323;}
	.st7{opacity:0.49;}
	.st8{fill:#F4D47A;}
	.st9{fill-rule:evenodd;clip-rule:evenodd;fill:url(#SVGID_4_);}
	.st10{fill-rule:evenodd;clip-rule:evenodd;fill:#482F4F;}
	.st11{fill:#1D1D1B;}
	.st12{fill:none;stroke:#1D1D1B;stroke-miterlimit:10;}
	.st13{fill-rule:evenodd;clip-rule:evenodd;fill:#877997;}
	.st14{fill-rule:evenodd;clip-rule:evenodd;fill:#5D396B;}
	.st15{fill-rule:evenodd;clip-rule:evenodd;fill:#9990AD;}
	.st16{fill-rule:evenodd;clip-rule:evenodd;fill:#FF3201;}
	.st17{fill-rule:evenodd;clip-rule:evenodd;fill:#FFFFFF;}
	.st18{fill-rule:evenodd;clip-rule:evenodd;fill:#5F4761;}
	.st19{fill-rule:evenodd;clip-rule:evenodd;fill:url(#SVGID_5_);}
	.st20{fill-rule:evenodd;clip-rule:evenodd;fill:#F4D47A;}
	.st21{fill-rule:evenodd;clip-rule:evenodd;fill:url(#SVGID_6_);}
	.st22{fill-rule:evenodd;clip-rule:evenodd;fill:#553D57;}
	.st23{opacity:0.53;fill-rule:evenodd;clip-rule:evenodd;fill:#E9B579;}
	.st24{fill:#E9B579;}
	.st25{opacity:0.62;fill-rule:evenodd;clip-rule:evenodd;fill:#E9B579;}
	.st26{fill-rule:evenodd;clip-rule:evenodd;fill:none;stroke:#1D1D1B;stroke-miterlimit:10;}
	.st27{fill-rule:evenodd;clip-rule:evenodd;fill:#291B32;}
	.st28{fill-rule:evenodd;clip-rule:evenodd;fill:#482F43;}
	.st29{fill-rule:evenodd;clip-rule:evenodd;fill:#7C637C;}
	.st30{fill:url(#SVGID_7_);}
	.st31{fill:#232E4F;}
	.st32{fill:#FFFFFF;}
	.st33{fill:#E2E3E4;}
	.st34{fill:#F5F6F6;}
	.st35{fill:#FF3200;}
	.st36{fill:#C22600;}
	.st37{fill:#E3C571;}
	.st38{fill:#E6E7E8;}
	.st39{opacity:0.3;fill:#1D1D1B;}
	.st40{fill:#F9F8F7;}
	.st41{fill:#3A4D57;}
	.st42{fill:none;}
	.st43{fill:none;stroke:url(#SVGID_8_);stroke-width:3.8006;stroke-miterlimit:10;}
	.st44{fill-rule:evenodd;clip-rule:evenodd;fill:url(#SVGID_9_);}
	.st45{fill-rule:evenodd;clip-rule:evenodd;fill:url(#SVGID_10_);}
	.st46{fill-rule:evenodd;clip-rule:evenodd;fill:url(#SVGID_11_);}
	.st47{opacity:0.5;}
	.st48{fill:none;stroke:url(#SVGID_12_);stroke-width:3.8006;stroke-miterlimit:10;}
	.st49{fill-rule:evenodd;clip-rule:evenodd;fill:url(#SVGID_13_);}
	.st50{opacity:0.3;fill-rule:evenodd;clip-rule:evenodd;fill:#1D1D1B;}
</style>
<g id="Слой_2">
</g>
<g id="Слой_1">
	<g>
		<g>
			<path class="st4" d="M152.9,185.5c0,0.6,0.1,1.6,0.3,2.5c-1.2,3.4-3.8,10.7-3.4,11.3c1.2,1.8,3.8-4.4,5.4-8.7
				c-0.7,3.3-2.5,11.5-2,12c1.6,1.7,3.5-6,4.5-10.4c0.1,3.8,0.2,8.9,0.7,9.2c1.7,1.2,2-4.7,2.1-9.2c0.8,3.4,1.8,7,2.2,7.1
				c1.9,0.8,1-4.9,0.1-9.3c0.8-1,2.1-3.5,3-6.3c1.1-3.5-0.6-8.1-0.6-8.1L152.9,185.5z"/>
			<path class="st4" d="M161,175.3c-0.9,1-9.6,7.8-10,9.7c-0.4,1.9-4.4,6.9-2.8,7.2c1.6,0.3,4-1.4,6.2-5.9l2.9-1.6
				c0,0,2.1,0.6,4.4-0.5c2.3-1.1,2-8,1.5-8.2C162.6,175.7,161,175.3,161,175.3z"/>
		</g>
		<path class="st5" d="M144.4,123.7c1,0.4,18.6,8.8,20.7,27.8c1.7,14.6-7,24.9-8.5,26.6c3.4,0.6,6.7,1.2,10.1,1.8
			c2.5-3,10-12.6,9.8-26.4c-0.2-23.1-21.6-35.6-22.6-36.1C150.8,119.5,147.6,121.6,144.4,123.7z"/>
	</g>
	<rect x="10.2" y="89.7" class="st6" width="53" height="70.4"/>
	<g class="st7">
		<path class="st8" d="M35.1,131.6h-3v-2.9c0-0.1-0.1-0.2-0.2-0.2h-8.1c-0.1,0-0.2,0.1-0.2,0.2v4.3c0,0.1,0.1,0.2,0.2,0.2h8.4h2
			l1-1.3C35.4,131.9,35.3,131.6,35.1,131.6z"/>
		<path class="st8" d="M37.7,130.3l-3.1,3.8H22.2c-0.4,0-0.7,0.3-0.7,0.7l0.6,15c0,0.4,0.3,0.7,0.7,0.7h27.5c0.4,0,0.7-0.3,0.7-0.7
			l0.9-19c0-0.4-0.3-0.7-0.7-0.7H38.3C38.1,130,37.9,130.1,37.7,130.3z"/>
	</g>
	<rect x="150.6" y="205.7" class="st10" width="6.9" height="49.2"/>
	<g>
		<path class="st4" d="M144.8,70.5l-13.9,1.5l2.5,62.9l20.4-4.1c-0.4-10.2-1.4-21.7-3.4-34.1C148.8,87.2,146.9,78.5,144.8,70.5z"/>
		<polygon class="st4" points="114,78.2 130.9,72.1 133.9,79.7 		"/>
		<path class="st11" d="M127,68.9c0.7,0.8,1.6,1.6,2.8,2.3c4.9,3,10.4,1.6,11.9,1.1c0.4,0.8,0.9,1.8,1.7,2.7
			c1.1,1.4,2.3,2.4,3.3,3.1c-0.3-2.9-0.7-5.8-1-8.7c-2.3-0.6-5.3-1.3-8.7-1.4C132.9,67.9,129.5,68.3,127,68.9z"/>
		<path class="st12" d="M132.4,73.1c0,0.3,0.2,1.2,0.9,1.8c0.8,0.7,2.1,0.8,3.2,0.3"/>
		<path class="st12" d="M133,92.8c1-0.2,3.5-0.7,5.8-2.9c2.3-2.2,3-4.7,3.3-5.7"/>
	</g>
	<path class="st5" d="M169.1,191.6c0.5,5.1,1,10.2,1.6,15.3c-21.9,0.2-43.8,0.5-65.8,0.7c-11.4,19-22.9,38-34.3,57
		c-8.4,0.2-16.9,0.3-25.3,0.5c7.3-4.2,14.6-8.5,21.8-12.7c7.7-18.7,15.5-37.4,23.2-56.1c17.2-2.8,34.3-5.5,51.5-8.3
		C150.9,189.2,160,190.4,169.1,191.6z"/>
	<path class="st5" d="M170.3,191.3c0.2,5.2,0.4,10.4,0.7,15.6c-18.7,0.2-37.4,0.4-56.1,0.6c-11.4,19-22.9,38-34.3,57
		c-8.4,0.2-16.9,0.3-25.3,0.5c7.3-4.2,14.6-8.5,21.8-12.7c7.7-18.7,15.5-37.4,23.2-56.1c17.2-2.8,34.3-5.5,51.5-8.3
		C158,189.1,164.1,190.2,170.3,191.3z"/>
	<path class="st5" d="M154.3,115.5c4.7,7.9,10.2,19,13.8,33.2c5.3,21,3.9,39,2.2,49.9c-12.5-0.7-25-1.4-37.5-2.2
		c-2.5-9.5-4.8-21.5-5.4-35.4c-0.8-17.3,1.2-32.1,3.5-43.2C138.7,117.2,146.5,116.4,154.3,115.5z"/>
	<rect x="127.1" y="205.7" class="st14" width="53.8" height="7.1"/>
	
		<rect x="150.7" y="169.7" transform="matrix(0.146 -0.9893 0.9893 0.146 -12.7017 331.7977)" class="st14" width="70.2" height="7.1"/>
	<path class="st28" d="M158,247.4c7.6,4,22.2,11.8,22.2,11.8l-0.7,3l-25.5-5.3l-25.5,5.3l-0.7-3c0,0,14.6-7.8,22.2-11.8H158z"/>
	<g>
		<path class="st29" d="M179.6,265.6c1.8,0,3.4-1.5,3.4-3.4c0-1.8-1.5-3.4-3.4-3.4s-3.4,1.5-3.4,3.4
			C176.2,264.1,177.7,265.6,179.6,265.6z"/>
		<path class="st29" d="M128.5,265.6c1.8,0,3.4-1.5,3.4-3.4c0-1.8-1.5-3.4-3.4-3.4c-1.8,0-3.4,1.5-3.4,3.4
			C125.1,264.1,126.7,265.6,128.5,265.6z"/>
	</g>
	<path class="st17" d="M132.7,117.8c2.9-0.3,5.9-0.6,8.8-0.9c-2.2,12.8-4.5,25.5-6.7,38.3c-1.2-4.4-2.4-9.8-2.9-16.1
		C131.1,130.7,131.7,123.4,132.7,117.8z"/>
	<polygon class="st5" points="127.5,112.7 126.4,124.9 136.3,121.1 144.3,125.6 146.6,111.2 136.3,116.2 	"/>
</g>
</svg>
