<?xml version="1.0" encoding="utf-8"?>
<!-- Generator: Adobe Illustrator 19.1.0, SVG Export Plug-In . SVG Version: 6.00 Build 0)  -->
<svg version="1.1" xmlns="http://www.w3.org/2000/svg" xmlns:xlink="http://www.w3.org/1999/xlink" x="0px" y="0px"
	 viewBox="-115 0 907.1 301.7" style="enable-background:new 0 0 169.5 303.1;" xml:space="preserve">
<style type="text/css">
	.st0{fill-rule:evenodd;clip-rule:evenodd;fill:url(#SVGID_1_);}
	.st1{fill-rule:evenodd;clip-rule:evenodd;fill:url(#SVGID_2_);}
	.st2{fill-rule:evenodd;clip-rule:evenodd;fill:url(#SVGID_3_);}
	.st3{fill:#12172F;}
	.st4{fill-rule:evenodd;clip-rule:evenodd;fill:#E9B579;}
	.st5{fill-rule:evenodd;clip-rule:evenodd;fill:#1D1D1B;}
	.st6{fill-rule:evenodd;clip-rule:evenodd;fill:#271323;}
	.st7{opacity:0.49;}
	.st8{fill:#F4D47A;}
	.st9{fill-rule:evenodd;clip-rule:evenodd;fill:url(#SVGID_4_);}
	.st10{fill-rule:evenodd;clip-rule:evenodd;fill:#482F4F;}
	.st11{fill:#1D1D1B;}
	.st12{fill:none;stroke:#1D1D1B;stroke-miterlimit:10;}
	.st13{fill-rule:evenodd;clip-rule:evenodd;fill:#877997;}
	.st14{fill-rule:evenodd;clip-rule:evenodd;fill:#5D396B;}
	.st15{fill-rule:evenodd;clip-rule:evenodd;fill:#9990AD;}
	.st16{fill-rule:evenodd;clip-rule:evenodd;fill:#FF3201;}
	.st17{fill-rule:evenodd;clip-rule:evenodd;fill:#FFFFFF;}
	.st18{fill-rule:evenodd;clip-rule:evenodd;fill:#5F4761;}
	.st19{fill-rule:evenodd;clip-rule:evenodd;fill:url(#SVGID_5_);}
	.st20{fill-rule:evenodd;clip-rule:evenodd;fill:#F4D47A;}
	.st21{fill-rule:evenodd;clip-rule:evenodd;fill:url(#SVGID_6_);}
	.st22{fill-rule:evenodd;clip-rule:evenodd;fill:#553D57;}
	.st23{opacity:0.53;fill-rule:evenodd;clip-rule:evenodd;fill:#E9B579;}
	.st24{fill:#E9B579;}
	.st25{opacity:0.62;fill-rule:evenodd;clip-rule:evenodd;fill:#E9B579;}
	.st26{fill-rule:evenodd;clip-rule:evenodd;fill:none;stroke:#1D1D1B;stroke-miterlimit:10;}
	.st27{fill-rule:evenodd;clip-rule:evenodd;fill:#291B32;}
	.st28{fill-rule:evenodd;clip-rule:evenodd;fill:#482F43;}
	.st29{fill-rule:evenodd;clip-rule:evenodd;fill:#7C637C;}
	.st30{fill:url(#SVGID_7_);}
	.st31{fill:#232E4F;}
	.st32{fill:#FFFFFF;}
	.st33{fill:#E2E3E4;}
	.st34{fill:#F5F6F6;}
	.st35{fill:#FF3200;}
	.st36{fill:#C22600;}
	.st37{fill:#E3C571;}
	.st38{fill:#E6E7E8;}
	.st39{opacity:0.3;fill:#1D1D1B;}
	.st40{fill:#F9F8F7;}
	.st41{fill:#3A4D57;}
	.st42{fill:none;}
	.st43{fill:none;stroke:url(#SVGID_8_);stroke-width:3.8006;stroke-miterlimit:10;}
	.st44{fill-rule:evenodd;clip-rule:evenodd;fill:url(#SVGID_9_);}
	.st45{fill-rule:evenodd;clip-rule:evenodd;fill:url(#SVGID_10_);}
	.st46{fill-rule:evenodd;clip-rule:evenodd;fill:url(#SVGID_11_);}
	.st47{opacity:0.5;}
	.st48{fill:none;stroke:url(#SVGID_12_);stroke-width:3.8006;stroke-miterlimit:10;}
	.st49{fill-rule:evenodd;clip-rule:evenodd;fill:url(#SVGID_13_);}
	.st50{opacity:0.3;fill-rule:evenodd;clip-rule:evenodd;fill:#1D1D1B;}
</style>
<g id="Слой_2">
</g>
<g id="Слой_1">
	<path class="st5" d="M25.9,186.8c-0.9,26.8-1.8,53.6-2.7,80.4c6,1.8,12.1,3.6,18.1,5.3c-3-4.3-6-8.5-9.1-12.8
		c5.5-25.6,11-51.1,16.5-76.7c2,29.3,3.9,58.6,5.9,87.9c6.2,1.2,12.4,2.5,18.6,3.7c-3.2-4.1-6.4-8.2-9.6-12.3
		c0.4-26.6,3.9-53.5,4.2-80.1c-3-7.3-12.5-12.3-19.7-13.1C38.5,168.2,28.4,175.5,25.9,186.8z"/>
	<path class="st4" d="M42.1,83.4c5.1,1.7,10.2,3.4,15.3,5.1c1.7-3.4,3.5-8.1,4.8-13.8c1.4-6.7,1.4-12.5,1.1-16.7
		c2.5,1.9,5.1,3.9,7.6,5.8c-1.8-8.9-3.5-17.8-5.3-26.7c-3.1-0.4-6.1-0.9-9.2-1.3c-2,3.7-3.9,7.9-5.7,12.3
		C45.5,61.2,43.1,73.4,42.1,83.4z"/>
	<path class="st26" d="M54.8,58.9c0.4,0.7,1.3,1.7,2.6,2.5c1.4,0.9,2.7,1.3,3.5,1.5"/>
	<path class="st26" d="M59.2,44.7c0,0.1,0.5,1.3,1.7,1.6c1,0.3,2.1-0.1,2.7-1"/>
	<path class="st26" d="M65.4,45.2c0.3,0.2,0.9,0.7,1.8,0.8c1.3,0.1,2.2-0.7,2.4-0.9"/>
	<path class="st5" d="M41.8,81c-3.8,4.9-7.4,12.6-11.7,23.1c-2,5-6.2,16.4-8,52.1c-0.4,9.2-0.8,21.7-0.5,36.7
		c7.1,0.5,14.4,1,21.8,1.3c9.5,0.4,18.7,0.7,27.6,0.8c2.4-18.9,3.4-43.4-0.8-71.5c-2.2-14.7-5.5-27.8-9-39.1
		C55.4,83.4,47.6,82.2,41.8,81z"/>
	<path class="st11" d="M73.6,36.7c-0.8,0.7-1.8,1.4-3.1,2c-5.2,2.3-10.5,0.2-11.9-0.4c-0.5,0.7-1.2,1.6-2,2.5
		c-1.3,1.3-2.6,2.1-3.7,2.6c0.7-2.8,1.4-5.7,2.1-8.5c2.4-0.3,5.4-0.6,8.9-0.3C67.9,34.9,71.2,35.8,73.6,36.7z"/>
	<path class="st17" d="M48,81.9c0.2,5.5,1.5,14.9,1.9,20.7c1,13.5,2.8,26.1,4.9,37.7c0.8-12,1.9-24.4,3.2-37
		c0.6-5.5,1.2-13.8,1.8-19.1C56.2,83.7,51.6,82.4,48,81.9z"/>
	<polygon class="st5" points="46.1,78.8 44.1,90.9 54.3,87.9 61.9,93 65.2,78.8 54.7,83 	"/>
	<g>
		<path class="st4" d="M110.4,110.3c0.6,0.2,1.5,0.5,2.3,1c3.6-0.3,11.4-0.9,11.8-0.4c1.4,1.6-5.2,2.5-9.8,3
			c3.4,0.2,11.7,0.6,12.1,1.2c1.3,2-6.7,1.8-11.2,1.6c3.7,1.1,8.5,2.5,8.7,3c0.7,1.9-5,0.8-9.4-0.4c3,1.7,6.3,3.5,6.3,4
			c0.3,2-5-0.3-9-2.3c-1.2,0.5-3.9,1.1-6.8,1.3c-3.7,0.1-7.7-2.7-7.7-2.7L110.4,110.3z"/>
		<path class="st4" d="M98.4,115.5c1.2-0.6,10-7.2,12-7.1c2,0.1,7.8-2.5,7.7-0.9c-0.1,1.6-2.4,3.5-7.3,4.5l-2.3,2.4
			c0,0,0.1,2.2-1.6,4.1c-1.7,1.9-8.2-0.2-8.3-0.7C98.4,117.2,98.4,115.5,98.4,115.5z"/>
	</g>
	<path class="st5" d="M63,101.5c4,2.3,9.1,4.6,15.1,6.5c9.4,3,17.9,3.9,24.2,4c-0.3,3.4-0.6,6.8-0.9,10.2
		c-5.3,0.5-14.7,0.7-25.3-3.4c-6-2.3-10.7-5.4-13.9-8C62.5,107.7,62.7,104.6,63,101.5z"/>
	<path class="st4" d="M28.3,161.2c0.1-0.2,2.6-3.6,6.7-3.4c3.3,0.2,5.1,2.6,5.4,3C36.4,160.9,32.4,161,28.3,161.2z"/>
	<g>
		<path class="st8" d="M123.9,106.2h-3v-2.9c0-0.1-0.1-0.2-0.2-0.2h-8.1c-0.1,0-0.2,0.1-0.2,0.2v4.3c0,0.1,0.1,0.2,0.2,0.2h8.4h2
			l1-1.3C124.2,106.5,124.1,106.2,123.9,106.2z"/>
		<path class="st8" d="M126.6,104.9l-3.1,3.8H111c-0.4,0-0.7,0.3-0.7,0.7l0.6,15c0,0.4,0.3,0.7,0.7,0.7h27.5c0.4,0,0.7-0.3,0.7-0.7
			l0.9-19c0-0.4-0.3-0.7-0.7-0.7h-12.9C126.9,104.7,126.7,104.7,126.6,104.9z"/>
	</g>
</g>
</svg>
