<?xml version="1.0" encoding="utf-8"?>
<!-- Generator: Adobe Illustrator 19.1.0, SVG Export Plug-In . SVG Version: 6.00 Build 0)  -->
<svg version="1.1" xmlns="http://www.w3.org/2000/svg" xmlns:xlink="http://www.w3.org/1999/xlink" x="0px" y="0px"
	 viewBox="0 0 203.8 301.7" style="enable-background:new 0 0 203.8 301.7;" xml:space="preserve">
<style type="text/css">
	.st0{fill-rule:evenodd;clip-rule:evenodd;fill:url(#SVGID_1_);}
	.st1{fill-rule:evenodd;clip-rule:evenodd;fill:url(#SVGID_2_);}
	.st2{fill-rule:evenodd;clip-rule:evenodd;fill:url(#SVGID_3_);}
	.st3{fill:#12172F;}
	.st4{fill-rule:evenodd;clip-rule:evenodd;fill:#E9B579;}
	.st5{fill-rule:evenodd;clip-rule:evenodd;fill:#1D1D1B;}
	.st6{fill-rule:evenodd;clip-rule:evenodd;fill:#271323;}
	.st7{opacity:0.49;}
	.st8{fill:#F4D47A;}
	.st9{fill-rule:evenodd;clip-rule:evenodd;fill:url(#SVGID_4_);}
	.st10{fill-rule:evenodd;clip-rule:evenodd;fill:#482F4F;}
	.st11{fill:#1D1D1B;}
	.st12{fill:none;stroke:#1D1D1B;stroke-miterlimit:10;}
	.st13{fill-rule:evenodd;clip-rule:evenodd;fill:#877997;}
	.st14{fill-rule:evenodd;clip-rule:evenodd;fill:#5D396B;}
	.st15{fill-rule:evenodd;clip-rule:evenodd;fill:#9990AD;}
	.st16{fill-rule:evenodd;clip-rule:evenodd;fill:#FF3201;}
	.st17{fill-rule:evenodd;clip-rule:evenodd;fill:#FFFFFF;}
	.st18{fill-rule:evenodd;clip-rule:evenodd;fill:#5F4761;}
	.st19{fill-rule:evenodd;clip-rule:evenodd;fill:url(#SVGID_5_);}
	.st20{fill-rule:evenodd;clip-rule:evenodd;fill:#F4D47A;}
	.st21{fill-rule:evenodd;clip-rule:evenodd;fill:url(#SVGID_6_);}
	.st22{fill-rule:evenodd;clip-rule:evenodd;fill:#553D57;}
	.st23{opacity:0.53;fill-rule:evenodd;clip-rule:evenodd;fill:#E9B579;}
	.st24{fill:#E9B579;}
	.st25{opacity:0.62;fill-rule:evenodd;clip-rule:evenodd;fill:#E9B579;}
	.st26{fill-rule:evenodd;clip-rule:evenodd;fill:none;stroke:#1D1D1B;stroke-miterlimit:10;}
	.st27{fill-rule:evenodd;clip-rule:evenodd;fill:#291B32;}
	.st28{fill-rule:evenodd;clip-rule:evenodd;fill:#482F43;}
	.st29{fill-rule:evenodd;clip-rule:evenodd;fill:#7C637C;}
	.st30{fill:url(#SVGID_7_);}
	.st31{fill:#232E4F;}
	.st32{fill:#FFFFFF;}
	.st33{fill:#E2E3E4;}
	.st34{fill:#F5F6F6;}
	.st35{fill:#FF3200;}
	.st36{fill:#C22600;}
	.st37{fill:#E3C571;}
	.st38{fill:#E6E7E8;}
	.st39{opacity:0.3;fill:#1D1D1B;}
	.st40{fill:#F9F8F7;}
	.st41{fill:#3A4D57;}
	.st42{fill:none;}
	.st43{fill:none;stroke:url(#SVGID_8_);stroke-width:3.8006;stroke-miterlimit:10;}
	.st44{fill-rule:evenodd;clip-rule:evenodd;fill:url(#SVGID_9_);}
	.st45{fill-rule:evenodd;clip-rule:evenodd;fill:url(#SVGID_10_);}
	.st46{fill-rule:evenodd;clip-rule:evenodd;fill:url(#SVGID_11_);}
	.st47{opacity:0.5;}
	.st48{fill:none;stroke:url(#SVGID_12_);stroke-width:3.8006;stroke-miterlimit:10;}
	.st49{fill-rule:evenodd;clip-rule:evenodd;fill:url(#SVGID_13_);}
	.st50{opacity:0.3;fill-rule:evenodd;clip-rule:evenodd;fill:#1D1D1B;}
</style>
<g id="Слой_2">
</g>
<g id="Слой_1">
	<rect x="10.2" y="89.7" class="st6" width="53" height="70.4"/>
	<g class="st7">
		<path class="st8" d="M35.1,131.6h-3v-2.9c0-0.1-0.1-0.2-0.2-0.2h-8.1c-0.1,0-0.2,0.1-0.2,0.2v4.3c0,0.1,0.1,0.2,0.2,0.2h8.4h2
			l1-1.3C35.4,131.9,35.3,131.6,35.1,131.6z"/>
		<path class="st8" d="M37.7,130.3l-3.1,3.8H22.2c-0.4,0-0.7,0.3-0.7,0.7l0.6,15c0,0.4,0.3,0.7,0.7,0.7h27.5c0.4,0,0.7-0.3,0.7-0.7
			l0.9-19c0-0.4-0.3-0.7-0.7-0.7H38.3C38.1,130,37.9,130.1,37.7,130.3z"/>
	</g>
	<rect x="150.6" y="205.7" class="st10" width="6.9" height="49.2"/>
	<g>
		<path class="st4" d="M148.3,71.5l-14,0.3l-2.8,62.9l20.6-2.4c0.5-10.2,0.5-21.7-0.5-34.3C150.9,88.4,149.7,79.5,148.3,71.5z"/>
		<polygon class="st4" points="117,76.5 134.3,71.8 136.7,79.7 		"/>
		<path class="st11" d="M130.7,68.3c0.7,0.9,1.5,1.8,2.6,2.6c4.6,3.4,10.2,2.4,11.7,2.1c0.3,0.8,0.8,1.8,1.5,2.9
			c1,1.5,2.1,2.6,3,3.4c-0.1-2.9-0.2-5.8-0.3-8.7c-2.2-0.8-5.1-1.7-8.6-2.2C136.7,67.8,133.3,67.9,130.7,68.3z"/>
		<path class="st12" d="M135.7,73c0,0.3,0.1,1.2,0.8,1.9c0.8,0.8,2,1,3.1,0.6"/>
		<path class="st12" d="M134.7,92.6c1-0.1,3.5-0.4,6-2.4c2.5-2,3.4-4.4,3.7-5.4"/>
	</g>
	<g>
		<path class="st4" d="M75.7,136.7c-0.6,0.2-1.5,0.5-2.3,1c-3.6-0.3-11.4-0.9-11.8-0.4c-1.4,1.6,5.2,2.5,9.8,3
			c-3.4,0.2-11.7,0.6-12.1,1.2c-1.3,2,6.7,1.8,11.2,1.6c-3.7,1.1-8.5,2.5-8.7,3c-0.7,1.9,5,0.8,9.4-0.4c-3,1.7-6.3,3.5-6.3,4
			c-0.3,2,5-0.3,9-2.3c1.2,0.5,3.9,1.1,6.8,1.3c3.7,0.1,7.7-2.7,7.7-2.7L75.7,136.7z"/>
		<path class="st4" d="M87.7,141.9c-1.2-0.6-10-7.2-12-7.1c-2,0.1-7.8-2.5-7.7-0.9c0.1,1.6,2.4,3.5,7.3,4.5l2.3,2.4
			c0,0-0.1,2.2,1.6,4.1c1.7,1.9,8.2-0.2,8.3-0.7C87.7,143.6,87.7,141.9,87.7,141.9z"/>
	</g>
	<path class="st5" d="M148.3,124c-5.8,4.6-18.4,13.2-36.5,15.7c-11.7,1.6-21.5,0.2-27.9-1.3c0.3,3.4,0.6,6.8,0.9,10.2
		c6,1.9,15.9,4.1,28,2.7c20-2.3,33.2-13,38.2-17.5C150.1,130.6,149.2,127.3,148.3,124z"/>
	<path class="st5" d="M169.1,191.6c0.5,5.1,1,10.2,1.6,15.3c-21.9,0.2-43.8,0.5-65.8,0.7c-11.4,19-22.9,38-34.3,57
		c-8.4,0.2-16.9,0.3-25.3,0.5c7.3-4.2,14.6-8.5,21.8-12.7c7.7-18.7,15.5-37.4,23.2-56.1c17.2-2.8,34.3-5.5,51.5-8.3
		C150.9,189.2,160,190.4,169.1,191.6z"/>
	<path class="st5" d="M170.3,191.3c0.2,5.2,0.4,10.4,0.7,15.6c-18.7,0.2-37.4,0.4-56.1,0.6c-11.4,19-22.9,38-34.3,57
		c-8.4,0.2-16.9,0.3-25.3,0.5c7.3-4.2,14.6-8.5,21.8-12.7c7.7-18.7,15.5-37.4,23.2-56.1c17.2-2.8,34.3-5.5,51.5-8.3
		C158,189.1,164.1,190.2,170.3,191.3z"/>
	<path class="st5" d="M154.3,115.5c4.7,7.9,10.2,19,13.8,33.2c5.3,21,3.9,39,2.2,49.9c-12.5-0.7-25-1.4-37.5-2.2
		c-2.5-9.5-4.8-21.5-5.4-35.4c-0.8-17.3,1.2-32.1,3.5-43.2C138.7,117.2,146.5,116.4,154.3,115.5z"/>
	<rect x="127.1" y="205.7" class="st14" width="53.8" height="7.1"/>
	
		<rect x="150.7" y="169.7" transform="matrix(0.146 -0.9893 0.9893 0.146 -12.7017 331.7976)" class="st14" width="70.2" height="7.1"/>
	<path class="st28" d="M158,247.4c7.6,4,22.2,11.8,22.2,11.8l-0.7,3l-25.5-5.3l-25.5,5.3l-0.7-3c0,0,14.6-7.8,22.2-11.8H158z"/>
	<g>
		<path class="st29" d="M179.6,265.6c1.8,0,3.4-1.5,3.4-3.4c0-1.8-1.5-3.4-3.4-3.4s-3.4,1.5-3.4,3.4
			C176.2,264.1,177.7,265.6,179.6,265.6z"/>
		<path class="st29" d="M128.5,265.6c1.8,0,3.4-1.5,3.4-3.4c0-1.8-1.5-3.4-3.4-3.4c-1.8,0-3.4,1.5-3.4,3.4
			C125.1,264.1,126.7,265.6,128.5,265.6z"/>
	</g>
	<g>
		<path class="st8" d="M61,131.6h-3v-2.9c0-0.1-0.1-0.2-0.2-0.2h-8.1c-0.1,0-0.2,0.1-0.2,0.2v4.3c0,0.1,0.1,0.2,0.2,0.2h8.4h2l1-1.3
			C61.3,131.9,61.2,131.6,61,131.6z"/>
		<path class="st8" d="M63.7,130.3l-3.1,3.8H48.2c-0.4,0-0.7,0.3-0.7,0.7l0.6,15c0,0.4,0.3,0.7,0.7,0.7h27.5c0.4,0,0.7-0.3,0.7-0.7
			l0.9-19c0-0.4-0.3-0.7-0.7-0.7H64.2C64,130,63.8,130.1,63.7,130.3z"/>
	</g>
	<path class="st17" d="M132.7,117.8c2.9-0.3,5.9-0.6,8.8-0.9c-2.2,14-4.6,32.4-6.8,46.3c-1.3-5.4-2.4-16.5-2.8-24.1
		C131.4,130.9,131.9,123.7,132.7,117.8z"/>
	<polygon class="st5" points="126.3,114.8 127.9,127 136.7,121.1 145.5,123.8 144.6,109.2 135.7,116.3 	"/>
</g>
</svg>
