<?xml version="1.0" encoding="utf-8"?>
<!-- Generator: Adobe Illustrator 19.1.0, SVG Export Plug-In . SVG Version: 6.00 Build 0)  -->
<svg version="1.1" id="Слой_1" xmlns="http://www.w3.org/2000/svg" xmlns:xlink="http://www.w3.org/1999/xlink" x="0px" y="0px"
	 viewBox="-120.5 727.7 371.3 579" style="enable-background:new -120.5 727.7 371.3 579;" xml:space="preserve">
<style type="text/css">
	.st0{fill:url(#SVGID_1_);}
	.st1{fill:url(#SVGID_2_);}
	.st2{fill:url(#SVGID_3_);}
	.st3{fill:url(#SVGID_4_);}
	.st4{fill:url(#SVGID_5_);}
	.st5{fill:url(#SVGID_6_);}
	.st6{fill:url(#SVGID_7_);}
	.st7{fill:url(#SVGID_8_);}
	.st8{fill:url(#SVGID_9_);}
	.st9{fill:url(#SVGID_10_);}
	.st10{fill:url(#SVGID_11_);}
	.st11{fill:url(#SVGID_12_);}
	.st12{fill:url(#SVGID_13_);}
	.st13{fill:url(#SVGID_14_);}
	.st14{fill:url(#SVGID_15_);}
	.st15{fill:url(#SVGID_16_);}
	.st16{fill:url(#SVGID_17_);}
	.st17{fill:url(#SVGID_18_);}
	.st18{fill:url(#SVGID_19_);}
	.st19{fill:url(#SVGID_20_);}
	.st20{fill:url(#SVGID_21_);}
	.st21{fill:url(#SVGID_22_);}
	.st22{fill:url(#SVGID_23_);}
	.st23{fill:url(#SVGID_24_);}
	.st24{fill:url(#SVGID_25_);}
	.st25{fill:url(#SVGID_26_);}
	.st26{fill:url(#SVGID_27_);}
	.st27{fill:url(#SVGID_28_);}
	.st28{fill:url(#SVGID_29_);}
	.st29{fill:url(#SVGID_30_);}
	.st30{fill:url(#SVGID_31_);}
	.st31{fill:url(#SVGID_32_);}
	.st32{fill:url(#SVGID_33_);}
	.st33{fill:url(#SVGID_34_);}
	.st34{fill:url(#SVGID_35_);}
	.st35{fill:url(#SVGID_36_);}
	.st36{fill:url(#SVGID_37_);}
	.st37{fill:url(#SVGID_38_);}
	.st38{fill:url(#SVGID_39_);}
	.st39{fill:url(#SVGID_40_);}
	.st40{fill:url(#SVGID_41_);}
	.st41{fill:url(#SVGID_42_);}
	.st42{fill:url(#SVGID_43_);}
	.st43{fill:url(#SVGID_44_);}
	.st44{fill:url(#SVGID_45_);}
	.st45{fill:url(#SVGID_46_);}
	.st46{fill:url(#SVGID_47_);}
	.st47{fill:url(#SVGID_48_);}
	.st48{fill:url(#SVGID_49_);}
	.st49{fill:url(#SVGID_50_);}
	.st50{fill:url(#SVGID_51_);}
	.st51{fill:url(#SVGID_52_);}
	.st52{fill:url(#SVGID_53_);}
	.st53{fill:url(#SVGID_54_);}
	.st54{fill:url(#SVGID_55_);}
	.st55{fill:url(#SVGID_56_);}
	.st56{fill:url(#SVGID_57_);}
	.st57{fill:url(#SVGID_58_);}
	.st58{fill:url(#SVGID_59_);}
	.st59{fill:url(#SVGID_60_);}
	.st60{fill:url(#SVGID_61_);}
	.st61{fill:url(#SVGID_62_);}
	.st62{fill:url(#SVGID_63_);}
	.st63{fill:url(#SVGID_64_);}
	.st64{fill:url(#SVGID_65_);}
	.st65{fill:url(#SVGID_66_);}
	.st66{fill:url(#SVGID_67_);}
	.st67{fill:url(#SVGID_68_);}
	.st68{fill:url(#SVGID_69_);}
	.st69{fill:url(#SVGID_70_);}
	.st70{fill:url(#SVGID_71_);}
	.st71{fill:url(#SVGID_72_);}
	.st72{fill:url(#SVGID_73_);}
</style>
<linearGradient id="SVGID_1_" gradientUnits="userSpaceOnUse" x1="3711.5513" y1="-357.6301" x2="3733.292" y2="-344.5859" gradientTransform="matrix(-1 0 0 -1 3851.2852 805.4)">
	<stop  offset="0" style="stop-color:#FCE4C1"/>
	<stop  offset="0.5169" style="stop-color:#ECD2AB"/>
	<stop  offset="1" style="stop-color:#C69A77"/>
</linearGradient>
<polygon class="st0" points="83.5,1208 105.7,1217.6 175.2,1105.6 143.3,1105.6 "/>
<linearGradient id="SVGID_2_" gradientUnits="userSpaceOnUse" x1="3745.5732" y1="-443.5" x2="3805.1733" y2="-443.5" gradientTransform="matrix(-1 0 0 -1 3851.2852 805.4)">
	<stop  offset="0" style="stop-color:#A59789"/>
	<stop  offset="1" style="stop-color:#403525"/>
</linearGradient>
<path class="st1" d="M96.7,1256.4c1,11.2,2,22.3,3,33.5L70,1273.2l-2.6-33.5L52,1263.3l-5.8-3.2l16.7-43.9l20.7-8.3
	c7.4,3.2,14.8,6.4,22.2,9.6C102.7,1230.5,99.7,1243.5,96.7,1256.4z"/>
<linearGradient id="SVGID_3_" gradientUnits="userSpaceOnUse" x1="3689.8757" y1="-356.7505" x2="3711.6165" y2="-344.8921" gradientTransform="matrix(-1 0 0 -1 3851.2852 805.4)">
	<stop  offset="0" style="stop-color:#FCE4C1"/>
	<stop  offset="0.5169" style="stop-color:#ECD2AB"/>
	<stop  offset="1" style="stop-color:#C69A77"/>
</linearGradient>
<polygon class="st2" points="105.8,1208 127.9,1217.6 197.4,1105.6 165.5,1105.6 "/>
<linearGradient id="SVGID_4_" gradientUnits="userSpaceOnUse" x1="3723.3691" y1="-443.5" x2="3782.9692" y2="-443.5" gradientTransform="matrix(-1 0 0 -1 3851.2852 805.4)">
	<stop  offset="0" style="stop-color:#A59789"/>
	<stop  offset="1" style="stop-color:#403525"/>
</linearGradient>
<path class="st3" d="M118.9,1256.4c1,11.2,2,22.3,3,33.5l-29.7-16.7l-2.6-33.5l-15.4,23.6l-5.8-3.2l16.7-43.9l20.7-8.3
	c7.4,3.2,14.8,6.4,22.2,9.6C124.9,1230.5,121.9,1243.5,118.9,1256.4z"/>
<linearGradient id="SVGID_5_" gradientUnits="userSpaceOnUse" x1="150.7449" y1="1211.6046" x2="167.4046" y2="1211.6046">
	<stop  offset="0" style="stop-color:#FFFFFF"/>
	<stop  offset="0.1292" style="stop-color:#939393"/>
	<stop  offset="0.2921" style="stop-color:#939393"/>
	<stop  offset="0.6404" style="stop-color:#BBBBBB"/>
	<stop  offset="0.8034" style="stop-color:#D6D6D6"/>
	<stop  offset="1" style="stop-color:#9D9D9C"/>
</linearGradient>
<path class="st4" d="M163.4,1294.2c-2.1,0-3.9-1.6-4-3.8l-8.7-157.2c-0.1-2.2,1.6-4.1,3.8-4.2c2.2-0.1,4.1,1.6,4.2,3.8l8.7,157.2
	c0.1,2.2-1.6,4.1-3.8,4.2C163.5,1294.2,163.5,1294.2,163.4,1294.2z"/>
<linearGradient id="SVGID_6_" gradientUnits="userSpaceOnUse" x1="26.8757" y1="1211.6046" x2="43.5364" y2="1211.6046">
	<stop  offset="0" style="stop-color:#FFFFFF"/>
	<stop  offset="0.1292" style="stop-color:#939393"/>
	<stop  offset="0.2921" style="stop-color:#939393"/>
	<stop  offset="0.6404" style="stop-color:#BBBBBB"/>
	<stop  offset="0.8034" style="stop-color:#D6D6D6"/>
	<stop  offset="1" style="stop-color:#9D9D9C"/>
</linearGradient>
<path class="st5" d="M39.5,1294.2c-2.1,0-3.9-1.6-4-3.8l-8.7-157.2c-0.1-2.2,1.6-4.1,3.8-4.2c2.2-0.1,4.1,1.6,4.2,3.8l8.7,157.2
	c0.1,2.2-1.6,4.1-3.8,4.2C39.7,1294.2,39.6,1294.2,39.5,1294.2z"/>
<linearGradient id="SVGID_7_" gradientUnits="userSpaceOnUse" x1="-117.7134" y1="1211.6052" x2="-81.4234" y2="1211.6052">
	<stop  offset="0" style="stop-color:#FFFFFF"/>
	<stop  offset="0.1292" style="stop-color:#939393"/>
	<stop  offset="0.2921" style="stop-color:#939393"/>
	<stop  offset="0.6404" style="stop-color:#BBBBBB"/>
	<stop  offset="0.8034" style="stop-color:#D6D6D6"/>
	<stop  offset="1" style="stop-color:#9D9D9C"/>
</linearGradient>
<path class="st6" d="M-113.7,1294.2c-0.2,0-0.5,0-0.7-0.1c-2.2-0.4-3.6-2.5-3.2-4.6l28.3-157.2c0.4-2.2,2.5-3.6,4.6-3.2
	c2.2,0.4,3.6,2.5,3.2,4.6l-28.3,157.2C-110.1,1292.9-111.8,1294.2-113.7,1294.2z"/>
<linearGradient id="SVGID_8_" gradientUnits="userSpaceOnUse" x1="5.6762" y1="1211.606" x2="41.9654" y2="1211.606">
	<stop  offset="0" style="stop-color:#FFFFFF"/>
	<stop  offset="0.1292" style="stop-color:#939393"/>
	<stop  offset="0.2921" style="stop-color:#939393"/>
	<stop  offset="0.6404" style="stop-color:#BBBBBB"/>
	<stop  offset="0.8034" style="stop-color:#D6D6D6"/>
	<stop  offset="1" style="stop-color:#9D9D9C"/>
</linearGradient>
<path class="st7" d="M9.7,1294.2c-0.2,0-0.5,0-0.7-0.1c-2.2-0.4-3.6-2.5-3.2-4.6L34,1132.3c0.4-2.2,2.5-3.6,4.6-3.2
	c2.2,0.4,3.6,2.5,3.2,4.6l-28.3,157.2C13.3,1292.9,11.6,1294.2,9.7,1294.2z"/>
<linearGradient id="SVGID_9_" gradientUnits="userSpaceOnUse" x1="3649.0852" y1="-256.3" x2="3843.2852" y2="-256.3" gradientTransform="matrix(-1 0 0 -1 3851.2852 805.4)">
	<stop  offset="0" style="stop-color:#A59789"/>
	<stop  offset="1" style="stop-color:#403525"/>
</linearGradient>
<path class="st8" d="M99.3,1003H8l14.3,117.4l179.9-12.6v-15.6c0-11.5-2.1-17.5-10.6-19c-25.5-4.3-92-12.6-92-12.6L99.3,1003z"/>
<linearGradient id="SVGID_10_" gradientUnits="userSpaceOnUse" x1="202.6" y1="-203.55" x2="250.849" y2="-203.55" gradientTransform="matrix(1 0 0 -1 0 805.4)">
	<stop  offset="5.618000e-03" style="stop-color:#DADADA"/>
	<stop  offset="3.170791e-02" style="stop-color:#D7D7D7"/>
	<stop  offset="0.3304" style="stop-color:#BCBCBC"/>
	<stop  offset="0.5056" style="stop-color:#B2B2B2"/>
	<stop  offset="1" style="stop-color:#575756"/>
</linearGradient>
<rect x="202.6" y="1003" class="st9" width="48.2" height="11.9"/>
<linearGradient id="SVGID_11_" gradientUnits="userSpaceOnUse" x1="3757.644" y1="-14.3046" x2="3834.644" y2="-14.3046" gradientTransform="matrix(-0.9993 3.702697e-02 -3.702697e-02 -0.9993 3871.1672 656.8721)">
	<stop  offset="0" style="stop-color:#FCE4C1"/>
	<stop  offset="0.5169" style="stop-color:#ECD2AB"/>
	<stop  offset="1" style="stop-color:#C69A77"/>
</linearGradient>
<path class="st10" d="M102.5,748.7c21.2,47.9,17,90.5-4,103.9c-4.2,2.7-12.7,6.5-27.7,4c0.1,5.6,0.1,11.3,0.2,16.9
	c-9.6,0.6-19.1,1-28.7,1.6c0.8-10.3,1.5-25,0.8-42.5c-1.7-41.2-9.9-58.4,0.3-67.9c8.1-7.5,20.8,4.8,39.9-2.4
	C92.3,759.1,98.6,753.4,102.5,748.7z"/>
<linearGradient id="SVGID_12_" gradientUnits="userSpaceOnUse" x1="3750.158" y1="10.3104" x2="3875.6865" y2="10.3104" gradientTransform="matrix(-0.9993 3.702697e-02 -3.702697e-02 -0.9993 3871.1672 656.8721)">
	<stop  offset="1.685400e-02" style="stop-color:#D0AF97"/>
	<stop  offset="0.5" style="stop-color:#C09676"/>
	<stop  offset="1" style="stop-color:#A56C43"/>
</linearGradient>
<path class="st11" d="M108.3,741c-17-16.7-44.5-15.1-61.5-9.1c-30.3,10.6-50.1,43.1-48.7,69.6c0.4,7,0,24.6,12.9,36.4
	c11.8,10.8,27.2,10.3,30.2,10.2c23.6-0.8,45.9-22,56.9-53c3.1-0.5,16.3-3.2,22-14C127.7,766.8,116.5,749.1,108.3,741z"/>
<g>
	
		<linearGradient id="SVGID_13_" gradientUnits="userSpaceOnUse" x1="3837.9861" y1="-48.3546" x2="3864.679" y2="-48.3546" gradientTransform="matrix(-0.9993 3.702697e-02 -3.702697e-02 -0.9993 3871.1672 656.8721)">
		<stop  offset="1.685400e-02" style="stop-color:#D0AF97"/>
		<stop  offset="0.5" style="stop-color:#C09676"/>
		<stop  offset="1" style="stop-color:#A56C43"/>
	</linearGradient>
	<circle class="st12" cx="24.2" cy="847.8" r="13.3"/>
	
		<linearGradient id="SVGID_14_" gradientUnits="userSpaceOnUse" x1="3839.1638" y1="-63.0546" x2="3865.8572" y2="-63.0546" gradientTransform="matrix(-0.9993 3.702697e-02 -3.702697e-02 -0.9993 3871.1672 656.8721)">
		<stop  offset="1.685400e-02" style="stop-color:#D0AF97"/>
		<stop  offset="0.5" style="stop-color:#C09676"/>
		<stop  offset="1" style="stop-color:#A56C43"/>
	</linearGradient>
	<circle class="st13" cx="23.7" cy="862.5" r="13.3"/>
	
		<linearGradient id="SVGID_15_" gradientUnits="userSpaceOnUse" x1="3840.3108" y1="-77.6546" x2="3867.0037" y2="-77.6546" gradientTransform="matrix(-0.9993 3.702697e-02 -3.702697e-02 -0.9993 3871.1672 656.8721)">
		<stop  offset="1.685400e-02" style="stop-color:#D0AF97"/>
		<stop  offset="0.5" style="stop-color:#C09676"/>
		<stop  offset="1" style="stop-color:#A56C43"/>
	</linearGradient>
	<circle class="st14" cx="23" cy="877.2" r="13.3"/>
</g>
<linearGradient id="SVGID_16_" gradientUnits="userSpaceOnUse" x1="3828.625" y1="-132" x2="3854.125" y2="-132" gradientTransform="matrix(-1 0 0 -1 3851.2852 805.4)">
	<stop  offset="1.123600e-02" style="stop-color:#E7B7B0"/>
	<stop  offset="0.5" style="stop-color:#E1A39B"/>
	<stop  offset="1" style="stop-color:#C0887A"/>
</linearGradient>
<path class="st15" d="M-2.8,992.8h25.5v-98.1c0-7-5.7-12.7-12.7-12.7l0,0c-7,0-12.7,5.7-12.7,12.7v98.1H-2.8z"/>
<linearGradient id="SVGID_17_" gradientUnits="userSpaceOnUse" x1="3751.8616" y1="-135.0197" x2="3849.4851" y2="-135.0197" gradientTransform="matrix(-1 0 0 -1 3851.2852 805.4)">
	<stop  offset="1.123600e-02" style="stop-color:#E7B7B0"/>
	<stop  offset="0.5" style="stop-color:#E1A39B"/>
	<stop  offset="1" style="stop-color:#C0887A"/>
</linearGradient>
<path class="st16" d="M96.7,877.2c-8.4-3.6-24.9-9.4-46.2-8.2c-23.7,1.4-40.8,10.7-48.7,15.6C2.4,927.1,3,969.5,3.7,1012
	c31.8-1.2,63.6-2.5,95.3-3.7C101.1,966.9,94.6,918.5,96.7,877.2z"/>
<linearGradient id="SVGID_18_" gradientUnits="userSpaceOnUse" x1="3706.3352" y1="-176.9623" x2="3706.3352" y2="-208.9791" gradientTransform="matrix(-1 0 0 -1 3851.2852 805.4)">
	<stop  offset="0" style="stop-color:#FCE4C1"/>
	<stop  offset="0.5169" style="stop-color:#ECD2AB"/>
	<stop  offset="1" style="stop-color:#C69A77"/>
</linearGradient>
<path class="st17" d="M106.1,893.5v102h96.5v18.7h-96.5h-6.4c-6.8,0-12.4-5.5-12.4-12.4v-6.4v-102L106.1,893.5L106.1,893.5z"/>
<linearGradient id="SVGID_19_" gradientUnits="userSpaceOnUse" x1="3634.8352" y1="-176.9623" x2="3634.8352" y2="-208.9791" gradientTransform="matrix(-1 0 0 -1 3851.2852 805.4)">
	<stop  offset="0" style="stop-color:#FCE4C1"/>
	<stop  offset="0.5169" style="stop-color:#ECD2AB"/>
	<stop  offset="1" style="stop-color:#C69A77"/>
</linearGradient>
<path class="st18" d="M193,1001.1c5-5.2,9.9-10.3,14.9-15.5c10.7,1.8,21.4,3.6,32,5.3c-0.2,4.6-0.4,9.1-0.6,13.7
	c-8.2,0-16.3,0-24.5,0c-3.4,3.3-8.8,6.3-12.2,9.6C197.3,1014.3,196.8,1005.6,193,1001.1z"/>
<linearGradient id="SVGID_20_" gradientUnits="userSpaceOnUse" x1="3741.8574" y1="-127.25" x2="3767.3574" y2="-127.25" gradientTransform="matrix(-1 0 0 -1 3851.2852 805.4)">
	<stop  offset="1.123600e-02" style="stop-color:#E7B7B0"/>
	<stop  offset="0.5" style="stop-color:#E1A39B"/>
	<stop  offset="1" style="stop-color:#C0887A"/>
</linearGradient>
<path class="st19" d="M83.9,988.1h25.5v-98.2c0-7-5.7-12.7-12.7-12.7l0,0c-7,0-12.7,5.7-12.7,12.7v98.2H83.9z"/>
<linearGradient id="SVGID_21_" gradientUnits="userSpaceOnUse" x1="3813.4851" y1="-233" x2="3955.4851" y2="-233" gradientTransform="matrix(-1 0 0 -1 3851.2852 805.4)">
	<stop  offset="0" style="stop-color:#FFFFFF"/>
	<stop  offset="1" style="stop-color:#D2C8B8"/>
</linearGradient>
<polygon class="st20" points="37.8,1133.1 29.9,943.7 -104.2,943.7 -93.1,1133.1 "/>
<linearGradient id="SVGID_22_" gradientUnits="userSpaceOnUse" x1="3682.1851" y1="-314.9877" x2="3814.2852" y2="-314.9877" gradientTransform="matrix(-1 0 0 -1 3851.2852 805.4)">
	<stop  offset="0" style="stop-color:#FFFFFF"/>
	<stop  offset="1" style="stop-color:#D2C8B8"/>
</linearGradient>
<path class="st21" d="M37,1114l115.4-6.2c9.1-0.5,16.7,6.7,16.7,15.8v9.4H37V1114z"/>
</svg>
