<?xml version="1.0" encoding="utf-8"?>
<!-- Generator: Adobe Illustrator 19.1.0, SVG Export Plug-In . SVG Version: 6.00 Build 0)  -->
<svg version="1.1" id="Слой_1" xmlns="http://www.w3.org/2000/svg" xmlns:xlink="http://www.w3.org/1999/xlink" x="0px" y="0px"
	 viewBox="294 727.7 371.3 579" style="enable-background:new 294 727.7 371.3 579;" xml:space="preserve">
<style type="text/css">
	.st0{fill:url(#SVGID_1_);}
	.st1{fill:url(#SVGID_2_);}
	.st2{fill:url(#SVGID_3_);}
	.st3{fill:url(#SVGID_4_);}
	.st4{fill:url(#SVGID_5_);}
	.st5{fill:url(#SVGID_6_);}
	.st6{fill:url(#SVGID_7_);}
	.st7{fill:url(#SVGID_8_);}
	.st8{fill:url(#SVGID_9_);}
	.st9{fill:url(#SVGID_10_);}
	.st10{fill:url(#SVGID_11_);}
	.st11{fill:url(#SVGID_12_);}
	.st12{fill:url(#SVGID_13_);}
	.st13{fill:url(#SVGID_14_);}
	.st14{fill:url(#SVGID_15_);}
	.st15{fill:url(#SVGID_16_);}
	.st16{fill:url(#SVGID_17_);}
	.st17{fill:url(#SVGID_18_);}
	.st18{fill:url(#SVGID_19_);}
	.st19{fill:url(#SVGID_20_);}
	.st20{fill:url(#SVGID_21_);}
	.st21{fill:url(#SVGID_22_);}
	.st22{fill:url(#SVGID_23_);}
	.st23{fill:url(#SVGID_24_);}
	.st24{fill:url(#SVGID_25_);}
	.st25{fill:url(#SVGID_26_);}
	.st26{fill:url(#SVGID_27_);}
	.st27{fill:url(#SVGID_28_);}
	.st28{fill:url(#SVGID_29_);}
	.st29{fill:url(#SVGID_30_);}
	.st30{fill:url(#SVGID_31_);}
	.st31{fill:url(#SVGID_32_);}
	.st32{fill:url(#SVGID_33_);}
	.st33{fill:url(#SVGID_34_);}
	.st34{fill:url(#SVGID_35_);}
	.st35{fill:url(#SVGID_36_);}
	.st36{fill:url(#SVGID_37_);}
	.st37{fill:url(#SVGID_38_);}
	.st38{fill:url(#SVGID_39_);}
	.st39{fill:url(#SVGID_40_);}
	.st40{fill:url(#SVGID_41_);}
	.st41{fill:url(#SVGID_42_);}
	.st42{fill:url(#SVGID_43_);}
	.st43{fill:url(#SVGID_44_);}
	.st44{fill:url(#SVGID_45_);}
	.st45{fill:url(#SVGID_46_);}
	.st46{fill:url(#SVGID_47_);}
	.st47{fill:url(#SVGID_48_);}
	.st48{fill:url(#SVGID_49_);}
	.st49{fill:url(#SVGID_50_);}
	.st50{fill:url(#SVGID_51_);}
	.st51{fill:url(#SVGID_52_);}
	.st52{fill:url(#SVGID_53_);}
	.st53{fill:url(#SVGID_54_);}
	.st54{fill:url(#SVGID_55_);}
	.st55{fill:url(#SVGID_56_);}
	.st56{fill:url(#SVGID_57_);}
	.st57{fill:url(#SVGID_58_);}
	.st58{fill:url(#SVGID_59_);}
	.st59{fill:url(#SVGID_60_);}
	.st60{fill:url(#SVGID_61_);}
	.st61{fill:url(#SVGID_62_);}
	.st62{fill:url(#SVGID_63_);}
	.st63{fill:url(#SVGID_64_);}
	.st64{fill:url(#SVGID_65_);}
	.st65{fill:url(#SVGID_66_);}
	.st66{fill:url(#SVGID_67_);}
	.st67{fill:url(#SVGID_68_);}
	.st68{fill:url(#SVGID_69_);}
	.st69{fill:url(#SVGID_70_);}
	.st70{fill:url(#SVGID_71_);}
	.st71{fill:url(#SVGID_72_);}
	.st72{fill:url(#SVGID_73_);}
</style>
<linearGradient id="SVGID_1_" gradientUnits="userSpaceOnUse" x1="617.1009" y1="-203.55" x2="665.3499" y2="-203.55" gradientTransform="matrix(1 0 0 -1 0 805.4)">
	<stop  offset="5.618000e-03" style="stop-color:#DADADA"/>
	<stop  offset="3.170791e-02" style="stop-color:#D7D7D7"/>
	<stop  offset="0.3304" style="stop-color:#BCBCBC"/>
	<stop  offset="0.5056" style="stop-color:#B2B2B2"/>
	<stop  offset="1" style="stop-color:#575756"/>
</linearGradient>
<rect x="617.1" y="1003" class="st0" width="48.2" height="11.9"/>
<linearGradient id="SVGID_2_" gradientUnits="userSpaceOnUse" x1="3220.2729" y1="-176.0495" x2="3220.2729" y2="-208.0663" gradientTransform="matrix(-0.9977 6.713565e-02 -6.713565e-02 -0.9977 3830.9617 589.6396)">
	<stop  offset="0" style="stop-color:#FCE4C1"/>
	<stop  offset="0.5169" style="stop-color:#ECD2AB"/>
	<stop  offset="1" style="stop-color:#C69A77"/>
</linearGradient>
<path class="st1" d="M607.6,1001.8c4.6-5.5,9.2-10.9,13.8-16.5c10.8,1.1,21.6,2.2,32.3,3.1c0.1,4.6,0.2,9.1,0.3,13.7
	c-8.2,0.6-16.3,1.1-24.4,1.6c-3.2,3.5-8.4,6.9-11.5,10.4C612.8,1014.6,611.7,1006,607.6,1001.8z"/>
<linearGradient id="SVGID_3_" gradientUnits="userSpaceOnUse" x1="3297.0505" y1="-357.6301" x2="3318.7913" y2="-344.5859" gradientTransform="matrix(-1 0 0 -1 3851.2852 805.4)">
	<stop  offset="0" style="stop-color:#FCE4C1"/>
	<stop  offset="0.5169" style="stop-color:#ECD2AB"/>
	<stop  offset="1" style="stop-color:#C69A77"/>
</linearGradient>
<polygon class="st2" points="498,1208 520.2,1217.6 589.7,1105.6 557.8,1105.6 "/>
<linearGradient id="SVGID_4_" gradientUnits="userSpaceOnUse" x1="3331.0723" y1="-443.5" x2="3390.6724" y2="-443.5" gradientTransform="matrix(-1 0 0 -1 3851.2852 805.4)">
	<stop  offset="0" style="stop-color:#A59789"/>
	<stop  offset="1" style="stop-color:#403525"/>
</linearGradient>
<path class="st3" d="M511.2,1256.4c1,11.2,2,22.3,3,33.5l-29.7-16.7l-2.6-33.5l-15.4,23.6l-5.8-3.2l16.7-43.9l20.7-8.3
	c7.4,3.2,14.8,6.4,22.2,9.6C517.2,1230.5,514.2,1243.5,511.2,1256.4z"/>
<linearGradient id="SVGID_5_" gradientUnits="userSpaceOnUse" x1="3275.3748" y1="-356.7505" x2="3297.1155" y2="-344.8921" gradientTransform="matrix(-1 0 0 -1 3851.2852 805.4)">
	<stop  offset="0" style="stop-color:#FCE4C1"/>
	<stop  offset="0.5169" style="stop-color:#ECD2AB"/>
	<stop  offset="1" style="stop-color:#C69A77"/>
</linearGradient>
<polygon class="st4" points="520.3,1208 542.4,1217.6 611.9,1105.6 580,1105.6 "/>
<linearGradient id="SVGID_6_" gradientUnits="userSpaceOnUse" x1="3308.8682" y1="-443.5" x2="3368.4683" y2="-443.5" gradientTransform="matrix(-1 0 0 -1 3851.2852 805.4)">
	<stop  offset="0" style="stop-color:#A59789"/>
	<stop  offset="1" style="stop-color:#403525"/>
</linearGradient>
<path class="st5" d="M533.4,1256.4c1,11.2,2,22.3,3,33.5l-29.7-16.7l-2.6-33.5l-15.4,23.6l-5.8-3.2l16.7-43.9l20.7-8.3
	c7.4,3.2,14.8,6.4,22.2,9.6C539.4,1230.5,536.4,1243.5,533.4,1256.4z"/>
<linearGradient id="SVGID_7_" gradientUnits="userSpaceOnUse" x1="565.2457" y1="1211.6046" x2="581.9055" y2="1211.6046">
	<stop  offset="0" style="stop-color:#FFFFFF"/>
	<stop  offset="0.1292" style="stop-color:#939393"/>
	<stop  offset="0.2921" style="stop-color:#939393"/>
	<stop  offset="0.6404" style="stop-color:#BBBBBB"/>
	<stop  offset="0.8034" style="stop-color:#D6D6D6"/>
	<stop  offset="1" style="stop-color:#9D9D9C"/>
</linearGradient>
<path class="st6" d="M577.9,1294.2c-2.1,0-3.9-1.6-4-3.8l-8.7-157.2c-0.1-2.2,1.6-4.1,3.8-4.2c2.2-0.1,4.1,1.6,4.2,3.8l8.7,157.2
	c0.1,2.2-1.6,4.1-3.8,4.2C578.1,1294.2,578,1294.2,577.9,1294.2z"/>
<linearGradient id="SVGID_8_" gradientUnits="userSpaceOnUse" x1="441.3766" y1="1211.6046" x2="458.0373" y2="1211.6046">
	<stop  offset="0" style="stop-color:#FFFFFF"/>
	<stop  offset="0.1292" style="stop-color:#939393"/>
	<stop  offset="0.2921" style="stop-color:#939393"/>
	<stop  offset="0.6404" style="stop-color:#BBBBBB"/>
	<stop  offset="0.8034" style="stop-color:#D6D6D6"/>
	<stop  offset="1" style="stop-color:#9D9D9C"/>
</linearGradient>
<path class="st7" d="M454,1294.2c-2.1,0-3.9-1.6-4-3.8l-8.7-157.2c-0.1-2.2,1.6-4.1,3.8-4.2c2.2-0.1,4.1,1.6,4.2,3.8L458,1290
	c0.1,2.2-1.6,4.1-3.8,4.2C454.2,1294.2,454.1,1294.2,454,1294.2z"/>
<linearGradient id="SVGID_9_" gradientUnits="userSpaceOnUse" x1="296.7874" y1="1211.6052" x2="333.0775" y2="1211.6052">
	<stop  offset="0" style="stop-color:#FFFFFF"/>
	<stop  offset="0.1292" style="stop-color:#939393"/>
	<stop  offset="0.2921" style="stop-color:#939393"/>
	<stop  offset="0.6404" style="stop-color:#BBBBBB"/>
	<stop  offset="0.8034" style="stop-color:#D6D6D6"/>
	<stop  offset="1" style="stop-color:#9D9D9C"/>
</linearGradient>
<path class="st8" d="M300.8,1294.2c-0.2,0-0.5,0-0.7-0.1c-2.2-0.4-3.6-2.5-3.2-4.6l28.3-157.2c0.4-2.2,2.5-3.6,4.6-3.2
	c2.2,0.4,3.6,2.5,3.2,4.6l-28.3,157.2C304.4,1292.9,302.7,1294.2,300.8,1294.2z"/>
<linearGradient id="SVGID_10_" gradientUnits="userSpaceOnUse" x1="420.1771" y1="1211.606" x2="456.4663" y2="1211.606">
	<stop  offset="0" style="stop-color:#FFFFFF"/>
	<stop  offset="0.1292" style="stop-color:#939393"/>
	<stop  offset="0.2921" style="stop-color:#939393"/>
	<stop  offset="0.6404" style="stop-color:#BBBBBB"/>
	<stop  offset="0.8034" style="stop-color:#D6D6D6"/>
	<stop  offset="1" style="stop-color:#9D9D9C"/>
</linearGradient>
<path class="st9" d="M424.2,1294.2c-0.2,0-0.5,0-0.7-0.1c-2.2-0.4-3.6-2.5-3.2-4.6l28.3-157.2c0.4-2.2,2.5-3.6,4.6-3.2
	c2.2,0.4,3.6,2.5,3.2,4.6l-28.3,157.2C427.8,1292.9,426.1,1294.2,424.2,1294.2z"/>
<linearGradient id="SVGID_11_" gradientUnits="userSpaceOnUse" x1="3234.5842" y1="-256.3" x2="3428.7842" y2="-256.3" gradientTransform="matrix(-1 0 0 -1 3851.2852 805.4)">
	<stop  offset="0" style="stop-color:#A59789"/>
	<stop  offset="1" style="stop-color:#403525"/>
</linearGradient>
<path class="st10" d="M513.8,1003h-91.3l14.3,117.4l179.9-12.6v-15.6c0-11.5-2.1-17.5-10.6-19c-25.5-4.3-92-12.6-92-12.6L513.8,1003
	z"/>
<linearGradient id="SVGID_12_" gradientUnits="userSpaceOnUse" x1="3343.4275" y1="-29.6523" x2="3420.4275" y2="-29.6523" gradientTransform="matrix(-0.9993 3.702697e-02 -3.702697e-02 -0.9993 3871.1672 656.8721)">
	<stop  offset="0" style="stop-color:#FCE4C1"/>
	<stop  offset="0.5169" style="stop-color:#ECD2AB"/>
	<stop  offset="1" style="stop-color:#C69A77"/>
</linearGradient>
<path class="st11" d="M517,748.7c21.2,47.9,17,90.5-4,103.9c-4.2,2.7-12.7,6.5-27.7,4c0.1,5.6,0.1,11.3,0.2,16.9
	c-9.6,0.6-19.1,1-28.7,1.6c0.8-10.3,1.5-25,0.8-42.5c-1.7-41.2-9.9-58.4,0.3-67.9c8.1-7.5,20.8,4.8,39.9-2.4
	C506.8,759.1,513.1,753.4,517,748.7z"/>
<linearGradient id="SVGID_13_" gradientUnits="userSpaceOnUse" x1="3335.9414" y1="-5.0373" x2="3461.4697" y2="-5.0373" gradientTransform="matrix(-0.9993 3.702697e-02 -3.702697e-02 -0.9993 3871.1672 656.8721)">
	<stop  offset="1.685400e-02" style="stop-color:#D0AF97"/>
	<stop  offset="0.5" style="stop-color:#C09676"/>
	<stop  offset="1" style="stop-color:#A56C43"/>
</linearGradient>
<path class="st12" d="M522.8,741c-17-16.7-44.5-15.1-61.5-9.1c-30.3,10.6-50.1,43.1-48.7,69.6c0.4,7,0,24.6,12.9,36.4
	c11.8,10.8,27.2,10.3,30.2,10.2c23.6-0.8,45.9-22,56.9-53c3.1-0.5,16.3-3.2,22-14C542.2,766.8,531,749.1,522.8,741z"/>
<g>
	
		<linearGradient id="SVGID_14_" gradientUnits="userSpaceOnUse" x1="3423.7693" y1="-63.7023" x2="3450.4622" y2="-63.7023" gradientTransform="matrix(-0.9993 3.702697e-02 -3.702697e-02 -0.9993 3871.1672 656.8721)">
		<stop  offset="1.685400e-02" style="stop-color:#D0AF97"/>
		<stop  offset="0.5" style="stop-color:#C09676"/>
		<stop  offset="1" style="stop-color:#A56C43"/>
	</linearGradient>
	<circle class="st13" cx="438.7" cy="847.8" r="13.3"/>
	
		<linearGradient id="SVGID_15_" gradientUnits="userSpaceOnUse" x1="3424.947" y1="-78.4023" x2="3451.6404" y2="-78.4023" gradientTransform="matrix(-0.9993 3.702697e-02 -3.702697e-02 -0.9993 3871.1672 656.8721)">
		<stop  offset="1.685400e-02" style="stop-color:#D0AF97"/>
		<stop  offset="0.5" style="stop-color:#C09676"/>
		<stop  offset="1" style="stop-color:#A56C43"/>
	</linearGradient>
	<circle class="st14" cx="438.2" cy="862.5" r="13.3"/>
	
		<linearGradient id="SVGID_16_" gradientUnits="userSpaceOnUse" x1="3426.094" y1="-93.0023" x2="3452.7869" y2="-93.0023" gradientTransform="matrix(-0.9993 3.702697e-02 -3.702697e-02 -0.9993 3871.1672 656.8721)">
		<stop  offset="1.685400e-02" style="stop-color:#D0AF97"/>
		<stop  offset="0.5" style="stop-color:#C09676"/>
		<stop  offset="1" style="stop-color:#A56C43"/>
	</linearGradient>
	<circle class="st15" cx="437.5" cy="877.2" r="13.3"/>
</g>
<linearGradient id="SVGID_17_" gradientUnits="userSpaceOnUse" x1="3414.124" y1="-132" x2="3439.624" y2="-132" gradientTransform="matrix(-1 0 0 -1 3851.2852 805.4)">
	<stop  offset="1.123600e-02" style="stop-color:#E7B7B0"/>
	<stop  offset="0.5" style="stop-color:#E1A39B"/>
	<stop  offset="1" style="stop-color:#C0887A"/>
</linearGradient>
<path class="st16" d="M411.7,992.8h25.5v-98.1c0-7-5.7-12.7-12.7-12.7l0,0c-7,0-12.7,5.7-12.7,12.7v98.1H411.7z"/>
<linearGradient id="SVGID_18_" gradientUnits="userSpaceOnUse" x1="3337.3606" y1="-135.0197" x2="3434.9844" y2="-135.0197" gradientTransform="matrix(-1 0 0 -1 3851.2852 805.4)">
	<stop  offset="1.123600e-02" style="stop-color:#E7B7B0"/>
	<stop  offset="0.5" style="stop-color:#E1A39B"/>
	<stop  offset="1" style="stop-color:#C0887A"/>
</linearGradient>
<path class="st17" d="M511.2,877.2c-8.4-3.6-24.9-9.4-46.2-8.2c-23.7,1.4-40.8,10.7-48.7,15.6c0.6,42.5,1.2,84.9,1.9,127.4
	c31.8-1.2,63.6-2.5,95.3-3.7C515.6,966.9,509.1,918.5,511.2,877.2z"/>
<linearGradient id="SVGID_19_" gradientUnits="userSpaceOnUse" x1="3291.8342" y1="-176.9623" x2="3291.8342" y2="-208.9791" gradientTransform="matrix(-1 0 0 -1 3851.2852 805.4)">
	<stop  offset="0" style="stop-color:#FCE4C1"/>
	<stop  offset="0.5169" style="stop-color:#ECD2AB"/>
	<stop  offset="1" style="stop-color:#C69A77"/>
</linearGradient>
<path class="st18" d="M520.6,893.5v102h96.5v18.7h-96.5h-6.4c-6.8,0-12.4-5.5-12.4-12.4v-6.4v-102L520.6,893.5L520.6,893.5z"/>
<linearGradient id="SVGID_20_" gradientUnits="userSpaceOnUse" x1="3327.3564" y1="-127.25" x2="3352.8564" y2="-127.25" gradientTransform="matrix(-1 0 0 -1 3851.2852 805.4)">
	<stop  offset="1.123600e-02" style="stop-color:#E7B7B0"/>
	<stop  offset="0.5" style="stop-color:#E1A39B"/>
	<stop  offset="1" style="stop-color:#C0887A"/>
</linearGradient>
<path class="st19" d="M498.4,988.1h25.5v-98.2c0-7-5.7-12.7-12.7-12.7l0,0c-7,0-12.7,5.7-12.7,12.7v98.2H498.4z"/>
<linearGradient id="SVGID_21_" gradientUnits="userSpaceOnUse" x1="3398.9844" y1="-233" x2="3540.9844" y2="-233" gradientTransform="matrix(-1 0 0 -1 3851.2852 805.4)">
	<stop  offset="0" style="stop-color:#FFFFFF"/>
	<stop  offset="1" style="stop-color:#D2C8B8"/>
</linearGradient>
<polygon class="st20" points="452.3,1133.1 444.4,943.7 310.3,943.7 321.4,1133.1 "/>
<linearGradient id="SVGID_22_" gradientUnits="userSpaceOnUse" x1="3267.6843" y1="-314.9877" x2="3399.7842" y2="-314.9877" gradientTransform="matrix(-1 0 0 -1 3851.2852 805.4)">
	<stop  offset="0" style="stop-color:#FFFFFF"/>
	<stop  offset="1" style="stop-color:#D2C8B8"/>
</linearGradient>
<path class="st21" d="M451.5,1114l115.4-6.2c9.1-0.5,16.7,6.7,16.7,15.8v9.4H451.5V1114z"/>
</svg>
