<?xml version="1.0" encoding="utf-8"?>
<!-- Generator: Adobe Illustrator 19.1.0, SVG Export Plug-In . SVG Version: 6.00 Build 0)  -->
<svg version="1.1" id="Слой_1" xmlns="http://www.w3.org/2000/svg" xmlns:xlink="http://www.w3.org/1999/xlink" x="0px" y="0px"
	 viewBox="0 0 169.3 170.2" style="enable-background:new 0 0 169.3 170.2;" xml:space="preserve">
<style type="text/css">
	.st0{fill:#FFFFFF;}
	.st1{fill:url(#SVGID_1_);}
	.st2{fill:#232E4F;}
	.st3{fill:url(#SVGID_2_);}
	.st4{fill:url(#SVGID_3_);}
	.st5{fill:url(#SVGID_4_);}
	.st6{fill:#FF3201;}
</style>
<g>
	<g>
		<g>
			<polygon class="st0" points="135.1,127 67.8,153.5 0.2,127 0.2,32.4 135.1,32.4 			"/>
			<g>
				<linearGradient id="SVGID_1_" gradientUnits="userSpaceOnUse" x1="-5.880403e-06" y1="32.7491" x2="135.3049" y2="32.7491">
					<stop  offset="0" style="stop-color:#3D41A3"/>
					<stop  offset="1" style="stop-color:#2C4EDD"/>
				</linearGradient>
				<path class="st1" d="M67.7,0C67.6,0,67.6,0,67.7,0L67.7,0C31.5,0,1,14.9,0,32.8c1,17.8,31.5,32.7,67.6,32.7v0c0,0,0,0,0,0
					c36.1,0,66.6-14.9,67.7-32.7C134.3,14.9,103.7,0,67.7,0z"/>
				<path class="st2" d="M0,114.1v16.1c0,18.2,30.9,33.7,67.6,33.7v-26.4C37.1,137.5,11.5,128,0,114.1z"/>
				<linearGradient id="SVGID_2_" gradientUnits="userSpaceOnUse" x1="67.6245" y1="139.0254" x2="135.4597" y2="139.0254">
					<stop  offset="0" style="stop-color:#3D41A3"/>
					<stop  offset="1" style="stop-color:#2C4EDD"/>
				</linearGradient>
				<path class="st3" d="M67.7,164c36.7,0,67.8-15.5,67.8-33.8v-16.1c-11.7,13.9-37.3,23.5-67.8,23.5c0,0,0,0,0,0L67.7,164
					C67.6,164,67.6,164,67.7,164z"/>
				<path class="st2" d="M0,80.4v16.8c0,18.2,30.9,33.7,67.6,33.7v-27C37.1,103.8,11.5,94.3,0,80.4z"/>
				<linearGradient id="SVGID_3_" gradientUnits="userSpaceOnUse" x1="67.6245" y1="105.5966" x2="135.4597" y2="105.5966">
					<stop  offset="0" style="stop-color:#3D41A3"/>
					<stop  offset="1" style="stop-color:#2C4EDD"/>
				</linearGradient>
				<path class="st4" d="M67.7,130.8c36.7,0,67.8-15.3,67.8-33.6V80.4c-11.7,13.9-37.3,23.4-67.8,23.4c0,0,0,0,0,0L67.7,130.8
					C67.6,130.8,67.6,130.8,67.7,130.8z"/>
				<path class="st2" d="M0,48.8v14.7c0,18.2,30.9,33.7,67.6,33.7v-25C37.1,72.1,11.5,62.7,0,48.8z"/>
				<linearGradient id="SVGID_4_" gradientUnits="userSpaceOnUse" x1="67.6245" y1="72.9666" x2="135.4597" y2="72.9666">
					<stop  offset="0" style="stop-color:#3D41A3"/>
					<stop  offset="1" style="stop-color:#2C4EDD"/>
				</linearGradient>
				<path class="st5" d="M135.5,63.5V48.8c-11.7,13.9-37.3,23.3-67.8,23.3c0,0,0,0,0,0v25.1c0,0,0,0,0,0
					C104.4,97.2,135.5,81.7,135.5,63.5z"/>
			</g>
		</g>
	</g>
	<circle class="st6" cx="135.1" cy="136" r="34.2"/>
</g>
</svg>
