<?xml version="1.0" encoding="utf-8"?>
<!-- Generator: Adobe Illustrator 19.1.0, SVG Export Plug-In . SVG Version: 6.00 Build 0)  -->
<svg version="1.1" id="Слой_1" xmlns="http://www.w3.org/2000/svg" xmlns:xlink="http://www.w3.org/1999/xlink" x="0px" y="0px"
	 viewBox="0 0 190.9 174.4" style="enable-background:new 0 0 190.9 174.4;" xml:space="preserve">
<style type="text/css">
	.st0{fill:#FFFFFF;}
	.st1{fill:none;stroke:#000000;stroke-width:2;stroke-miterlimit:10;}
	.st2{fill:none;stroke:#2C4EDD;stroke-width:2.3917;stroke-linecap:round;stroke-miterlimit:10;}
	.st3{fill:#FF3200;}
	.st4{fill:#FCEF00;}
	.st5{fill:none;stroke:#FF3200;stroke-width:4.7835;stroke-linecap:round;stroke-miterlimit:10;}
	.st6{fill:#F4D47A;}
	.st7{clip-path:url(#SVGID_2_);}
	.st8{fill:none;stroke:#2C4EDD;stroke-width:6.454;stroke-linecap:square;stroke-miterlimit:10;}
	.st9{clip-path:url(#SVGID_4_);}
	.st10{fill:#7C6635;}
	.st11{fill:url(#SVGID_5_);}
	.st12{fill:url(#SVGID_6_);}
	.st13{fill:url(#SVGID_7_);}
	.st14{fill:url(#SVGID_8_);}
	.st15{fill:url(#SVGID_9_);}
	.st16{clip-path:url(#SVGID_11_);}
	.st17{fill:none;stroke:#FF3200;stroke-width:3;stroke-linecap:round;stroke-miterlimit:10;}
	.st18{clip-path:url(#SVGID_13_);}
	.st19{fill:none;stroke:#FFFFFF;stroke-width:3;stroke-linecap:round;stroke-miterlimit:10;}
	.st20{fill:url(#SVGID_14_);}
	.st21{fill:none;stroke:#FFFFFF;stroke-width:5.4088;stroke-linecap:round;stroke-miterlimit:10;}
	.st22{fill:#FF1D25;}
	.st23{fill:#2C4EDD;}
	.st24{fill:none;stroke:#FFFFFF;stroke-miterlimit:10;}
	.st25{fill:none;stroke:#FFFFFF;stroke-miterlimit:10;stroke-dasharray:2.0057,2.0057;}
	.st26{fill:none;stroke:#FFFFFF;stroke-width:4;stroke-miterlimit:10;}
	.st27{fill:none;stroke:#FFE39C;stroke-width:1.4992;stroke-linecap:round;stroke-miterlimit:10;}
	.st28{fill:none;stroke:#FFFFFF;stroke-width:1.4992;stroke-miterlimit:10;}
	.st29{fill:none;stroke:#FFFFFF;stroke-miterlimit:10;stroke-dasharray:1.9453,1.9453;}
	.st30{fill:none;stroke:#FFFFFF;stroke-miterlimit:10;stroke-dasharray:1.975,1.975;}
	.st31{opacity:0.5;fill:#F4D47A;}
	.st32{opacity:0.8;fill:url(#SVGID_15_);}
	.st33{fill:#FF3201;}
	.st34{fill:#7AC943;}
</style>
<g>
	<line class="st21" x1="18.6" y1="65.5" x2="2.7" y2="127.6"/>
	<path class="st21" d="M16.1,74.3c16.7,6.3,34.8,12.5,54.2,18.3c17.1,5.1,33.5,9.3,49.1,12.9"/>
	<path class="st21" d="M4.8,118.3c28.4,11.8,60.1,23.3,94.9,33.7c27,8.1,52.7,14.5,76.9,19.7"/>
	<path class="st21" d="M16.4,112.9c28.4,11.8,60.1,23.3,94.9,33.7c27,8.1,52.7,14.5,76.9,19.7"/>
	<g>
		<path class="st3" d="M45.5,70.1c-18-2-31-19.2-28.9-38.5C18.7,12.3,35-1.8,53.1,0.2s31,19.2,28.9,38.5
			C79.9,57.9,63.5,72,45.5,70.1z"/>
		<path class="st3" d="M42.3,99L42.3,99c-3.3-0.4-5.7-3.3-5.3-6.7l4.2-39.1l12,1.3L49,93.6C48.6,96.9,45.7,99.3,42.3,99z"/>
	</g>
</g>
</svg>
