<?xml version="1.0" encoding="utf-8"?>
<!-- Generator: Adobe Illustrator 19.1.0, SVG Export Plug-In . SVG Version: 6.00 Build 0)  -->
<svg version="1.1" id="Слой_1" xmlns="http://www.w3.org/2000/svg" xmlns:xlink="http://www.w3.org/1999/xlink" x="0px" y="0px"
	 viewBox="0 0 227.2 227.2" style="enable-background:new 0 0 227.2 227.2;" xml:space="preserve">
<style type="text/css">
	.st0{fill:#FFFFFF;}
	.st1{fill:none;stroke:#000000;stroke-width:2;stroke-miterlimit:10;}
	.st2{fill:none;stroke:#2C4EDD;stroke-width:2.3917;stroke-linecap:round;stroke-miterlimit:10;}
	.st3{fill:#FF3200;}
	.st4{fill:#FCEF00;}
	.st5{fill:none;stroke:#FF3200;stroke-width:4.7835;stroke-linecap:round;stroke-miterlimit:10;}
	.st6{fill:#F4D47A;}
	.st7{clip-path:url(#SVGID_2_);}
	.st8{fill:none;stroke:#2C4EDD;stroke-width:6.454;stroke-linecap:square;stroke-miterlimit:10;}
	.st9{clip-path:url(#SVGID_4_);}
	.st10{fill:#7C6635;}
	.st11{fill:url(#SVGID_5_);}
	.st12{fill:url(#SVGID_6_);}
	.st13{fill:url(#SVGID_7_);}
	.st14{fill:url(#SVGID_8_);}
	.st15{fill:url(#SVGID_9_);}
	.st16{clip-path:url(#SVGID_11_);}
	.st17{fill:none;stroke:#FF3200;stroke-width:3;stroke-linecap:round;stroke-miterlimit:10;}
	.st18{clip-path:url(#SVGID_13_);}
	.st19{fill:none;stroke:#FFFFFF;stroke-width:3;stroke-linecap:round;stroke-miterlimit:10;}
	.st20{fill:url(#SVGID_14_);}
	.st21{fill:none;stroke:#FFFFFF;stroke-width:5.4088;stroke-linecap:round;stroke-miterlimit:10;}
	.st22{fill:#FF1D25;}
	.st23{fill:#2C4EDD;}
	.st24{fill:none;stroke:#FFFFFF;stroke-miterlimit:10;}
	.st25{fill:none;stroke:#FFFFFF;stroke-miterlimit:10;stroke-dasharray:2.0057,2.0057;}
	.st26{fill:none;stroke:#FFFFFF;stroke-width:4;stroke-miterlimit:10;}
	.st27{font-family:'Ubuntu-Medium';}
	.st28{font-size:11.5261px;}
	.st29{fill:none;stroke:#FFE39C;stroke-width:1.4992;stroke-linecap:round;stroke-miterlimit:10;}
	.st30{fill:none;stroke:#FFFFFF;stroke-width:1.4992;stroke-miterlimit:10;}
	.st31{fill:none;stroke:#FFFFFF;stroke-miterlimit:10;stroke-dasharray:1.9453,1.9453;}
	.st32{fill:none;stroke:#FFFFFF;stroke-miterlimit:10;stroke-dasharray:1.975,1.975;}
	.st33{opacity:0.5;fill:#F4D47A;}
	.st34{opacity:0.8;fill:url(#SVGID_15_);}
	.st35{fill:#FF3201;}
	.st36{fill:#7AC943;}
</style>
<g>
	<g>
		<g>
			<path class="st24" d="M112.8,69.8c0.3,0,0.6,0,1,0"/>
			<path class="st25" d="M115.8,69.9c5.9,0.5,17.6,2.5,28.1,11.8c9.6,8.5,13.1,18.6,14.4,23.8"/>
			<path class="st24" d="M158.5,106.4c0.1,0.4,0.2,0.7,0.2,1"/>
		</g>
	</g>
	<g>
		<circle class="st26" cx="107.9" cy="119.3" r="94.4"/>
		<g>
			<g>
				<text transform="matrix(1 0 0 1 84.4565 95.5134)" class="st0 st27 st28">DS-1</text>
			</g>
			<circle class="st0" cx="96.8" cy="71.4" r="10.4"/>
			<circle class="st3" cx="96.8" cy="71.4" r="5.9"/>
		</g>
		<g>
			<g>
				<text transform="matrix(1 0 0 1 58.937 164.6911)" class="st0 st27 st28">MR-4</text>
			</g>
			<circle class="st0" cx="72.8" cy="140.6" r="10.4"/>
			<circle class="st3" cx="72.8" cy="140.6" r="5.9"/>
		</g>
		<g>
			<g>
				<text transform="matrix(1 0 0 1 146.5737 148.0505)" class="st0 st27 st28">B-17</text>
			</g>
			<circle class="st0" cx="158.7" cy="124" r="10.4"/>
			<circle class="st3" cx="158.7" cy="124" r="5.9"/>
		</g>
	</g>
	<path class="st29" d="M195.2,181.3c-9.2,13-21.4,24.1-36.4,32.2c-52,28.2-117,8.8-145.2-43.2S4.9,53.3,56.9,25.1
		c20.6-11.1,43.2-14.8,64.7-12"/>
	<path class="st30" d="M51.4,15.1C109-16.1,180.9,5.3,212.1,62.9c13.5,24.9,17.1,52.5,12.3,78.4"/>
	<g>
		<g>
			<path class="st24" d="M79.5,73.9c-0.3,0.1-0.6,0.3-0.9,0.5"/>
			<path class="st31" d="M76.9,75.3C72.5,78,65,83.5,60.4,93.5c-6.4,13.7-3.1,26.6-1.4,31.6"/>
			<path class="st24" d="M59.3,126c0.1,0.4,0.3,0.7,0.4,0.9"/>
		</g>
	</g>
	<g>
		<g>
			<path class="st24" d="M89.2,145.2c0.2,0.1,0.5,0.3,0.9,0.5"/>
			<path class="st32" d="M91.9,146.5c5.6,2.5,17.6,6.4,31.4,2.1c9.1-2.8,15.2-8.1,18.6-11.6"/>
			<path class="st24" d="M142.6,136.2c0.2-0.3,0.5-0.5,0.7-0.7"/>
		</g>
	</g>
</g>
</svg>
