<?xml version="1.0" encoding="utf-8"?>
<!-- Generator: Adobe Illustrator 19.1.0, SVG Export Plug-In . SVG Version: 6.00 Build 0)  -->
<svg version="1.1" id="Слой_1" xmlns="http://www.w3.org/2000/svg" xmlns:xlink="http://www.w3.org/1999/xlink" x="0px" y="0px"
	 viewBox="0 0 198.8 188.1" style="enable-background:new 0 0 198.8 188.1;" xml:space="preserve">
<style type="text/css">
	.st0{fill:url(#SVGID_1_);}
	.st1{fill:#232E4F;}
	.st2{fill:#FFFFFF;}
	.st3{fill:#E2E3E4;}
	.st4{fill:#F5F6F6;}
	.st5{fill:#FF3200;}
	.st6{fill:#C22600;}
	.st7{fill:#F4D47A;}
	.st8{fill:#E3C571;}
	.st9{fill:#E6E7E8;}
</style>
<g>
	<g>
		<linearGradient id="SVGID_1_" gradientUnits="userSpaceOnUse" x1="88.215" y1="97.7678" x2="116.2228" y2="97.7678">
			<stop  offset="0" style="stop-color:#3D41A3"/>
			<stop  offset="1" style="stop-color:#2C4EDD"/>
		</linearGradient>
		<polygon class="st0" points="88.2,7.6 88.2,10.3 88.2,187.9 116.2,187.9 116.2,38.3 116.2,7.6 		"/>
		<polygon class="st1" points="116.2,7.6 116.2,38.3 116.2,187.9 143.5,187.9 143.5,65.6 143.5,7.6 		"/>
		<polygon class="st2" points="94,15.5 94,16 94,139.8 116.2,139.8 116.2,38.3 116.2,15.5 		"/>
		<polygon class="st3" points="116.2,15.5 116.2,38.3 116.2,139.8 137.8,139.8 137.8,59.8 137.8,15.5 		"/>
		<path class="st4" d="M105.9,163.5c0,5.5,4.5,10,10,10c0.1,0,0.2,0,0.4,0v-20c-0.1,0-0.2,0-0.4,0
			C110.3,153.5,105.9,158,105.9,163.5z"/>
		<path class="st3" d="M116.2,153.5v20c5.4-0.2,9.7-4.6,9.7-10C125.9,158.1,121.6,153.7,116.2,153.5z"/>
	</g>
	<g>
		<polyline class="st5" points="143.5,65.6 143.5,187.9 171.5,187.9 171.5,93.6 171.5,93.6 171.5,7.6 143.5,7.6 143.5,65.6 		"/>
		<polygon class="st6" points="171.5,7.6 171.5,93.6 171.5,187.9 198.8,187.9 198.8,120.9 198.8,7.6 		"/>
		<polygon class="st4" points="149.3,15.5 149.3,71.3 149.3,139.8 171.5,139.8 171.5,93.6 171.5,15.5 		"/>
		<polygon class="st3" points="171.5,15.5 171.5,93.6 171.5,139.8 193.1,139.8 193.1,115.1 193.1,15.5 		"/>
		<path class="st4" d="M161.2,163.5c0,5.5,4.5,10,10,10c0.1,0,0.2,0,0.4,0v-20c-0.1,0-0.2,0-0.4,0
			C165.6,153.5,161.2,158,161.2,163.5z"/>
		<path class="st3" d="M171.5,153.5v20c5.4-0.2,9.7-4.6,9.7-10C181.2,158.1,176.9,153.7,171.5,153.5z"/>
	</g>
	<g>
		
			<rect x="-56.3" y="77" transform="matrix(0.2243 -0.9745 0.9745 0.2243 -62.3881 103.5683)" class="st7" width="180.3" height="28"/>
		
			<rect x="47.2" y="7" transform="matrix(0.9745 0.2243 -0.2243 0.9745 23.3431 -11.1621)" class="st8" width="27.3" height="180.3"/>
		
			<rect x="-20.9" y="60.9" transform="matrix(0.2243 -0.9745 0.9745 0.2243 -38.2492 95.9907)" class="st2" width="124.2" height="22.3"/>
		
			<rect x="51.7" y="14.8" transform="matrix(0.9745 0.2242 -0.2242 0.9745 18.8407 -12.0582)" class="st9" width="21.5" height="124.2"/>
		<path class="st2" d="M34.7,148.4c-5.4-1.2-10.8,2.1-12,7.5c-1.2,5.4,2.1,10.8,7.5,12c0.1,0,0.2,0,0.4,0.1l4.5-19.5
			C34.9,148.4,34.8,148.4,34.7,148.4z"/>
		<path class="st9" d="M42.2,160.4c1.2-5.3-2-10.5-7.2-11.9l-4.5,19.5C35.8,168.9,41,165.6,42.2,160.4z"/>
	</g>
</g>
</svg>
