<?xml version="1.0" encoding="utf-8"?>
<!-- Generator: Adobe Illustrator 19.1.0, SVG Export Plug-In . SVG Version: 6.00 Build 0)  -->
<svg version="1.1" id="Слой_1" xmlns="http://www.w3.org/2000/svg" xmlns:xlink="http://www.w3.org/1999/xlink" x="0px" y="0px"
	 viewBox="0 0 50.2 220.9" style="enable-background:new 0 0 50.2 220.9;" xml:space="preserve">
<style type="text/css">
	.st0{fill:#FFFFFF;}
	.st1{fill:none;stroke:#000000;stroke-width:2;stroke-miterlimit:10;}
	.st2{fill:none;stroke:#2C4EDD;stroke-width:2.3917;stroke-linecap:round;stroke-miterlimit:10;}
	.st3{fill:#FF3200;}
	.st4{fill:#FCEF00;}
	.st5{fill:none;stroke:#FF3200;stroke-width:4.7835;stroke-linecap:round;stroke-miterlimit:10;}
	.st6{fill:#F4D47A;}
	.st7{clip-path:url(#SVGID_2_);}
	.st8{fill:none;stroke:#2C4EDD;stroke-width:6.454;stroke-linecap:square;stroke-miterlimit:10;}
	.st9{clip-path:url(#SVGID_4_);}
	.st10{fill:#7C6635;}
	.st11{fill:url(#SVGID_5_);}
	.st12{fill:url(#SVGID_6_);}
	.st13{fill:url(#SVGID_7_);}
	.st14{fill:url(#SVGID_8_);}
	.st15{fill:url(#SVGID_9_);}
	.st16{clip-path:url(#SVGID_11_);}
	.st17{fill:none;stroke:#FF3200;stroke-width:3;stroke-linecap:round;stroke-miterlimit:10;}
	.st18{clip-path:url(#SVGID_13_);}
	.st19{fill:none;stroke:#FFFFFF;stroke-width:3;stroke-linecap:round;stroke-miterlimit:10;}
	.st20{fill:url(#SVGID_14_);}
	.st21{fill:none;stroke:#FFFFFF;stroke-width:5.4088;stroke-linecap:round;stroke-miterlimit:10;}
	.st22{fill:#FF1D25;}
	.st23{fill:#2C4EDD;}
	.st24{fill:none;stroke:#FFFFFF;stroke-miterlimit:10;}
	.st25{fill:none;stroke:#FFFFFF;stroke-miterlimit:10;stroke-dasharray:2.0057,2.0057;}
	.st26{fill:none;stroke:#FFFFFF;stroke-width:4;stroke-miterlimit:10;}
	.st27{fill:none;stroke:#FFE39C;stroke-width:1.4992;stroke-linecap:round;stroke-miterlimit:10;}
	.st28{fill:none;stroke:#FFFFFF;stroke-width:1.4992;stroke-miterlimit:10;}
	.st29{fill:none;stroke:#FFFFFF;stroke-miterlimit:10;stroke-dasharray:1.9453,1.9453;}
	.st30{fill:none;stroke:#FFFFFF;stroke-miterlimit:10;stroke-dasharray:1.975,1.975;}
	.st31{opacity:0.5;fill:#F4D47A;}
	.st32{opacity:0.8;fill:url(#SVGID_15_);}
	.st33{fill:#FF3201;}
	.st34{fill:#7AC943;}
</style>
<g>
	<g>
		<path class="st0" d="M35.5,0c0,0,16,17.5,14.6,28.6c-1.4,11.1-10.7,49.6-10.7,49.6l-15.2-2.3L35.5,0z"/>
		<path class="st0" d="M35.5,0c0,0-20.4,12.1-22.3,23.1C11.3,34.1,9,73.6,9,73.6l15.2,2.3L35.5,0z"/>
		<path class="st22" d="M11.9,71.3c0.5-8.8,2.5-38.6,4-47.8c1.2-7.2,12.8-16,19.1-20C39.8,9.2,48.4,21,47.4,28.3
			c-1.2,9.2-8,38.3-10,46.9L11.9,71.3z"/>
		<path class="st23" d="M14.7,69c0.7-10.9,2.4-36.7,3.9-45c0.4-2.5,2.9-5.9,6.8-9.7c3.2-3,6.7-5.6,9-7.2c1.8,2.2,4.4,5.7,6.5,9.5
			c2.7,4.7,4,8.7,3.7,11.3c-1.1,8.4-6.9,33.5-9.4,44.2L14.7,69z"/>
		<path class="st23" d="M17,38.8c-0.1,1.1-0.2,2.2-0.3,3.3c-0.1,1-0.2,2-0.2,2.9c-0.1,1-0.2,2-0.2,2.9c-0.1,1-0.1,2-0.2,2.9
			c-0.1,1-0.1,2-0.2,2.9c-0.1,1-0.1,2-0.2,2.9c-0.1,1-0.1,2-0.2,2.9c-0.1,1-0.1,2-0.2,2.9c-0.1,1-0.1,2-0.2,2.9
			c-0.1,1.2-0.2,2.3-0.2,3.3l20.6,3.1c0.2-1,0.5-2.1,0.8-3.3c0.2-0.9,0.4-1.9,0.7-2.9c0.2-0.9,0.4-1.9,0.7-2.9
			c0.2-0.9,0.4-1.9,0.7-2.9c0.2-0.9,0.4-1.9,0.7-2.9c0.2-1,0.4-1.9,0.7-2.9c0.2-1,0.4-1.9,0.6-2.9c0.2-1,0.4-1.9,0.6-2.9
			c0.2-1,0.4-1.9,0.6-2.9c0.2-1.1,0.5-2.2,0.7-3.3L17,38.8z"/>
		
			<rect x="16.7" y="67.2" transform="matrix(0.9891 0.1473 -0.1473 0.9891 10.9549 -2.8512)" class="st0" width="16" height="10.8"/>
	</g>
	<g>
		<path class="st19" d="M25.3,86.5c-1,7.4-6.6,6.7-7.6,14.1c-1,7.4,4.6,8.2,3.6,15.6c-1,7.4-6.6,6.7-7.6,14.1
			c-1,7.4,4.6,8.2,3.6,15.6c-1,7.4-6.6,6.7-7.6,14.1c-1,7.4,4.6,8.2,3.6,15.6c-1,7.4-6.6,6.7-7.6,14.1c-1,7.4,4.6,8.2,3.6,15.6
			c-1,7.4-6.6,6.7-7.6,14.1"/>
	</g>
</g>
</svg>
