<?xml version="1.0" encoding="utf-8"?>
<!-- Generator: Adobe Illustrator 19.1.0, SVG Export Plug-In . SVG Version: 6.00 Build 0)  -->
<svg version="1.1" id="Слой_1" xmlns="http://www.w3.org/2000/svg" xmlns:xlink="http://www.w3.org/1999/xlink" x="0px" y="0px"
	 viewBox="0 0 191.8 211.8" style="enable-background:new 0 0 191.8 211.8;" xml:space="preserve">
<style type="text/css">
	.st0{fill:#FFFFFF;}
	.st1{fill:none;stroke:#000000;stroke-width:2;stroke-miterlimit:10;}
	.st2{fill:none;stroke:#2C4EDD;stroke-width:2.3917;stroke-linecap:round;stroke-miterlimit:10;}
	.st3{fill:#FF3200;}
	.st4{fill:#FCEF00;}
	.st5{fill:none;stroke:#FF3200;stroke-width:4.7835;stroke-linecap:round;stroke-miterlimit:10;}
	.st6{fill:#F4D47A;}
	.st7{clip-path:url(#SVGID_2_);}
	.st8{fill:none;stroke:#2C4EDD;stroke-width:6.454;stroke-linecap:square;stroke-miterlimit:10;}
	.st9{clip-path:url(#SVGID_4_);}
	.st10{fill:#7C6635;}
	.st11{fill:url(#SVGID_5_);}
	.st12{fill:url(#SVGID_6_);}
	.st13{fill:url(#SVGID_7_);}
	.st14{fill:url(#SVGID_8_);}
	.st15{fill:url(#SVGID_9_);}
	.st16{clip-path:url(#SVGID_11_);}
	.st17{fill:none;stroke:#FF3200;stroke-width:3;stroke-linecap:round;stroke-miterlimit:10;}
	.st18{clip-path:url(#SVGID_13_);}
	.st19{fill:none;stroke:#FFFFFF;stroke-width:3;stroke-linecap:round;stroke-miterlimit:10;}
	.st20{fill:url(#SVGID_14_);}
	.st21{fill:none;stroke:#FFFFFF;stroke-width:5.4088;stroke-linecap:round;stroke-miterlimit:10;}
	.st22{fill:#FF1D25;}
	.st23{fill:#2C4EDD;}
	.st24{fill:none;stroke:#FFFFFF;stroke-miterlimit:10;}
	.st25{fill:none;stroke:#FFFFFF;stroke-miterlimit:10;stroke-dasharray:2.0057,2.0057;}
	.st26{fill:none;stroke:#FFFFFF;stroke-width:4;stroke-miterlimit:10;}
	.st27{fill:none;stroke:#FFE39C;stroke-width:1.4992;stroke-linecap:round;stroke-miterlimit:10;}
	.st28{fill:none;stroke:#FFFFFF;stroke-width:1.4992;stroke-miterlimit:10;}
	.st29{fill:none;stroke:#FFFFFF;stroke-miterlimit:10;stroke-dasharray:1.9453,1.9453;}
	.st30{fill:none;stroke:#FFFFFF;stroke-miterlimit:10;stroke-dasharray:1.975,1.975;}
	.st31{opacity:0.5;fill:#F4D47A;}
	.st32{opacity:0.8;fill:url(#SVGID_15_);}
	.st33{fill:#FF3201;}
	.st34{fill:#7AC943;}
</style>
<g>
	<line class="st2" x1="54.8" y1="34.7" x2="163.9" y2="105.2"/>
	<path class="st3" d="M169,134.2c-13.3,0.7-24.8-10.2-25.5-24.5c-0.8-14.2,9.4-26.4,22.7-27.1s24.8,10.2,25.5,24.5
		C192.5,121.3,182.3,133.5,169,134.2z"/>
	<path class="st4" d="M121.5,123.3c-5.2,0.3-9.8-4-10.1-9.6c-0.3-5.6,3.7-10.4,8.9-10.7c5.2-0.3,9.8,4,10.1,9.6
		C130.8,118.2,126.7,123,121.5,123.3z"/>
	<path class="st3" d="M170.2,155.5L170.2,155.5c-2.4,0.1-4.5-1.7-4.7-4.2l-1.6-28.9l8.9-0.5l1.6,28.9
		C174.5,153.3,172.6,155.4,170.2,155.5z"/>
	<line class="st5" x1="79.6" y1="2.4" x2="188.8" y2="72.9"/>
	<path class="st6" d="M56.2,57.7c11.3-0.4,19.3-12.4,18.5-23.4c-0.7-10.5-9.6-21-20.3-20.5c-8.1,0.4-14.6,6.9-17.2,14.7c0,0,0,0,0,0
		c-1.8,4.2-4.2,11.2-4.5,20.2c-0.3,10.7,2.6,19,4.5,23.5c6.7,0.4,13.4,0.7,20.1,1.1c-1.6-2.5-3.8-6.8-4.6-12.6
		c-0.1-1.1-0.2-2.2-0.2-3.2C53.8,57.7,55,57.8,56.2,57.7z"/>
	<g>
		<defs>
			<path id="SVGID_1_" d="M19.7,63.7c-4.3,7-13.1,23.3-12.2,45.2c1.5,37.6,30.2,59.7,34.4,62.8c7.5,0.2,15,0.4,22.5,0.6
				c1.1-19,2.3-38.1,3.4-57.1c2.3,0.2,4.5,0.4,6.8,0.6c-0.1,7.7-0.2,15.4-0.3,23c5.3,0.3,10.6,0.6,15.9,0.9
				c0.4-22.3,0.8-44.5,1.1-66.8C67.5,69.8,43.6,66.8,19.7,63.7z"/>
		</defs>
		<clipPath id="SVGID_2_">
			<use xlink:href="#SVGID_1_"  style="overflow:visible;"/>
		</clipPath>
		<g class="st7">
			<line class="st8" x1="14.1" y1="66.7" x2="106.1" y2="77.8"/>
			<line class="st8" x1="12.7" y1="79.3" x2="104.8" y2="89.3"/>
			<line class="st8" x1="11.4" y1="91.8" x2="103.5" y2="100.8"/>
			<line class="st8" x1="10" y1="104.4" x2="102.3" y2="112.2"/>
			<line class="st8" x1="8.7" y1="116.9" x2="101" y2="123.7"/>
			<line class="st8" x1="7.3" y1="129.4" x2="99.7" y2="135.2"/>
			<line class="st8" x1="6" y1="142" x2="98.5" y2="146.7"/>
			<line class="st8" x1="4.7" y1="154.5" x2="97.2" y2="158.2"/>
			<line class="st8" x1="3.3" y1="167" x2="95.9" y2="169.7"/>
		</g>
	</g>
	<g>
		<defs>
			<path id="SVGID_3_" d="M153.9,144.4c-26.3-0.1-52.6-0.2-78.9-0.3c-0.2,7.5-0.4,15-0.6,22.5c26.9-0.2,53.8-0.4,80.6-0.6
				C154.7,158.7,154.3,151.5,153.9,144.4z"/>
		</defs>
		<clipPath id="SVGID_4_">
			<use xlink:href="#SVGID_3_"  style="overflow:visible;"/>
		</clipPath>
		<g class="st9">
			<line class="st8" x1="169.7" y1="116.3" x2="178.6" y2="208.3"/>
			<line class="st8" x1="158.4" y1="114.9" x2="165.9" y2="207"/>
			<line class="st8" x1="147.2" y1="113.6" x2="153.2" y2="205.7"/>
			<line class="st8" x1="136" y1="112.2" x2="140.5" y2="204.5"/>
			<line class="st8" x1="124.7" y1="110.9" x2="127.9" y2="203.2"/>
			<line class="st8" x1="113.5" y1="109.5" x2="115.2" y2="201.9"/>
			<line class="st8" x1="102.3" y1="108.2" x2="102.5" y2="200.7"/>
			<line class="st8" x1="91" y1="106.9" x2="89.8" y2="199.4"/>
			<line class="st8" x1="79.8" y1="105.5" x2="77.1" y2="198.1"/>
		</g>
	</g>
	<path class="st10" d="M54.4,13.9c-8.1,0.4-14.6,6.9-17.2,14.7c0,0,0,0,0,0c-1,2.2-2.1,5.2-3,8.8c5.5-0.1,11-0.1,16.5-0.2
		c0.1-1,0.9-7.9,6.8-11.8c1-0.6,5.9-3.8,10.8-1.9c1.8,0.7,3.4,2,4.6,3.6C69.8,19.6,62.6,13.5,54.4,13.9z"/>
	<path class="st6" d="M169.9,165.8c-6.5,0.4-12.1-5-12.5-12c-0.4-7,4.6-12.9,11.1-13.3s12.1,5,12.5,12
		C181.4,159.5,176.4,165.5,169.9,165.8z"/>
</g>
</svg>
