<?xml version="1.0" encoding="utf-8"?>
<!-- Generator: Adobe Illustrator 19.1.0, SVG Export Plug-In . SVG Version: 6.00 Build 0)  -->
<svg version="1.1" xmlns="http://www.w3.org/2000/svg" xmlns:xlink="http://www.w3.org/1999/xlink" x="0px" y="0px"
	 viewBox="0 0 153.8 46" style="enable-background:new 0 0 153.8 46;" xml:space="preserve">
<style type="text/css">
	.st0{fill:url(#SVGID_1_);}
	.st1{fill:#FFFFFF;}
	.st2{fill:none;stroke:#000000;stroke-width:2;stroke-miterlimit:10;}
	.st3{fill:#2C4EDD;}
	.st4{fill:none;stroke:#FFFFFF;stroke-width:5.4088;stroke-linecap:round;stroke-miterlimit:10;}
	.st5{fill:#FF3200;}
	.st6{clip-path:url(#SVGID_3_);fill:url(#SVGID_4_);}
	.st7{fill:url(#SVGID_5_);}
	.st8{fill:#E3F0FF;}
	.st9{fill:url(#SVGID_6_);}
	.st10{fill:url(#SVGID_7_);}
	.st11{fill:url(#SVGID_8_);}
	.st12{fill:#12172F;}
	.st13{fill:#2A102C;}
	.st14{fill:url(#SVGID_9_);}
	.st15{fill:url(#SVGID_10_);}
	.st16{fill:url(#SVGID_11_);}
	.st17{opacity:0.67;fill:url(#SVGID_12_);}
	.st18{opacity:0.67;fill:url(#SVGID_13_);}
	.st19{fill:url(#SVGID_14_);}
	.st20{fill:none;stroke:#FFFFFF;stroke-width:3;stroke-miterlimit:10;}
	.st21{opacity:0.25;fill:none;stroke:#CFDAE5;stroke-width:20;stroke-miterlimit:10;}
	.st22{fill:none;stroke:#EF2932;stroke-width:16.9397;stroke-linecap:round;stroke-linejoin:round;stroke-miterlimit:10;}
	.st23{fill:none;stroke:#0102F7;stroke-width:16.9397;stroke-linecap:round;stroke-miterlimit:10;}
	.st24{fill:#FFFFFF;stroke:#0102F7;stroke-width:16.9397;stroke-linecap:round;stroke-miterlimit:10;}
	.st25{fill:none;stroke:url(#SVGID_15_);stroke-width:16.9397;stroke-linecap:round;stroke-linejoin:round;stroke-miterlimit:10;}
	.st26{opacity:0.56;fill:#CFDAE5;}
	.st27{clip-path:url(#SVGID_17_);fill:#2C4EDD;}
	.st28{fill:#F2F2F2;stroke:#000000;stroke-miterlimit:10;}
	.st29{fill:none;stroke:#000000;stroke-miterlimit:10;}
	.st30{clip-path:url(#SVGID_19_);fill:#2C4EDD;}
	.st31{clip-path:url(#SVGID_21_);}
	.st32{fill:none;stroke:#000000;stroke-width:4;stroke-linecap:round;stroke-linejoin:round;stroke-miterlimit:10;}
	.st33{fill:none;stroke:#000000;stroke-width:4;stroke-linecap:round;stroke-miterlimit:10;}
	.st34{fill:#FFFFFF;stroke:#000000;stroke-width:4;stroke-linecap:round;stroke-miterlimit:10;}
	.st35{fill:url(#SVGID_22_);}
	.st36{fill:url(#SVGID_23_);}
	.st37{fill:url(#SVGID_24_);}
	.st38{clip-path:url(#SVGID_26_);fill:#2C4EDD;}
	.st39{clip-path:url(#SVGID_28_);fill:#2C4EDD;}
	.st40{fill:none;stroke:#2C4EDD;stroke-width:2.3917;stroke-linecap:round;stroke-miterlimit:10;}
	.st41{fill:#FCEF00;}
	.st42{fill:none;stroke:#FF3201;stroke-width:4.7835;stroke-linecap:round;stroke-miterlimit:10;}
	.st43{fill:#F4D47A;}
	.st44{clip-path:url(#SVGID_30_);}
	.st45{fill:none;stroke:#FFFFFF;stroke-width:6.454;stroke-linecap:square;stroke-miterlimit:10;}
	.st46{clip-path:url(#SVGID_32_);}
	.st47{fill:#7C6635;}
	.st48{fill:none;stroke:#FF3200;stroke-width:5.4088;stroke-linecap:round;stroke-miterlimit:10;}
	.st49{fill:none;stroke:#FF3200;stroke-width:4.7835;stroke-linecap:round;stroke-miterlimit:10;}
	.st50{clip-path:url(#SVGID_34_);}
	.st51{fill:none;stroke:#2C4EDD;stroke-width:6.454;stroke-linecap:square;stroke-miterlimit:10;}
	.st52{clip-path:url(#SVGID_36_);}
	.st53{fill:url(#SVGID_37_);}
	.st54{fill:url(#SVGID_38_);}
	.st55{clip-path:url(#SVGID_40_);fill:#2C4EDD;}
	.st56{clip-path:url(#SVGID_42_);fill:#2C4EDD;}
	.st57{fill:url(#SVGID_43_);}
	.st58{clip-path:url(#SVGID_45_);fill:#2C4EDD;}
	.st59{clip-path:url(#SVGID_47_);fill:#2C4EDD;}
	.st60{clip-path:url(#SVGID_49_);}
	.st61{clip-path:url(#SVGID_51_);}
	.st62{opacity:0.8;fill:url(#SVGID_52_);}
	.st63{clip-path:url(#SVGID_54_);}
	.st64{opacity:0.5;fill:#F4D47A;}
	.st65{opacity:0.8;fill:url(#SVGID_55_);}
	.st66{clip-path:url(#SVGID_54_);fill:#F4D47A;}
	.st67{clip-path:url(#SVGID_54_);fill:#7AC943;}
	.st68{fill:url(#SVGID_56_);}
	.st69{fill:none;stroke:#FFFFFF;stroke-width:3;stroke-linecap:round;stroke-linejoin:round;stroke-miterlimit:10;}
	.st70{fill:none;stroke:#FFFFFF;stroke-width:0.25;stroke-linecap:round;stroke-linejoin:round;stroke-miterlimit:10;}
	.st71{fill:#FF1D25;}
	.st72{fill:none;stroke:url(#SVGID_57_);stroke-miterlimit:10;}
	.st73{fill:none;stroke:url(#SVGID_58_);stroke-miterlimit:10;}
	.st74{fill:none;stroke:url(#SVGID_59_);stroke-miterlimit:10;}
	.st75{fill:none;stroke:url(#SVGID_60_);stroke-width:3.5847;stroke-miterlimit:10;}
	.st76{fill:none;stroke:url(#SVGID_61_);stroke-width:3.8006;stroke-miterlimit:10;}
	.st77{fill:#FFFFFF;stroke:#FFFFFF;stroke-width:3.5847;stroke-miterlimit:10;}
	.st78{fill:#FFFFFF;stroke:url(#SVGID_62_);stroke-width:3.5847;stroke-miterlimit:10;}
	.st79{fill:url(#SVGID_63_);}
	.st80{fill:url(#SVGID_64_);}
	.st81{fill:url(#SVGID_65_);}
	.st82{fill:url(#SVGID_66_);}
	.st83{fill:none;stroke:url(#SVGID_67_);stroke-width:3.5847;stroke-miterlimit:10;}
	.st84{clip-path:url(#SVGID_69_);}
	.st85{fill:none;stroke:url(#SVGID_70_);stroke-miterlimit:10;}
	.st86{fill:none;stroke:#BABABA;stroke-width:0.8914;stroke-miterlimit:10;}
	.st87{fill:none;stroke:#2C4EDD;stroke-width:0.8914;stroke-miterlimit:10;}
	.st88{opacity:0.3;fill:none;stroke:#000000;stroke-width:0.5;stroke-miterlimit:10;}
	.st89{opacity:0.3;fill:none;stroke:#FFFFFF;stroke-width:0.5;stroke-miterlimit:10;}
	.st90{fill:none;stroke:#000000;stroke-width:3.3535;stroke-linecap:round;stroke-linejoin:round;stroke-miterlimit:10;}
	.st91{fill:#FFFFFF;stroke:#000000;stroke-width:1.4476;stroke-linecap:round;stroke-linejoin:round;stroke-miterlimit:10;}
	.st92{fill:none;stroke:#000000;stroke-width:1.4476;stroke-linecap:round;stroke-linejoin:round;stroke-miterlimit:10;}
	.st93{fill:none;stroke:#000000;stroke-width:3.3348;stroke-linecap:round;stroke-linejoin:round;stroke-miterlimit:10;}
	.st94{fill:#FFFFFF;stroke:#000000;stroke-width:3.3535;stroke-linecap:round;stroke-linejoin:round;stroke-miterlimit:10;}
	.st95{stroke:#000000;stroke-width:3.3535;stroke-linecap:round;stroke-linejoin:round;stroke-miterlimit:10;}
	.st96{fill:none;stroke:#FFFFFF;stroke-width:9.6752;stroke-linecap:round;stroke-linejoin:round;stroke-miterlimit:10;}
	.st97{fill:none;stroke:#000000;stroke-width:3.1994;stroke-linecap:round;stroke-linejoin:round;stroke-miterlimit:10;}
	.st98{fill:none;stroke:#000000;stroke-width:1.9792;stroke-linecap:round;stroke-linejoin:round;stroke-miterlimit:10;}
	.st99{fill:#FFFFFF;stroke:#000000;stroke-width:1.9792;stroke-linecap:round;stroke-linejoin:round;stroke-miterlimit:10;}
	.st100{stroke:#000000;stroke-width:1.9792;stroke-linecap:round;stroke-linejoin:round;stroke-miterlimit:10;}
	.st101{fill:none;stroke:#FFFFFF;stroke-width:5.7102;stroke-linecap:round;stroke-linejoin:round;stroke-miterlimit:10;}
	.st102{fill:none;stroke:#000000;stroke-width:1.8883;stroke-linecap:round;stroke-linejoin:round;stroke-miterlimit:10;}
	.st103{fill:none;stroke:#FFFFFF;stroke-width:1.9792;stroke-linecap:round;stroke-linejoin:round;stroke-miterlimit:10;}
	.st104{fill:none;stroke:#000000;stroke-width:4.2412;stroke-miterlimit:10;}
	.st105{fill:none;stroke:url(#SVGID_71_);stroke-width:3.5847;stroke-miterlimit:10;}
	.st106{fill:none;}
	.st107{fill:#FF0000;}
	.st108{fill:#282828;}
	.st109{fill:url(#SVGID_72_);}
	.st110{fill:#C8DAEA;}
	.st111{fill:#A9C9DD;}
	.st112{fill:url(#SVGID_73_);}
	.st113{fill:#3C5A99;}
	.st114{fill:#D6D6D6;}
	.st115{fill:#C2C2C2;}
	.st116{fill:none;stroke:#FFFFFF;stroke-width:2.3987;stroke-linecap:round;stroke-linejoin:round;}
	.st117{fill:#FF3201;}
	.st118{fill:none;stroke:#F4D47A;stroke-width:7;stroke-miterlimit:10;}
	.st119{fill:none;stroke:#FFFFFF;stroke-width:3;stroke-linecap:round;stroke-miterlimit:10;}
	.st120{opacity:0.9;fill:url(#SVGID_74_);}
	.st121{opacity:0.15;fill:#FFFFFF;}
	.st122{fill:#FFE39C;}
	.st123{opacity:0.79;}
	.st124{fill:#FFFF00;}
</style>
<g id="Слой_1">
	<g>
		<path class="st5" d="M32,0c-1.5,0-2.7,0.9-2.7,2.7v7.7c-1.9-1.2-4.3-1.8-7-1.8h-11c-1.5,0-2.7,1.2-2.7,2.7l5.4,2.7h8.4
			c6.4,0,7,4.6,7,6.6c0,2.3-0.6,3.9-1.7,5c-1.2,1.1-3,1.6-5.5,1.6h-8.2l-5.4,2.7c0,1.5,1.2,2.7,2.7,2.7h10.9
			c7.9,0,12.6-4.5,12.6-11.9V2.7C34.6,0.8,33.4,0,32,0z"/>
		<path class="st3" d="M12.2,26.9c-0.2,0-0.3,0.1-0.5,0.1l0,0c0,0,0,0,0.1,0c0,0,0,0,0,0C11.9,27,12.1,27,12.2,26.9z"/>
		<path class="st3" d="M20.5,13.9c-2-3.2-5.4-5.4-9.3-5.4c-2.1,0-4.1,0.6-5.8,1.8V9V2.7C5.4,0.8,4.2,0,2.7,0S0,0.9,0,2.7v17.7
			c0,0,0,0,0,0C0,27,5,32.4,11.2,32.4c3.9,0,7.3-2.1,9.3-5.4c1.2-1.9,1.9-4.1,1.9-6.6S21.7,15.8,20.5,13.9z M13.9,26.3
			c-0.5,0.3-1,0.5-1.6,0.6c-0.1,0-0.3,0.1-0.5,0.1c0,0,0,0,0,0c-0.2,0-0.4,0-0.6,0c-1,0-1.9-0.3-2.7-0.7c-1.9-1.1-3.1-3.3-3.1-5.8
			c0,0,0,0,0,0v0c0-2.5,1.3-4.7,3.1-5.8c0.8-0.5,1.7-0.7,2.7-0.7s1.9,0.3,2.7,0.7c1.9,1.1,3.1,3.3,3.1,5.8
			C17,23,15.7,25.2,13.9,26.3z"/>
		<linearGradient id="SVGID_1_" gradientUnits="userSpaceOnUse" x1="4.5374" y1="42.3762" x2="30.1003" y2="42.3762">
			<stop  offset="0" style="stop-color:#FF3201"/>
			<stop  offset="0.5019" style="stop-color:#C45492"/>
			<stop  offset="1" style="stop-color:#2C4EDD"/>
		</linearGradient>
		<path class="st0" d="M17.1,46c-3.9,0-7.7-0.8-11.1-2.5c-1.4-0.6-1.8-2.1-1.2-3.3C5.4,39,6.7,38.4,8.1,39c5.6,2.6,12.3,2.7,18.4,0
			c1.5-0.6,2.7,0,3.3,1.3c0.6,1.3,0.1,2.7-1.3,3.3C24.9,45.2,21,46,17.1,46z"/>
		<g>
			<path d="M99.8,45.2c-0.8,0-1.5-0.7-1.5-1.5c0-0.8,0.7-1.5,1.5-1.5c0.8,0,1.5,0.7,1.5,1.5C101.3,44.5,100.6,45.2,99.8,45.2z"/>
			<path d="M109.9,44.1c-0.6,0.6-1.5,1.1-2.8,1.1c-1.4,0-2.3-0.5-2.8-1.1c-0.8-0.9-1-1.9-1-3.6c0-1.7,0.2-2.7,1-3.6
				c0.6-0.6,1.5-1.1,2.8-1.1c1.4,0,2.3,0.5,2.8,1.1c0.8,0.9,1,1.9,1,3.6C111,42.3,110.7,43.3,109.9,44.1z M106,42.8
				c0.3,0.3,0.6,0.4,1.1,0.4c0.5,0,0.8-0.1,1.1-0.4c0.5-0.5,0.5-1.3,0.5-2.2c0-1-0.1-1.8-0.5-2.2c-0.3-0.3-0.6-0.4-1.1-0.4
				c-0.5,0-0.8,0.1-1.1,0.4c-0.5,0.5-0.5,1.3-0.5,2.2C105.5,41.6,105.6,42.4,106,42.8z"/>
			<path d="M117.6,35.9c0.9,0,1.6,0.3,2.2,0.8c0.7,0.7,0.9,1.6,0.9,2.6v4.3c0,0.6,0,0.8-0.1,1c-0.2,0.3-0.5,0.5-1,0.5
				c-0.5,0-0.8-0.2-1-0.5c-0.1-0.2-0.1-0.5-0.1-1v-4c0-1.2-0.8-1.6-1.5-1.6s-1.5,0.4-1.5,1.6v4c0,0.6,0,0.8-0.1,1
				c-0.2,0.3-0.5,0.5-1,0.5c-0.5,0-0.8-0.2-1-0.5c-0.1-0.2-0.1-0.5-0.1-1v-6.2c0-0.6,0-0.8,0.2-1c0.2-0.3,0.6-0.5,1-0.5
				c0.3,0,0.6,0.1,0.7,0.3c0.2,0.2,0.3,0.4,0.3,0.7C115.9,36.2,116.8,35.9,117.6,35.9z"/>
			<path d="M125.4,42.4c0,0.4,0.2,0.8,0.7,0.8c0.3,0,0.5,0,0.7,0.1c0.3,0.1,0.5,0.4,0.5,0.8c0,0.4-0.2,0.7-0.5,0.8
				c-0.2,0.1-0.5,0.2-0.9,0.2h-0.1c-1.9,0-2.6-1.3-2.6-2.6v-8.4c0-0.6,0-0.8,0.1-1c0.2-0.3,0.5-0.5,1-0.5c0.5,0,0.8,0.2,1,0.5
				c0.1,0.2,0.1,0.5,0.1,1V42.4z"/>
			<path d="M129.9,32.1c0.7,0,1.3,0.6,1.3,1.3c0,0.7-0.6,1.3-1.3,1.3s-1.3-0.6-1.3-1.3C128.6,32.7,129.2,32.1,129.9,32.1z
				 M130.9,44.7c-0.2,0.3-0.5,0.5-1,0.5c-0.5,0-0.8-0.2-1-0.5c-0.1-0.2-0.1-0.5-0.1-1v-5.9c0-0.6,0-0.8,0.1-1c0.2-0.3,0.5-0.5,1-0.5
				c0.5,0,0.8,0.2,1,0.5c0.1,0.2,0.1,0.5,0.1,1v5.9C131,44.2,131,44.4,130.9,44.7z"/>
			<path d="M138.1,35.9c0.9,0,1.6,0.3,2.2,0.8c0.7,0.7,0.9,1.6,0.9,2.6v4.3c0,0.6,0,0.8-0.1,1c-0.2,0.3-0.5,0.5-1,0.5
				c-0.5,0-0.8-0.2-1-0.5c-0.1-0.2-0.1-0.5-0.1-1v-4c0-1.2-0.8-1.6-1.5-1.6s-1.5,0.4-1.5,1.6v4c0,0.6,0,0.8-0.1,1
				c-0.2,0.3-0.5,0.5-1,0.5c-0.5,0-0.8-0.2-1-0.5c-0.1-0.2-0.1-0.5-0.1-1v-6.2c0-0.6,0-0.8,0.2-1c0.2-0.3,0.6-0.5,1-0.5
				c0.3,0,0.6,0.1,0.7,0.3c0.2,0.2,0.3,0.4,0.3,0.7C136.4,36.2,137.2,35.9,138.1,35.9z"/>
			<path d="M145.4,41.3c0,1.2,0.7,2,2,2c0.6,0,1.1-0.2,1.6-0.5c0.4-0.3,0.6-0.3,0.8-0.3c0.4,0,0.9,0.4,0.9,1c0,0.4-0.4,0.8-0.9,1.2
				c-0.6,0.4-1.5,0.6-2.5,0.6c-2.2,0-4.2-1-4.2-4.7c0-3,1.6-4.7,4-4.7c2.5,0,3.9,1.8,4,4.1c0,0.4,0,0.7-0.3,1
				c-0.3,0.3-0.7,0.3-1,0.3H145.4z M148.7,38.8c-0.2-0.5-0.8-0.9-1.5-0.9c-0.8,0-1.3,0.4-1.5,0.9c-0.1,0.3-0.2,0.6-0.2,1h3.5
				C148.9,39.4,148.8,39.1,148.7,38.8z"/>
		</g>
		<g>
			<path d="M135.4,26.8c-4.5,0-8.2-3.9-8.2-8.8c0-5,3.3-8.8,7.8-8.8c2.2,0,4.3,1,5.6,2.7c1.4,1.7,1.8,4,1.5,5.9
				c-0.1,0.8-0.5,1.6-1.6,1.6h-9.4c0.3,2.2,2.3,3.7,4.3,3.7c1.5,0,2.7-0.4,3.4-0.7c1.1-0.5,2-0.6,2.6,0.1c0.6,0.8,0.6,1.6-0.2,2.4
				C139.4,26.6,136.8,26.8,135.4,26.8z M130.9,16.6h7.9c-0.1-0.9-0.3-1.6-0.8-2.3c-0.7-1-1.8-1.5-3-1.5
				C132.9,12.8,131.5,14.5,130.9,16.6z"/>
			<path d="M62.6,9.3c-2.1,0-3.9,0.9-5.2,2.3V5.4c0-1.2-0.8-1.8-1.8-1.8c-1,0-1.8,0.6-1.8,1.8V25c0,1.4,0.7,1.8,1.7,1.8
				s1.7-0.6,1.7-1.8v-0.7c1.3,1.5,3.2,2.5,5.4,2.5c4.1,0,7.6-3.9,7.6-8.8C70.2,13.2,66.5,9.3,62.6,9.3z M62,23.2
				c-2.5,0-4.6-2.3-4.6-5.2s2.1-5.2,4.6-5.2c2.5,0,4.6,2.3,4.6,5.2S64.6,23.2,62,23.2z"/>
			<g>
				<path d="M80.2,26.8c-4.5,0-8.2-3.9-8.2-8.8c0-4.8,3.7-8.8,8.2-8.8s8.2,3.9,8.2,8.8C88.3,22.9,84.7,26.8,80.2,26.8z M80.2,12.8
					c-2.5,0-4.6,2.3-4.6,5.2s2.1,5.2,4.6,5.2s4.6-2.3,4.6-5.2S82.7,12.8,80.2,12.8z"/>
			</g>
			<g>
				<path d="M98.3,26.8c-4.5,0-8.2-3.9-8.2-8.8c0-4.8,3.7-8.8,8.2-8.8s8.2,3.9,8.2,8.8C106.5,22.9,102.8,26.8,98.3,26.8z M98.3,12.8
					c-2.5,0-4.6,2.3-4.6,5.2s2.1,5.2,4.6,5.2s4.6-2.3,4.6-5.2S100.8,12.8,98.3,12.8z"/>
			</g>
			<path d="M152,12.7c1.2,0,1.8-0.7,1.8-1.6c0-0.9-0.6-1.6-1.8-1.6h-2.8v-4c0-1.3-0.8-1.8-1.8-1.8s-1.8,0.6-1.8,1.8v4h-0.7
				c-1.2,0-1.8,0.7-1.8,1.6c0,0.9,0.6,1.6,1.8,1.6h0.7v7.2c0,4.8,1.8,6.9,5.7,6.9c1.2,0,1.8-0.8,1.8-1.6c0-1-0.8-1.5-1.7-1.6
				c-1.5-0.2-2.2-0.4-2.2-3.7v-7.2H152z"/>
			<path d="M122.8,3.7c-1,0-1.8,0.6-1.8,1.8v6.1c-1.3-1.4-3.1-2.3-5.2-2.3c-3.9,0-7.6,3.9-7.6,8.8c0,4.8,3.5,8.8,7.6,8.8
				c2.2,0,4.1-0.9,5.4-2.5V25c0,1.2,0.7,1.8,1.7,1.8s1.7-0.4,1.7-1.8V5.4C124.6,4.2,123.8,3.7,122.8,3.7z M116.4,23.2
				c-2.5,0-4.6-2.3-4.6-5.2s2.1-5.2,4.6-5.2c2.5,0,4.6,2.3,4.6,5.2S119,23.2,116.4,23.2z"/>
		</g>
	</g>
</g>
<g id="Слой_2">
</g>
<g id="Слой_3">
</g>
<g id="Слой_4">
</g>
<g id="Слой_5">
</g>
</svg>
