<?xml version="1.0" encoding="utf-8"?>
<!-- Generator: Adobe Illustrator 19.1.0, SVG Export Plug-In . SVG Version: 6.00 Build 0)  -->
<svg version="1.1" xmlns="http://www.w3.org/2000/svg" xmlns:xlink="http://www.w3.org/1999/xlink" x="0px" y="0px"
	 viewBox="0 0 88.6 61.2" style="enable-background:new 0 0 88.6 61.2;" xml:space="preserve">
<style type="text/css">
	.st0{fill:none;stroke:#FFFFFF;stroke-width:0.75;stroke-miterlimit:10;}
	.st1{fill:#FFE498;}
</style>
<g id="Слой_1">
</g>
<g id="Слой_2">
	<rect x="0.4" y="0.4" class="st0" width="87.9" height="43.4"/>
	<rect x="4.6" y="4.6" class="st0" width="79.4" height="34.9"/>
	<rect x="33.4" y="43.8" class="st0" width="21.9" height="10.8"/>
	<rect x="28.4" y="54.5" class="st0" width="31.8" height="6.3"/>
	<path class="st1" d="M64,22.2c-0.1,0-0.1,0-0.2,0l0,0c0,0,0,0,0,0c0,0,0,0,0,0C63.9,22.2,64,22.2,64,22.2z"/>
	<path class="st1" d="M71.2,12.4c-0.5,0-1,0.3-1,1v2.8c-0.7-0.4-1.6-0.7-2.6-0.7h-1.2c0.5,0.4,1,0.9,1.4,1.5
		c0.1,0.2,0.2,0.3,0.3,0.5c1.9,0.2,2.1,1.7,2.1,2.4c0,0.8-0.2,1.4-0.6,1.8c-0.3,0.3-0.8,0.5-1.5,0.6c-0.1,0.2-0.2,0.3-0.3,0.5
		c-0.4,0.6-0.8,1.1-1.4,1.5h1.2c2.9,0,4.6-1.6,4.6-4.4v-6.5C72.2,12.7,71.8,12.4,71.2,12.4z"/>
	<path class="st1" d="M67,17.4c-0.7-1.2-2-2-3.4-2c-0.8,0-1.5,0.2-2.1,0.6v-0.5v-2.3c0-0.7-0.4-1-1-1c-0.5,0-1,0.3-1,1v6.5
		c0,0,0,0,0,0c0,2.4,1.8,4.4,4.1,4.4c1.4,0,2.7-0.8,3.4-2c0.4-0.7,0.7-1.5,0.7-2.4C67.7,19,67.5,18.1,67,17.4z M64.6,22
		c-0.2,0.1-0.4,0.2-0.6,0.2c-0.1,0-0.1,0-0.2,0c0,0,0,0,0,0c-0.1,0-0.1,0-0.2,0c-0.4,0-0.7-0.1-1-0.3c-0.7-0.4-1.1-1.2-1.1-2.1
		c0,0,0,0,0,0v0c0-0.9,0.5-1.7,1.1-2.1c0.3-0.2,0.6-0.3,1-0.3s0.7,0.1,1,0.3c0.7,0.4,1.1,1.2,1.1,2.1C65.8,20.8,65.3,21.6,64.6,22z"
		/>
	<path class="st1" d="M65.8,29.2c-1.4,0-2.8-0.3-4.1-0.9c-0.5-0.2-0.7-0.8-0.4-1.2c0.2-0.5,0.7-0.7,1.2-0.4c2.1,1,4.5,1,6.7,0
		c0.5-0.2,1,0,1.2,0.5c0.2,0.5,0,1-0.5,1.2C68.6,28.9,67.2,29.2,65.8,29.2z"/>
	<rect x="11.1" y="10.1" class="st0" width="37.5" height="5.7"/>
	<rect x="11.1" y="18.9" class="st0" width="37.5" height="5.7"/>
	<rect x="11.1" y="27.8" class="st0" width="37.5" height="5.7"/>
	<rect x="41.1" y="43.8" class="st0" width="6.5" height="6.9"/>
</g>
</svg>
