<?xml version="1.0" encoding="utf-8"?>
<!-- Generator: Adobe Illustrator 19.1.0, SVG Export Plug-In . SVG Version: 6.00 Build 0)  -->
<svg version="1.1" xmlns="http://www.w3.org/2000/svg" xmlns:xlink="http://www.w3.org/1999/xlink" x="0px" y="0px"
	 viewBox="0 0 88.8 61.4" style="enable-background:new 0 0 88.8 61.4;" xml:space="preserve">
<style type="text/css">
	.st0{fill:none;stroke:#FFFFFF;stroke-width:0.95;stroke-miterlimit:10;}
	.st1{fill:#FFE498;}
</style>
<g id="Слой_1">
</g>
<g id="Слой_2">
	<rect x="0.5" y="0.5" class="st0" width="87.9" height="43.4"/>
	<rect x="4.7" y="4.7" class="st0" width="79.4" height="34.9"/>
	<rect x="33.5" y="43.9" class="st0" width="21.9" height="10.8"/>
	<rect x="28.5" y="54.6" class="st0" width="31.8" height="6.3"/>
	<path class="st1" d="M64.1,22.3c-0.1,0-0.1,0-0.2,0l0,0c0,0,0,0,0,0c0,0,0,0,0,0C64,22.3,64.1,22.3,64.1,22.3z"/>
	<path class="st1" d="M71.3,12.5c-0.5,0-1,0.3-1,1v2.8c-0.7-0.4-1.6-0.7-2.6-0.7h-1.2c0.5,0.4,1,0.9,1.4,1.5
		c0.1,0.2,0.2,0.3,0.3,0.5c1.9,0.2,2.1,1.7,2.1,2.4c0,0.8-0.2,1.4-0.6,1.8c-0.3,0.3-0.8,0.5-1.5,0.6c-0.1,0.2-0.2,0.3-0.3,0.5
		c-0.4,0.6-0.8,1.1-1.4,1.5h1.2c2.9,0,4.6-1.6,4.6-4.4v-6.5C72.3,12.8,71.9,12.5,71.3,12.5z"/>
	<path class="st1" d="M67.1,17.5c-0.7-1.2-2-2-3.4-2c-0.8,0-1.5,0.2-2.1,0.6v-0.5v-2.3c0-0.7-0.4-1-1-1c-0.5,0-1,0.3-1,1v6.5
		c0,0,0,0,0,0c0,2.4,1.8,4.4,4.1,4.4c1.4,0,2.7-0.8,3.4-2c0.4-0.7,0.7-1.5,0.7-2.4C67.8,19.1,67.6,18.2,67.1,17.5z M64.7,22.1
		c-0.2,0.1-0.4,0.2-0.6,0.2c-0.1,0-0.1,0-0.2,0c0,0,0,0,0,0c-0.1,0-0.1,0-0.2,0c-0.4,0-0.7-0.1-1-0.3c-0.7-0.4-1.1-1.2-1.1-2.1
		c0,0,0,0,0,0v0c0-0.9,0.5-1.7,1.1-2.1c0.3-0.2,0.6-0.3,1-0.3s0.7,0.1,1,0.3c0.7,0.4,1.1,1.2,1.1,2.1C65.9,20.9,65.4,21.7,64.7,22.1
		z"/>
	<path class="st1" d="M65.9,29.3c-1.4,0-2.8-0.3-4.1-0.9c-0.5-0.2-0.7-0.8-0.4-1.2c0.2-0.5,0.7-0.7,1.2-0.4c2.1,1,4.5,1,6.7,0
		c0.5-0.2,1,0,1.2,0.5c0.2,0.5,0,1-0.5,1.2C68.7,29,67.3,29.3,65.9,29.3z"/>
	<rect x="11.2" y="10.2" class="st0" width="37.5" height="5.7"/>
	<rect x="11.2" y="19" class="st0" width="37.5" height="5.7"/>
	<rect x="11.2" y="27.9" class="st0" width="37.5" height="5.7"/>
	<rect x="41.2" y="43.9" class="st0" width="6.5" height="6.9"/>
</g>
</svg>
