<?xml version="1.0" encoding="utf-8"?>
<!-- Generator: Adobe Illustrator 19.1.0, SVG Export Plug-In . SVG Version: 6.00 Build 0)  -->
<svg version="1.1" xmlns="http://www.w3.org/2000/svg" xmlns:xlink="http://www.w3.org/1999/xlink" x="0px" y="0px"
	 viewBox="0 0 525.3 366.4" style="enable-background:new 0 0 525.3 366.4;" xml:space="preserve">
<style type="text/css">
	.st0{clip-path:url(#SVGID_2_);fill:url(#SVGID_3_);}
	.st1{fill:url(#SVGID_4_);}
	.st2{fill:url(#SVGID_5_);}
	.st3{fill:#E3F0FF;}
	.st4{fill:url(#SVGID_6_);}
	.st5{fill:url(#SVGID_7_);}
	.st6{fill:#12172F;}
	.st7{fill:#2A102C;}
	.st8{fill:#FF3200;}
	.st9{fill:#2C4EDD;}
	.st10{fill:url(#SVGID_8_);}
	.st11{fill:url(#SVGID_9_);}
	.st12{fill:url(#SVGID_10_);}
	.st13{fill:#FFFFFF;}
	.st14{opacity:0.67;fill:url(#SVGID_11_);}
	.st15{opacity:0.67;fill:url(#SVGID_12_);}
	.st16{fill:none;stroke:#000000;stroke-width:2;stroke-miterlimit:10;}
	.st17{fill:url(#SVGID_13_);}
	.st18{fill:none;stroke:#FFFFFF;stroke-width:3;stroke-miterlimit:10;}
	.st19{opacity:0.25;fill:none;stroke:#CFDAE5;stroke-width:20;stroke-miterlimit:10;}
	.st20{fill:none;stroke:#EF2932;stroke-width:16.9397;stroke-linecap:round;stroke-linejoin:round;stroke-miterlimit:10;}
	.st21{fill:none;stroke:#0102F7;stroke-width:16.9397;stroke-linecap:round;stroke-miterlimit:10;}
	.st22{fill:#FFFFFF;stroke:#0102F7;stroke-width:16.9397;stroke-linecap:round;stroke-miterlimit:10;}
	.st23{fill:none;stroke:url(#SVGID_14_);stroke-width:16.9397;stroke-linecap:round;stroke-linejoin:round;stroke-miterlimit:10;}
	.st24{opacity:0.56;fill:#CFDAE5;}
	.st25{clip-path:url(#SVGID_16_);fill:#2C4EDD;}
	.st26{fill:#F2F2F2;stroke:#000000;stroke-miterlimit:10;}
	.st27{fill:none;stroke:#000000;stroke-miterlimit:10;}
	.st28{clip-path:url(#SVGID_18_);fill:#2C4EDD;}
	.st29{clip-path:url(#SVGID_20_);}
	.st30{fill:url(#SVGID_21_);}
	.st31{fill:url(#SVGID_22_);}
	.st32{fill:none;stroke:#FFFFFF;stroke-width:3;stroke-linecap:round;stroke-linejoin:round;stroke-miterlimit:10;}
	.st33{fill:none;stroke:#FFFFFF;stroke-width:0.25;stroke-linecap:round;stroke-linejoin:round;stroke-miterlimit:10;}
	.st34{fill:none;stroke:url(#SVGID_23_);stroke-miterlimit:10;}
	.st35{fill:none;stroke:url(#SVGID_24_);stroke-miterlimit:10;}
	.st36{fill:none;stroke:url(#SVGID_25_);stroke-miterlimit:10;}
	.st37{fill:none;stroke:url(#SVGID_26_);stroke-width:3.5847;stroke-miterlimit:10;}
	.st38{clip-path:url(#SVGID_28_);}
	.st39{fill:none;stroke:url(#SVGID_29_);stroke-miterlimit:10;}
	.st40{fill:none;stroke:#BABABA;stroke-width:0.8914;stroke-miterlimit:10;}
	.st41{fill:none;stroke:#2C4EDD;stroke-width:0.8914;stroke-miterlimit:10;}
	.st42{opacity:0.3;fill:none;stroke:#000000;stroke-width:0.5;stroke-miterlimit:10;}
</style>
<g id="Слой_1">
	<path class="st24" d="M367.6,3.9C308.6-8.3,246.5,7.9,204,52.8c-23.2,24.5-37.7,54.4-43.4,86.2l-15.2-14.4L73.2,56
		c-21.8-20.6-44-15.5-60.2,1.6s-19,40.6,1.6,60.2l204.2,193.7c0.2,0.2,0.3,0.3,0.5,0.5c75.8,71.9,192.3,72.6,259.6,1.6
		c42.5-44.8,55.5-107.7,40.2-166c-8.9-34.1-27.4-66.6-55.4-93.1C435.7,27.8,402.3,11,367.6,3.9z M437.9,216
		c-2,9.2-5.5,17.7-10.4,25.7c-1.3,2-2.7,4.1-4.2,6.1c-0.1,0.1-0.1,0.3-0.3,0.3c-1.8,2.5-3.8,4.8-5.8,7
		c-10.5,11.1-23.6,18.7-37.9,22.7c-33,9.5-72.2,0.2-101.3-27.4c0,0-0.1-0.1-0.1-0.1l-0.2-0.2c-29-27.6-40.4-66.3-32.6-99.6
		c3.3-14.5,10.2-27.9,20.7-39s23.6-18.7,37.9-22.7c32.9-9.6,72.3-0.2,101.5,27.6C434.3,143.8,445.7,182.6,437.9,216z"/>
</g>
<g id="Слой_2">
</g>
</svg>
