<?xml version="1.0" encoding="utf-8"?>
<!-- Generator: Adobe Illustrator 19.1.0, SVG Export Plug-In . SVG Version: 6.00 Build 0)  -->
<svg version="1.1" xmlns="http://www.w3.org/2000/svg" xmlns:xlink="http://www.w3.org/1999/xlink" x="0px" y="0px"
	 viewBox="0 0 271.8 393.7" style="enable-background:new 0 0 271.8 393.7;" xml:space="preserve">
<style type="text/css">
	.st0{clip-path:url(#SVGID_2_);fill:url(#SVGID_3_);}
	.st1{fill:url(#SVGID_4_);}
	.st2{fill:url(#SVGID_5_);}
	.st3{fill:#E3F0FF;}
	.st4{fill:url(#SVGID_6_);}
	.st5{fill:url(#SVGID_7_);}
	.st6{fill:#12172F;}
	.st7{fill:#2A102C;}
	.st8{fill:#FF3200;}
	.st9{fill:#2C4EDD;}
	.st10{fill:url(#SVGID_8_);}
	.st11{fill:url(#SVGID_9_);}
	.st12{fill:url(#SVGID_10_);}
	.st13{fill:#FFFFFF;}
	.st14{opacity:0.67;fill:url(#SVGID_11_);}
	.st15{opacity:0.67;fill:url(#SVGID_12_);}
	.st16{fill:none;stroke:#000000;stroke-width:2;stroke-miterlimit:10;}
	.st17{fill:url(#SVGID_13_);}
	.st18{fill:none;stroke:#FFFFFF;stroke-width:3;stroke-miterlimit:10;}
	.st19{opacity:0.25;fill:none;stroke:#CFDAE5;stroke-width:20;stroke-miterlimit:10;}
	.st20{fill:none;stroke:#EF2932;stroke-width:16.9397;stroke-linecap:round;stroke-linejoin:round;stroke-miterlimit:10;}
	.st21{fill:none;stroke:#0102F7;stroke-width:16.9397;stroke-linecap:round;stroke-miterlimit:10;}
	.st22{fill:#FFFFFF;stroke:#0102F7;stroke-width:16.9397;stroke-linecap:round;stroke-miterlimit:10;}
	.st23{fill:none;stroke:url(#SVGID_14_);stroke-width:16.9397;stroke-linecap:round;stroke-linejoin:round;stroke-miterlimit:10;}
	.st24{opacity:0.56;fill:#CFDAE5;}
	.st25{clip-path:url(#SVGID_16_);fill:#2C4EDD;}
	.st26{fill:#F2F2F2;stroke:#000000;stroke-miterlimit:10;}
	.st27{fill:none;stroke:#000000;stroke-miterlimit:10;}
	.st28{clip-path:url(#SVGID_18_);fill:#2C4EDD;}
	.st29{clip-path:url(#SVGID_20_);}
	.st30{fill:url(#SVGID_21_);}
	.st31{fill:url(#SVGID_22_);}
	.st32{fill:none;stroke:#FFFFFF;stroke-width:3;stroke-linecap:round;stroke-linejoin:round;stroke-miterlimit:10;}
	.st33{fill:none;stroke:#FFFFFF;stroke-width:0.25;stroke-linecap:round;stroke-linejoin:round;stroke-miterlimit:10;}
	.st34{fill:none;stroke:url(#SVGID_23_);stroke-miterlimit:10;}
	.st35{fill:none;stroke:url(#SVGID_24_);stroke-miterlimit:10;}
	.st36{fill:none;stroke:url(#SVGID_25_);stroke-miterlimit:10;}
	.st37{fill:none;stroke:url(#SVGID_26_);stroke-width:3.5847;stroke-miterlimit:10;}
	.st38{clip-path:url(#SVGID_28_);}
	.st39{fill:none;stroke:url(#SVGID_29_);stroke-miterlimit:10;}
	.st40{fill:none;stroke:#BABABA;stroke-width:0.8914;stroke-miterlimit:10;}
	.st41{fill:none;stroke:#2C4EDD;stroke-width:0.8914;stroke-miterlimit:10;}
	.st42{opacity:0.3;fill:none;stroke:#000000;stroke-width:0.5;stroke-miterlimit:10;}
</style>
<g id="Слой_1">
	<path class="st9" d="M249.2,168.7c-24.3-39.2-66-65.2-113.3-65.2c-25.8,0-50.1,7.7-70.7,21.3v-16V32.6C65.2,9.6,50.6,0,32.6,0
		S0,10.9,0,32.6v215.5c0,0.2,0,0.4,0,0.6c0,80,61,145,135.9,145c47.3,0,89.1-25.9,113.4-65.2c14.3-22.9,22.5-50.3,22.5-79.9
		S263.6,191.7,249.2,168.7z M168.5,319.5c-6.2,3.7-12.7,6.3-19.8,7.7c-1.8,0.4-3.7,0.7-5.6,0.9c-0.1,0-0.2,0.1-0.3,0
		c-2.3,0.3-4.6,0.4-7,0.4c-11.7,0-22.8-3.3-32.6-9.1c-22.6-13.3-38.1-40-38.2-70.7c0,0,0-0.1,0-0.1v-0.3
		c0.1-30.7,15.5-57.3,38.1-70.6c9.8-5.8,20.9-9.1,32.6-9.1s22.8,3.3,32.6,9.1c22.7,13.3,38.2,40,38.2,70.9
		C206.7,279.4,191.2,306.2,168.5,319.5z"/>
</g>
<g id="Слой_2">
</g>
</svg>
