<?xml version="1.0" encoding="utf-8"?>
<!-- Generator: Adobe Illustrator 19.1.0, SVG Export Plug-In . SVG Version: 6.00 Build 0)  -->
<svg version="1.1" id="Слой_1" xmlns="http://www.w3.org/2000/svg" xmlns:xlink="http://www.w3.org/1999/xlink" x="0px" y="0px"
	 viewBox="0 0 36.4 25.5" style="enable-background:new 0 0 36.4 25.5;" xml:space="preserve">
<style type="text/css">
	.st0{fill:#FFFFFF;}
	.st1{fill:#D6D6D6;}
	.st2{fill:#C2C2C2;}
	.st3{fill:none;stroke:#FFFFFF;stroke-width:2.3987;stroke-linecap:round;stroke-linejoin:round;}
</style>
<path class="st0" d="M35.6,4c-0.4-1.6-1.6-2.8-3.2-3.2C29.6,0,18.2,0,18.2,0S6.8,0,4,0.7C2.4,1.2,1.2,2.4,0.7,4C0,6.8,0,12.7,0,12.7
	s0,5.9,0.7,8.8c0.4,1.6,1.6,2.8,3.2,3.2c2.9,0.8,14.2,0.8,14.2,0.8s11.4,0,14.2-0.7c1.6-0.4,2.8-1.6,3.2-3.2
	c0.7-2.8,0.7-8.8,0.7-8.8S36.4,6.8,35.6,4z M14.6,18.2V7.3l9.5,5.5L14.6,18.2z"/>
</svg>
