<?xml version="1.0" encoding="utf-8"?>
<!-- Generator: Adobe Illustrator 19.1.0, SVG Export Plug-In . SVG Version: 6.00 Build 0)  -->
<svg version="1.1" id="Слой_1" xmlns="http://www.w3.org/2000/svg" xmlns:xlink="http://www.w3.org/1999/xlink" x="0px" y="0px"
	 viewBox="0 0 27.9 27.9" style="enable-background:new 0 0 27.9 27.9;" xml:space="preserve">
<style type="text/css">
	.st0{fill:#FFFFFF;}
	.st1{fill:#D6D6D6;}
	.st2{fill:#C2C2C2;}
	.st3{fill:none;stroke:#FFFFFF;stroke-width:2.3987;stroke-linecap:round;stroke-linejoin:round;}
</style>
<path class="st0" d="M26.3,0H1.5C0.7,0,0,0.7,0,1.5v24.8c0,0.8,0.7,1.5,1.5,1.5h13.3V17.1h-3.6v-4.2h3.6V9.8c0-3.6,2.2-5.6,5.4-5.6
	c1.5,0,2.9,0.1,3.2,0.2v3.8l-2.2,0c-1.7,0-2.1,0.8-2.1,2v2.7h4.2l-0.5,4.2h-3.6v10.8h7.1c0.8,0,1.5-0.7,1.5-1.5V1.5
	C27.9,0.7,27.2,0,26.3,0z"/>
</svg>
