<?xml version="1.0" encoding="utf-8"?>
<!-- Generator: Adobe Illustrator 19.1.0, SVG Export Plug-In . SVG Version: 6.00 Build 0)  -->
<svg version="1.1" id="Слой_1" xmlns="http://www.w3.org/2000/svg" xmlns:xlink="http://www.w3.org/1999/xlink" x="0px" y="0px"
	 viewBox="0 0 33.2 27.9" style="enable-background:new 0 0 33.2 27.9;" xml:space="preserve">
<style type="text/css">
	.st0{fill:#FFFFFF;}
	.st1{fill:#D6D6D6;}
	.st2{fill:#C2C2C2;}
	.st3{fill:none;stroke:#FFFFFF;stroke-width:2.3987;stroke-linecap:round;stroke-linejoin:round;}
</style>
<g>
	<path class="st1" d="M12.5,26.2c-1,0-0.8-0.4-1.2-1.3l-2.9-9.6L30.8,2"/>
	<path class="st2" d="M12.5,26.2c0.8,0,1.1-0.3,1.5-0.8l4.1-4L13,18.4"/>
	<path class="st0" d="M13,18.4l12.3,9.1c1.4,0.8,2.4,0.4,2.8-1.3l5-23.6c0.5-2.1-0.8-3-2.1-2.4L1.6,11.5c-2,0.8-2,1.9-0.4,2.4
		l7.5,2.4l17.5-11c0.8-0.5,1.6-0.2,1,0.3"/>
</g>
</svg>
