<?xml version="1.0" encoding="utf-8"?>
<!-- Generator: Adobe Illustrator 19.1.0, SVG Export Plug-In . SVG Version: 6.00 Build 0)  -->
<svg version="1.1" id="Слой_1" xmlns="http://www.w3.org/2000/svg" xmlns:xlink="http://www.w3.org/1999/xlink" x="0px" y="0px"
	 viewBox="0 0 28.5 28.5" style="enable-background:new 0 0 28.5 28.5;" xml:space="preserve">
<style type="text/css">
	.st0{fill:#FFFFFF;}
	.st1{fill:#D6D6D6;}
	.st2{fill:#C2C2C2;}
	.st3{fill:none;stroke:#FFFFFF;stroke-width:2.3987;stroke-linecap:round;stroke-linejoin:round;}
</style>
<g>
	<path class="st0" d="M28.5,14.3c0,2.9,0,4.8-0.1,5.9c-0.1,2.6-0.9,4.6-2.3,6c-1.5,1.4-3.4,2.2-6,2.3c-1.1,0.1-3.1,0.1-5.9,0.1
		c-2.9,0-4.8,0-5.9-0.1c-2.6-0.1-4.6-0.9-6-2.3c-1.4-1.4-2.2-3.4-2.3-6C0,19.1,0,17.1,0,14.3s0-4.8,0.1-5.9c0.1-2.6,0.9-4.6,2.3-6
		c1.4-1.4,3.4-2.2,6-2.3C9.5,0,11.5,0,14.3,0c2.9,0,4.8,0,5.9,0.1c2.6,0.1,4.6,0.9,6,2.3s2.2,3.4,2.3,6
		C28.5,9.5,28.5,11.4,28.5,14.3z M15.7,2.5c-0.9,0-1.3,0-1.4,0c-0.1,0-0.5,0-1.4,0s-1.5,0-1.9,0c-0.5,0-1.1,0-1.8,0.1
		c-0.7,0-1.4,0.1-1.9,0.2C6.7,2.9,6.2,3,5.9,3.1C5.3,3.4,4.7,3.7,4.2,4.2c-0.5,0.5-0.8,1-1.1,1.7C3,6.2,2.9,6.7,2.8,7.2
		S2.7,8.3,2.6,9.1c0,0.7-0.1,1.3-0.1,1.8s0,1.1,0,1.9c0,0.9,0,1.3,0,1.4c0,0.1,0,0.5,0,1.4s0,1.5,0,1.9c0,0.5,0,1.1,0.1,1.8
		c0,0.7,0.1,1.4,0.2,1.9c0.1,0.5,0.2,1,0.3,1.3c0.3,0.6,0.6,1.1,1.1,1.7c0.5,0.5,1,0.8,1.7,1.1c0.3,0.1,0.8,0.3,1.3,0.3
		c0.5,0.1,1.1,0.1,1.9,0.2C9.9,26,10.5,26,10.9,26s1.1,0,1.9,0c0.9,0,1.3,0,1.4,0c0.1,0,0.5,0,1.4,0c0.9,0,1.5,0,1.9,0
		c0.5,0,1.1,0,1.8-0.1c0.7,0,1.4-0.1,1.9-0.2c0.5-0.1,1-0.2,1.3-0.3c0.6-0.3,1.1-0.6,1.7-1.1c0.5-0.5,0.8-1,1.1-1.7
		c0.1-0.3,0.3-0.8,0.3-1.3c0.1-0.5,0.1-1.1,0.2-1.9c0-0.7,0.1-1.3,0.1-1.8s0-1.1,0-1.9c0-0.9,0-1.3,0-1.4c0-0.1,0-0.5,0-1.4
		c0-0.9,0-1.5,0-1.9c0-0.5,0-1.1-0.1-1.8c0-0.7-0.1-1.4-0.2-1.9c-0.1-0.5-0.2-1-0.3-1.3c-0.3-0.6-0.6-1.1-1.1-1.7
		c-0.5-0.5-1-0.8-1.7-1.1c-0.3-0.1-0.8-0.3-1.3-0.3c-0.5-0.1-1.1-0.1-1.9-0.2c-0.7,0-1.3-0.1-1.8-0.1C17.2,2.5,16.5,2.5,15.7,2.5z
		 M19.4,9.1c1.4,1.4,2.1,3.1,2.1,5.2s-0.7,3.7-2.1,5.2c-1.4,1.4-3.1,2.1-5.2,2.1s-3.7-0.7-5.2-2.1c-1.4-1.4-2.1-3.1-2.1-5.2
		S7.6,10.5,9,9.1c1.4-1.4,3.1-2.1,5.2-2.1S18,7.6,19.4,9.1z M17.6,17.6c0.9-0.9,1.4-2.1,1.4-3.3s-0.5-2.5-1.4-3.4s-2.1-1.4-3.4-1.4
		s-2.5,0.5-3.4,1.4s-1.4,2.1-1.4,3.4s0.5,2.5,1.4,3.3c0.9,0.9,2.1,1.4,3.4,1.4C15.5,19,16.7,18.5,17.6,17.6z M23.1,5.4
		c0.3,0.3,0.5,0.7,0.5,1.2s-0.2,0.9-0.5,1.2c-0.3,0.3-0.7,0.5-1.2,0.5S21,8.1,20.7,7.8c-0.3-0.3-0.5-0.7-0.5-1.2s0.2-0.9,0.5-1.2
		c0.3-0.3,0.7-0.5,1.2-0.5S22.7,5.1,23.1,5.4z"/>
</g>
</svg>
