<?xml version="1.0" encoding="utf-8"?>
<!-- Generator: Adobe Illustrator 19.1.0, SVG Export Plug-In . SVG Version: 6.00 Build 0)  -->
<svg version="1.1" id="Слой_1" xmlns="http://www.w3.org/2000/svg" xmlns:xlink="http://www.w3.org/1999/xlink" x="0px" y="0px"
	 viewBox="0 0 145.6 358.2" style="enable-background:new 0 0 145.6 358.2;" xml:space="preserve">
<style type="text/css">
	.st0{fill:#F2D6AD;}
	.st1{fill:#DADADA;}
	.st2{fill:url(#SVGID_1_);}
	.st3{fill:#DAB686;}
	.st4{fill:#D8A364;}
	.st5{fill:none;stroke:#CBAE7F;stroke-width:4.0238;stroke-miterlimit:10;}
	.st6{fill:none;stroke:#CBAE7F;stroke-width:1.5452;stroke-miterlimit:10;}
	.st7{fill:#2C4EDD;}
	.st8{fill:url(#SVGID_2_);}
	.st9{fill:url(#SVGID_3_);}
	.st10{fill:url(#SVGID_4_);}
	.st11{fill:none;stroke:url(#SVGID_5_);stroke-width:5.2407;stroke-miterlimit:10;}
	.st12{fill:none;stroke:url(#SVGID_6_);stroke-width:5.2407;stroke-miterlimit:10;}
	.st13{fill:none;stroke:#CBAE7F;stroke-width:4.0198;stroke-miterlimit:10;}
	.st14{fill:#E4E4E4;}
	.st15{fill:url(#SVGID_7_);}
</style>
<g>
	<g>
		<path class="st0" d="M110.6,313.3c0,0-1.6,20.4,2.4,22.5c4.1,2-0.4,5.4-0.8,5.4c-0.4,0-6.3-1.2-6.7-1.2c-0.4,0-3-3.2-3-3.2
			s0.4-12.7-2.7-20.7c-3.2-8.1,3.7-6.3,4.1-6.1c0.4,0.3,6.9,2.3,6.9,2.3L110.6,313.3z"/>
		<path class="st0" d="M42.9,316.5c0,0-0.1,21.7-2.4,24.6c-2.3,3,3.5,4.7,3.5,4.7l7.8-6.7c0,0-0.4-5.9,1.3-12
			c1.8-6.1,4.3-11.7,4.2-13.6c-0.1-1.9-3.6-0.9-4.8-1.3c-1.2-0.4-6.2,0.8-7.1,0.9C44.4,313.3,42.9,316.5,42.9,316.5z"/>
		<path class="st1" d="M123.8,167c0,0-5.8,125.2-7.9,141.9c0,0-13.5,3.6-24-4.3c0,0-0.6-8.4-13.5-19.7c0,0-11.4,9.8-14.9,27.2
			c0,0-11.8,8.2-26.3,0.2L21.8,171.1L123.8,167z"/>
		<path d="M37.4,336.9c-0.1-0.3,1.7-0.4,2.9,1.6c1.1,2,1.5,4.9,4.9,4.8c3.4-0.1,4.2-3,6-3.9c1.8-0.9,2-0.3,1.9,1.1
			c-0.1,1.4-0.8,1.8-0.7,4.4c0.1,2.7,0.3,4-0.7,5c-1.1,1-1.6,0.5-3.8,1.5c-2.2,0.9-6.8,3.1-9.8,5.5c-3.1,2.4-11.5,2-13.1-3
			c-1.6-5,2.2-7.5,5.8-8.3C34.3,344.8,38.1,340.3,37.4,336.9z"/>
		<path d="M115.5,332.7c0.1-0.3-1.8-0.4-2.9,1.6c-1.1,2-1.5,4.9-4.9,4.8c-3.4-0.1-4.2-3-6-3.9c-1.8-0.9-2-0.3-1.9,1.1
			c0.1,1.4,0.8,1.7,0.7,4.4c-0.1,2.7-0.3,4,0.7,5c1.1,1,1.6,0.5,3.8,1.5c2.2,0.9,6.8,3.1,9.8,5.5c3.1,2.4,11.5,2,13.1-3
			c1.6-5-2.2-7.5-5.8-8.3C118.6,340.7,114.8,336.1,115.5,332.7z"/>
		<path d="M31,261.5c0,0,9.2,13.5,44.4,13.1c0,0,33,1,44.4-15.1L117,336c0,0-10.1,6.4-18,4.4c0,0-8.3-41.8-20.5-52.5
			c0,0-22.2,37.7-25.3,54.6c0,0-3,8.1-17.5-0.2L31,261.5z"/>
		<g>
			<linearGradient id="SVGID_1_" gradientUnits="userSpaceOnUse" x1="8.9324" y1="116.3574" x2="127.5685" y2="116.3574">
				<stop  offset="0" style="stop-color:#DFC39C"/>
				<stop  offset="1" style="stop-color:#F2D6AD"/>
			</linearGradient>
			<path class="st2" d="M17.9,110.7l5.3,55.7l39.6,37l14.8-12.3l14.7,10.5l29.3-35.2c3.2-57.3,5.9-109.6,5.9-109.6s-2-4.5-4.1-9.1
				c-1.9-4-3.8-7.9-4.9-9.7c-2.1-3.2-6.8-7.1-24.2-8.4c-19.4-1.5-35.4,1.6-46.7,4.7c-14.3,3.9-21.4,5.8-26.4,11.3
				c-12.1,13.3-7.2,34.5-6,39.1c0.4,2.6,0.7,5.3,1.1,7.9c-0.9-0.9-3.9-3.4-6.3,0.7C7.2,98.1,9.9,110.2,17.9,110.7z"/>
			<path class="st3" d="M125.7,90.5c0,0,2.1-5.7,6.3-2.5c4.1,3.3-0.6,16.2-7,16.4L125.7,90.5z"/>
			<path class="st4" d="M88,150.6c0,0-1.4-1.4-4.4-1.4c-5,0.1-13.3,0.4-15.1-0.1c-2.9-0.7-5.5-3.2-5.5-3.2s1.3,4.2,6.3,4.5
				C74.3,150.8,88,150.6,88,150.6z"/>
			<path class="st5" d="M63,120.5c1.5,0.6,4.1,1.4,7.5,1.3c7.5-0.1,11.9-4.4,12.6-5"/>
			<path class="st6" d="M79.7,99.7c0.1,2.8,0.3,5.8,0.7,8.9c0.2,1.8,0.4,3.5,0.7,5.2"/>
			<path class="st7" d="M88.8,201.8l-4.5,12.8c0,0-7.2,1.6-11.5,0l-5-12.3l9.9-11.3L88.8,201.8z"/>
			<path class="st7" d="M84.4,214.3l8.9,46.4l-13.5,14.1l-16.3-13.3l9.1-47.2C72.7,214.3,77.1,215.9,84.4,214.3z"/>
			<linearGradient id="SVGID_2_" gradientUnits="userSpaceOnUse" x1="34.5346" y1="139.4581" x2="114.1538" y2="139.4581">
				<stop  offset="0" style="stop-color:#997056"/>
				<stop  offset="1" style="stop-color:#814928"/>
			</linearGradient>
			<path class="st8" d="M63.3,127.8c0,0-5.7,1.5-10.1,7c-4.4,5.5-14.4,2.8-18.7-2.1c0,0,2.2,17,20.4,18.3
				c18.2,1.3,21.9-9.9,21.9-9.9s3.2,10,19,8.8c14.8-1.2,18.3-18,18.3-18s-4.4,7.1-12.6,5.8c-8.2-1.3-7.6-8.3-15-8.9
				C86.6,128.7,78.9,131.1,63.3,127.8z"/>
			<g>
				<linearGradient id="SVGID_3_" gradientUnits="userSpaceOnUse" x1="43.028" y1="18.318" x2="103.0002" y2="18.318">
					<stop  offset="0" style="stop-color:#997056"/>
					<stop  offset="1" style="stop-color:#814928"/>
				</linearGradient>
				<path class="st9" d="M103,23.3c0,0-20.1-26.2-60,3.8C43,27.1,81.6-9.8,103,23.3z"/>
				<g>
					<linearGradient id="SVGID_4_" gradientUnits="userSpaceOnUse" x1="4.7014" y1="46.2688" x2="135.1134" y2="46.2688">
						<stop  offset="0" style="stop-color:#997056"/>
						<stop  offset="1" style="stop-color:#814928"/>
					</linearGradient>
					<path class="st10" d="M6.7,36.6c0.6-2,1.7-5.5,3.5-9.9c-1.5-6.2-3.4-12.2-3-18.9C10.1,9,15.2,8,18.3,8c4.1,0,8.3,0.3,12.4,0.3
						c6,0,11.8-1.7,17.7-3.1c12.8-3.1,27.4-7.5,40.6-3.9c9,2.5,10.7,10.1,15.6,17.1c0,0,0,0,0,0c3.8-3.7,12.9-6.7,17.6-3.5
						c7.8,5.3,10.2,18.2,12.2,27.2c2,9.3-0.5,16.8-2.7,25.8c-1.1,4.4-1.7,9.2-3,13.7c0,0,0,0,0,0c0,0,0,0.1,0,0.1
						c-0.4,1.2-0.8,2.4-1.3,3.6c-0.5,1.3-1,2.5-1.5,3.8c0,0,0.2-3,0.1-7.4c-0.9-3.6-2.3-7.2-3.6-10.6c-1.3-3.5-1.9-7.1-3.2-10.5
						c-1.7-4.1-3.9-8-5.1-12.4c-1.1-3.8-2.9-7.3-4.1-11.1c-1.1,2.9-10.1,4.9-12.8,6c-8.6,3.3-18.6,3.3-27.7,2.9c-0.2,0-0.3,0-0.5,0
						c-2.5,1.9-5.1,4-7.9,6.6c0,0-14,16-42.4,16.5c0,0,1.1,17.4-2.7,23.4C16,92.5-0.9,63.9,6.7,36.6z"/>
				</g>
			</g>
			<linearGradient id="SVGID_5_" gradientUnits="userSpaceOnUse" x1="93.4927" y1="77.701" x2="116.8176" y2="77.701">
				<stop  offset="0" style="stop-color:#997056"/>
				<stop  offset="1" style="stop-color:#814928"/>
			</linearGradient>
			<path class="st11" d="M94.6,79.1c2-1,5.1-2.2,9-2.4c5.5-0.3,9.8,1.3,12,2.4"/>
			<linearGradient id="SVGID_6_" gradientUnits="userSpaceOnUse" x1="39.9965" y1="77.701" x2="63.3214" y2="77.701">
				<stop  offset="0" style="stop-color:#997056"/>
				<stop  offset="1" style="stop-color:#814928"/>
			</linearGradient>
			<path class="st12" d="M62.2,79.1c-2-1-5.1-2.2-9-2.4c-5.5-0.3-9.8,1.3-12,2.4"/>
			<path class="st13" d="M111.8,99.8c-1.2-0.6-3.2-1.4-5.7-1.5c-3.4-0.2-6.1,0.8-7.5,1.5"/>
			<path class="st13" d="M58.3,99.8c-1.2-0.6-3.2-1.4-5.7-1.5c-3.4-0.2-6.1,0.8-7.5,1.5"/>
		</g>
		<path class="st14" d="M21.8,171.1c0,0,20.5,29.7,44.4,36.1l11.6-15.1l13.1,14.2c0,0,24.7-21.4,32.9-39.3v-7.4
			c0,0-18.2,23.5-45.7,30c0,0-34.1-4.6-57.4-31.9L21.8,171.1z"/>
	</g>
	<path class="st0" d="M116,271.6c0,0-5.4,2.5-7.6,4.5c0,0-2.5,10,2.3,16.2c0,0,6.3-2.8,9.5-9.2c0,0-2.4-3.9-3.1-5.3
		C116,275.1,116,271.6,116,271.6z"/>
	<linearGradient id="SVGID_7_" gradientUnits="userSpaceOnUse" x1="18.9248" y1="151.7011" x2="124.7757" y2="151.7011">
		<stop  offset="0" style="stop-color:#997056"/>
		<stop  offset="1" style="stop-color:#814928"/>
	</linearGradient>
	<path class="st15" d="M40.8,152.9c0,0,8.4,4.4,14,4.9c5.6,0.6,4.4,4.6,8.1,7.6c2.2,1.8,6.4,2.6,8.1,2.3c1.8-0.3,3.6-1.3,4.5-3.8
		c1.5-4.2-2.2-7-2.2-7l0,0l0,0l-3.2-2.4c7.8,1.4,15.4-0.2,15.4-0.2l-2.6,2.6c0,0,0,0,0,0c-1.3,1.3-2.2,3-1.7,6.2
		c0.8,4.8,7.5,2.8,7.8,2.8c4.4-1.9,8.3-4.6,9.9-7.6c2.7-5.1,1.3-4.5,7.1-7.2c5.8-2.6,16.2-5.7,18.8-40.1l-1.9,35.6
		c0,0-2.4,25.7-17.8,35.1c0,0,5.5-7.9,6.5-14.8c0,0-10.1,18.9-22.7,25.3c0,0,1-1.1,1.9-4.5c0,0-7.1,5.7-16.2,4.5l-4.5-1.3
		c0,0-9.2,0.8-14.5-3.2c0,0-2.9-2.5-4.1-6.2c0,0,1.2,5.5,3.6,7.8c0,0-9.4-6.4-11.8-14c0,0,1.7,7.2,4.1,9.8c0,0-19.2-14.6-26.3-40.4
		l-2.2-22.8C18.9,121.9,24.6,144.9,40.8,152.9z"/>
	<path class="st1" d="M123.8,167c0,0,23.7,27.6,21.7,63.8c-2,37.2-27,55-27,55s-1.8-2.1-3.6-5.6c-1.5-3-1.2-7.2-1.2-7.2
		s15-11.1,15.5-38.3c0.5-24.1-12.7-33.4-12.7-33.4L123.8,167z"/>
	<path class="st0" d="M29.6,271.6c0,0,5.4,2.5,7.6,4.5c0,0,2.5,10-2.3,16.2c0,0-6.3-2.8-9.5-9.2c0,0,2.4-3.9,3.1-5.3
		C29.7,275.1,29.6,271.6,29.6,271.6z"/>
	<path class="st1" d="M21.8,167c0,0-23.7,27.6-21.7,63.8c2,37.2,27,55,27,55s1.8-2.1,3.6-5.6c1.5-3,1.2-7.2,1.2-7.2
		s-15-11.1-15.5-38.3c-0.5-24.1,12.7-33.4,12.7-33.4L21.8,167z"/>
</g>
</svg>
