<?xml version="1.0" encoding="utf-8"?>
<!-- Generator: Adobe Illustrator 19.1.0, SVG Export Plug-In . SVG Version: 6.00 Build 0)  -->
<svg version="1.1" id="Слой_1" xmlns="http://www.w3.org/2000/svg" xmlns:xlink="http://www.w3.org/1999/xlink" x="0px" y="0px"
	 viewBox="0 0 174.8 174.8" style="enable-background:new 0 0 174.8 174.8;" xml:space="preserve">
<style type="text/css">
	.st0{fill:#FFFFFF;}
	.st1{fill:none;stroke:#000000;stroke-width:1.9792;stroke-linecap:round;stroke-linejoin:round;stroke-miterlimit:10;}
	.st2{fill:#FFFFFF;stroke:#000000;stroke-width:1.9792;stroke-linecap:round;stroke-linejoin:round;stroke-miterlimit:10;}
	.st3{stroke:#000000;stroke-width:1.9792;stroke-linecap:round;stroke-linejoin:round;stroke-miterlimit:10;}
	.st4{fill:none;}
	.st5{fill:none;stroke:#FFFFFF;stroke-width:5.7102;stroke-linecap:round;stroke-linejoin:round;stroke-miterlimit:10;}
	.st6{fill:none;stroke:#000000;stroke-width:1.8883;stroke-linecap:round;stroke-linejoin:round;stroke-miterlimit:10;}
	.st7{fill:none;stroke:#FFFFFF;stroke-width:1.9792;stroke-linecap:round;stroke-linejoin:round;stroke-miterlimit:10;}
	.st8{fill:none;stroke:#000000;stroke-width:4.2412;stroke-miterlimit:10;}
</style>
<g>
	<circle cx="87.4" cy="87.4" r="80.3"/>
	<path class="st0" d="M50.8,43.3c5.7,2.7,11.6,4.6,17.7,6c18.2,3.9,37.7,1.8,55.5-6c4.9,34.3-2.9,71.6-36.6,84.3
		C53.8,114.9,46,77.6,50.8,43.3z"/>
	<g>
		<path class="st1" d="M107.5,73.4c0-3.1-2.3-5.7-5-5.7"/>
		<path class="st1" d="M95.1,79.9c-1.4-1.8-2.2-4-2.2-6.5c0-5.6,4.3-10.2,9.5-10.2c5.3,0,9.5,4.6,9.5,10.2c0,5.6-4.3,10.2-9.5,10.2
			c-0.8,0-1.6-0.1-2.4-0.3"/>
	</g>
	<path class="st1" d="M119.7,50.4c1.6,19,0.7,58.1-32.3,71.8c-32.9-13.7-34-52.6-32.3-71.7"/>
	<g>
		<path class="st2" d="M137.6,119.4c-10.6,3.7-21.5,6.2-32.5,7.6v17.9c11-1.4,21.9-3.9,32.5-7.6l-5.7-7.5L137.6,119.4z"/>
		<polygon class="st3" points="114.1,132.1 105.2,140.8 105.2,126.9 		"/>
		<path class="st2" d="M37.1,119.7c10.6,3.7,21.5,6.2,32.5,7.6v17.9c-11-1.4-21.9-3.9-32.5-7.6l5.7-7.5L37.1,119.7z"/>
		<polygon class="st3" points="60.6,132.4 69.6,141.1 69.6,127.3 		"/>
		<path class="st2" d="M60.6,150.3c17.5,3.1,35.7,2.9,53.5-0.3v-17.9c-17.8,3.3-36,3.4-53.5,0.3V150.3z"/>
	</g>
	<path id="SVGID_x5F_1_x5F_" class="st4" d="M60.6,145.6c17.5,3.1,35.7,2.9,53.5-0.3"/>
	<text>	<textPath  xlink:href="#SVGID_x5F_1_x5F_" startOffset="13.135%">
<tspan  style="font-family:'Ubuntu-Medium'; font-size:12.9841px;">2017</tspan>	</textPath>
</text>
	<g>
		<path class="st5" d="M91.3,95.4c4.1,0,4.1,3.4,8.3,3.4c4.1,0,4.1-3.4,8.3-3.4c4.1,0,4.1,3.4,8.3,3.4c4.1,0,4.1-3.4,8.3-3.4
			c4.1,0,4.1,3.4,8.3,3.4c4.1,0,4.1-3.4,8.3-3.4s4.1,3.4,8.3,3.4"/>
		<path class="st6" d="M91.3,95.4c4.1,0,4.1,3.4,8.3,3.4c4.1,0,4.1-3.4,8.3-3.4c4.1,0,4.1,3.4,8.3,3.4c4.1,0,4.1-3.4,8.3-3.4
			c4.1,0,4.1,3.4,8.3,3.4c4.1,0,4.1-3.4,8.3-3.4s4.1,3.4,8.3,3.4"/>
	</g>
	<line class="st1" x1="87.4" y1="122.2" x2="87.4" y2="62.1"/>
	<path class="st7" d="M50.8,37.7c22.8,10.7,50.2,10,73.1,0"/>
	<path class="st0" d="M57.3,34.4L68,28.1l10.3,3l9.1-5.8l9.2,5.6l10.3-3l10.6,6.4C98.3,41.1,76.4,41.4,57.3,34.4z"/>
	<g>
		<path class="st1" d="M58.4,60.6c3.3,1.2,6.7,2.1,10.1,2.8c4.2,0.9,8.5,1.5,12.8,1.8"/>
		<path class="st1" d="M60,71.1c2.8,0.9,5.6,1.7,8.4,2.3c4.2,0.9,8.5,1.5,12.8,1.8"/>
		<path class="st1" d="M61.7,81.6c2.2,0.7,4.5,1.3,6.8,1.8c4.2,0.9,8.5,1.5,12.8,1.8"/>
		<path class="st1" d="M63.3,92.2c1.7,0.5,3.4,0.9,5.2,1.3c4.2,0.9,8.5,1.5,12.8,1.8"/>
	</g>
	<circle class="st8" cx="87.4" cy="87.4" r="85.3"/>
</g>
</svg>
