<?xml version="1.0" encoding="utf-8"?>
<!-- Generator: Adobe Illustrator 19.1.0, SVG Export Plug-In . SVG Version: 6.00 Build 0)  -->
<svg version="1.1" id="Слой_1" xmlns="http://www.w3.org/2000/svg" xmlns:xlink="http://www.w3.org/1999/xlink" x="0px" y="0px"
	 viewBox="0 0 90.6 180.9" style="enable-background:new 0 0 90.6 180.9;" xml:space="preserve">
<style type="text/css">
	.st0{fill:url(#SVGID_1_);}
	.st1{fill:url(#SVGID_2_);}
	.st2{fill:#2F2B77;}
	.st3{fill:#014FA5;}
	.st4{fill:#B2A8EE;}
	.st5{fill:#1C84FF;}
	.st6{fill:#8FA888;}
	.st7{fill:#E22873;}
	.st8{fill:#34307C;}
	.st9{fill:#D8CCFF;}
	.st10{fill:#F2D6AD;}
	.st11{fill:#DADADA;}
	.st12{fill:#9E7A45;}
	.st13{fill:url(#SVGID_3_);}
	.st14{fill:#DAB686;}
	.st15{fill:#D8A364;}
	.st16{fill:#9E7A45;stroke:#9E7A45;stroke-width:3.2104;stroke-miterlimit:10;}
	.st17{fill:none;stroke:#CBAE7F;stroke-width:2.1403;stroke-miterlimit:10;}
	.st18{fill:none;stroke:#CBAE7F;stroke-width:0.8219;stroke-miterlimit:10;}
	.st19{fill:#434E57;}
	.st20{fill:none;stroke:#7A7A7A;stroke-width:2.1403;stroke-miterlimit:10;}
	.st21{fill:#FF3200;}
	.st22{opacity:0.36;fill:url(#SVGID_4_);}
	.st23{opacity:0.36;fill:url(#SVGID_5_);}
	.st24{fill:url(#SVGID_6_);}
	.st25{fill:url(#SVGID_7_);}
	.st26{fill:#E4E4E4;}
	.st27{fill:#FFFFFF;stroke:#5B5B5B;stroke-width:2.6401;stroke-miterlimit:10;}
	.st28{fill:#FFFFFF;stroke:#5B5B5B;stroke-width:2.6684;stroke-miterlimit:10;}
	.st29{fill:#FFFFFF;stroke:#5B5B5B;stroke-width:1.3201;stroke-miterlimit:10;}
	.st30{fill:#656565;}
</style>
<g>
	<path class="st10" d="M64.4,159.1c0,0-0.8,9.9,1.2,10.9c2,1-0.2,2.6-0.4,2.6c-0.2,0-3.1-0.6-3.3-0.6c-0.2,0-1.4-1.6-1.4-1.6
		s0.2-6.2-1.3-10.1c-1.5-3.9,1.8-3.1,2-2.9c0.2,0.1,3.3,1.1,3.3,1.1L64.4,159.1z"/>
	<path class="st10" d="M31.6,160.7c0,0-0.1,10.5-1.2,12c-1.1,1.4,1.7,2.3,1.7,2.3l3.8-3.3c0,0-0.2-2.9,0.7-5.8
		c0.9-2.9,2.1-5.7,2-6.6c-0.1-0.9-1.8-0.5-2.4-0.7c-0.6-0.2-3,0.4-3.5,0.5C32.3,159.1,31.6,160.7,31.6,160.7z"/>
	<path class="st11" d="M71,88.1c0,0-2.9,60.8-4,68.9c0,0-6.6,1.8-11.6-2.1c0,0-0.3-4.1-6.5-9.6c0,0-5.5,4.8-7.2,13.2
		c0,0-5.7,4-12.8,0.1l-7.5-68.5L71,88.1z"/>
	<path class="st12" d="M28.9,170.6c0-0.1,0.8-0.2,1.4,0.8c0.6,1,0.8,2.4,2.4,2.3c1.6-0.1,2-1.4,2.9-1.9c0.9-0.5,0.9-0.2,0.9,0.5
		c0,0.7-0.4,0.8-0.3,2.2c0.1,1.3,0.2,1.9-0.4,2.4c-0.5,0.5-0.8,0.3-1.9,0.7c-1.1,0.5-3.3,1.5-4.8,2.6c-1.5,1.1-5.6,1-6.4-1.4
		c-0.8-2.4,1.1-3.7,2.8-4C27.4,174.4,29.2,172.2,28.9,170.6z"/>
	<path class="st12" d="M66.8,168.6c0-0.1-0.8-0.2-1.4,0.8c-0.6,1-0.8,2.4-2.4,2.3c-1.6-0.1-2-1.4-2.9-1.9c-0.9-0.5-0.9-0.2-0.9,0.5
		c0,0.7,0.4,0.8,0.3,2.2c-0.1,1.3-0.2,1.9,0.4,2.4c0.5,0.5,0.8,0.3,1.9,0.7c1.1,0.5,3.3,1.5,4.8,2.6c1.5,1.1,5.6,1,6.4-1.4
		c0.8-2.4-1.1-3.7-2.8-4C68.3,172.4,66.5,170.2,66.8,168.6z"/>
	<path class="st2" d="M25.8,134c0,0,4.5,6.5,21.5,6.3c0,0,16,0.5,21.5-7.3l-1.3,37.1c0,0-4.9,3.1-8.7,2.1c0,0-4-20.3-10-25.5
		c0,0-10.8,18.3-12.3,26.5c0,0-1.5,3.9-8.5-0.1L25.8,134z"/>
	<g>
		<linearGradient id="SVGID_1_" gradientUnits="userSpaceOnUse" x1="15.0813" y1="63.5369" x2="72.6754" y2="63.5369">
			<stop  offset="0" style="stop-color:#DFC39C"/>
			<stop  offset="1" style="stop-color:#F2D6AD"/>
		</linearGradient>
		<path class="st0" d="M19.4,60.8L22,87.9l19.2,18l7.2-6l7.2,5.1l14.2-17.1c1.5-27.8,2.9-53.2,2.9-53.2s-1-2.2-2-4.4
			c-0.9-2-1.8-3.9-2.4-4.7c-1-1.6-3.3-3.4-11.8-4.1c-9.4-0.7-17.2,0.8-22.7,2.3c-6.9,1.9-10.4,2.8-12.8,5.5
			c-5.9,6.4-3.5,16.8-2.9,19c0.2,1.3,0.3,2.6,0.5,3.8c-0.4-0.4-1.9-1.6-3,0.3C14.3,54.7,15.5,60.5,19.4,60.8z"/>
		<path class="st14" d="M71.8,51c0,0,1-2.8,3.1-1.2c2,1.6-0.3,7.9-3.4,8L71.8,51z"/>
		<path class="st15" d="M53.5,80.1c0,0-0.7-0.7-2.2-0.7c-2.4,0.1-6.5,0.2-7.4,0c-1.4-0.3-2.7-1.5-2.7-1.5s0.6,2.1,3.1,2.2
			C46.8,80.3,53.5,80.1,53.5,80.1z"/>
		<path class="st16" d="M52.8,46.3c3.4-2,6.9-3.9,10.3-5.9"/>
		<path class="st16" d="M40.5,45.6c-3.7-2-7.4-4-11.1-6"/>
		<path class="st17" d="M41.3,67.6c0.7,0.3,2,0.8,3.7,0.8c3.6-0.1,5.8-2.6,6.1-2.9"/>
		<path class="st18" d="M49.5,55.4c0.1,1.7,0.2,3.4,0.3,5.2c0.1,1,0.2,2.1,0.3,3"/>
		<circle class="st19" cx="35.7" cy="56" r="2.2"/>
		<circle class="st19" cx="59.2" cy="56" r="2.2"/>
		<path class="st20" d="M41.2,56.4c0.3-0.3,3.7-1.2,5.5-1.2c2,0,4.2,0.6,4.6,0.7"/>
		<path class="st21" d="M53.9,105l-2.2,6.2c0,0-3.5,0.8-5.6,0l-2.4-6l4.8-5.5L53.9,105z"/>
		<path class="st21" d="M51.7,111.1l4.3,22.5l-6.5,6.8l-7.9-6.5l4.4-22.9C46,111.1,48.2,111.8,51.7,111.1z"/>
		<path class="st12" d="M79.6,14.8c0,0,0.3,3.2-1.3,6.3c0,0,0.7-20-15-21.1c0,0,3.9,3.3,3,7.5C66,9,65,9.9,63.6,10.4
			c-0.1-2.5-0.9-6.8-5.5-9.6c0,0,2.1,5.2-1.4,9.2c-0.1,0-0.1,0-0.2-0.1c0,0,0,0,0,0c-0.4-2.1-1.7-7.6-5.6-9.1c0,0,2.2,3.5,0.1,6.3
			c-1.5-0.6-3.3-1.2-5.1-1.5c-10-1.5-24.2-0.1-28.3,15.4c0,0-5.6,1.8-6.6,8C10,35,14.4,48.3,19.2,53c0,0-4-20.8,7.3-18
			c0,0,1.8-2.8,7.2-2c5.4,0.8,11.9,12.7,27.5,11.4C76.9,43.3,82.6,23.4,79.6,14.8z"/>
		<path class="st12" d="M42,70.6c-2.3,0.4-2.4,1.7-4.7,2.6c-1.6,0.6-4.1,0.9-7.9-0.8c0,0,0.9,6.5,8.6,7c7.7,0.5,9.3-3.8,9.3-3.8
			s1.4,3.8,8,3.4c6.3-0.4,7.8-6.9,7.8-6.9s-1.8,2.7-5.3,2.2c-0.8-0.1-1.6-0.5-1.7-0.5c-1.3-0.6-1.6-1.3-3.3-2.3
			c-0.6-0.4-0.9-0.5-1.4-0.6c-1.1-0.2-2.1,0.2-2.5,0.3C46.4,72.1,45,70.1,42,70.6z"/>
		<g>
			<linearGradient id="SVGID_2_" gradientUnits="userSpaceOnUse" x1="51.2531" y1="56.0346" x2="65.1568" y2="56.0346">
				<stop  offset="0" style="stop-color:#C1C1C1"/>
				<stop  offset="0.3933" style="stop-color:#FFFFFF"/>
				<stop  offset="0.4857" style="stop-color:#F9F9F9"/>
				<stop  offset="0.6111" style="stop-color:#E8E8E8"/>
				<stop  offset="0.7552" style="stop-color:#CBCBCB"/>
				<stop  offset="0.9123" style="stop-color:#A4A4A4"/>
				<stop  offset="1" style="stop-color:#8B8B8B"/>
			</linearGradient>
			<circle style="opacity:0.36;fill:url(#SVGID_2_);" cx="58.2" cy="56" r="7"/>
			<circle class="st20" cx="58.2" cy="56" r="7"/>
		</g>
		<g>
			<linearGradient id="SVGID_3_" gradientUnits="userSpaceOnUse" x1="27.709" y1="56.0346" x2="41.6127" y2="56.0346">
				<stop  offset="0" style="stop-color:#C1C1C1"/>
				<stop  offset="0.3933" style="stop-color:#FFFFFF"/>
				<stop  offset="0.4857" style="stop-color:#F9F9F9"/>
				<stop  offset="0.6111" style="stop-color:#E8E8E8"/>
				<stop  offset="0.7552" style="stop-color:#CBCBCB"/>
				<stop  offset="0.9123" style="stop-color:#A4A4A4"/>
				<stop  offset="1" style="stop-color:#8B8B8B"/>
			</linearGradient>
			<circle style="opacity:0.36;fill:url(#SVGID_3_);" cx="34.7" cy="56" r="7"/>
			<circle class="st20" cx="34.7" cy="56" r="7"/>
		</g>
	</g>
	
		<linearGradient id="SVGID_4_" gradientUnits="userSpaceOnUse" x1="-45.8346" y1="-94.6244" x2="-36.6873" y2="-94.6244" gradientTransform="matrix(0.9482 0.3176 -0.3176 0.9482 20.8983 145.2901)">
		<stop  offset="0" style="stop-color:#DFC39C"/>
		<stop  offset="1" style="stop-color:#F2D6AD"/>
	</linearGradient>
	<path style="fill:url(#SVGID_4_);" d="M5.5,49c-0.5-1.1,0-2.1,1.8-6.3c2.8-6.5,3.1-8.1,4.9-8.8c1.3-0.5,2.8-0.3,3.9,0.4
		c1.9,1.4,2.1,4.7,1,6.7c-0.5,0.9-0.7,0.7-2.7,3.2c-0.9,1.1-1.4,1.7-1.8,2.4c-0.6,0.9-1.3,2.4-1.5,4.6C10.2,51.2,6.5,51.1,5.5,49z"
		/>
	<path class="st11" d="M27.6,112.2c0,0-18.9-10.4-25.4-30.8c-6.7-21,3.5-36.1,3.5-36.1s1.4,0.8,3.2,2.4c1.5,1.3,2.2,3.7,2.2,3.7
		s-6,9.3-0.6,24.5c4.8,13.4,14,15.9,14,15.9L27.6,112.2z"/>
	
		<linearGradient id="SVGID_5_" gradientUnits="userSpaceOnUse" x1="41.7721" y1="-130.418" x2="50.9195" y2="-130.418" gradientTransform="matrix(-0.8948 0.4464 0.4464 0.8948 174.7138 137.48)">
		<stop  offset="0" style="stop-color:#DFC39C"/>
		<stop  offset="1" style="stop-color:#F2D6AD"/>
	</linearGradient>
	<path style="fill:url(#SVGID_5_);" d="M82.2,47.1c0.4-1.2-0.3-2-2.7-6c-3.6-6-4.2-7.6-6.1-8c-1.3-0.3-2.8,0.1-3.8,1
		c-1.7,1.6-1.4,4.9,0,6.8c0.6,0.8,0.8,0.6,3.2,2.8c1.1,1,1.6,1.5,2.1,2.1c0.7,0.8,1.6,2.2,2.2,4.3C77.8,49.9,81.5,49.3,82.2,47.1z"
		/>
	<path class="st11" d="M69.1,112.7c0,0,17.3-12.9,20.8-34.1c3.7-21.8-8.5-35.3-8.5-35.3s-1.3,1-2.8,2.8c-1.3,1.5-1.6,4-1.6,4
		s7.2,8.4,4,24.1c-2.9,14-11.7,17.7-11.7,17.7L69.1,112.7z"/>
	<path class="st26" d="M21.3,90.1c0,0,9.9,14.4,21.6,17.5l5.6-7.3l6.3,6.9c0,0,12-10.4,16-19.1v-3.6c0,0-8.8,11.4-22.2,14.5
		c0,0-16.5-2.2-27.9-15.5L21.3,90.1z"/>
</g>
</svg>
