<?xml version="1.0" encoding="utf-8"?>
<!-- Generator: Adobe Illustrator 19.1.0, SVG Export Plug-In . SVG Version: 6.00 Build 0)  -->
<svg version="1.1" id="Слой_1" xmlns="http://www.w3.org/2000/svg" xmlns:xlink="http://www.w3.org/1999/xlink" x="0px" y="0px"
	 viewBox="0 0 80.2 151.9" style="enable-background:new 0 0 80.2 151.9;" xml:space="preserve">
<style type="text/css">
	.st0{fill:url(#SVGID_1_);}
	.st1{fill:url(#SVGID_2_);}
	.st2{fill:#2F2B77;}
	.st3{fill:#014FA5;}
	.st4{fill:#B2A8EE;}
	.st5{fill:#1C84FF;}
	.st6{fill:#8FA888;}
	.st7{fill:#E22873;}
	.st8{fill:#34307C;}
	.st9{fill:#D8CCFF;}
	.st10{fill:#F2D6AD;}
	.st11{fill:#DADADA;}
	.st12{fill:#9E7A45;}
	.st13{fill:url(#SVGID_3_);}
	.st14{fill:#DAB686;}
	.st15{fill:#D8A364;}
	.st16{fill:#9E7A45;stroke:#9E7A45;stroke-width:3.2104;stroke-miterlimit:10;}
	.st17{fill:none;stroke:#CBAE7F;stroke-width:2.1403;stroke-miterlimit:10;}
	.st18{fill:none;stroke:#CBAE7F;stroke-width:0.8219;stroke-miterlimit:10;}
	.st19{fill:#434E57;}
	.st20{fill:none;stroke:#7A7A7A;stroke-width:2.1403;stroke-miterlimit:10;}
	.st21{fill:#FF3200;}
	.st22{opacity:0.36;fill:url(#SVGID_4_);}
	.st23{opacity:0.36;fill:url(#SVGID_5_);}
	.st24{fill:url(#SVGID_6_);}
	.st25{fill:url(#SVGID_7_);}
	.st26{fill:#E4E4E4;}
	.st27{fill:#FFFFFF;stroke:#5B5B5B;stroke-width:2.6401;stroke-miterlimit:10;}
	.st28{fill:#FFFFFF;stroke:#5B5B5B;stroke-width:2.6684;stroke-miterlimit:10;}
	.st29{fill:#FFFFFF;stroke:#5B5B5B;stroke-width:1.3201;stroke-miterlimit:10;}
	.st30{fill:#656565;}
</style>
<g>
	<g>
		<path class="st2" d="M0,0v151.9h80.2V0H0z M76.2,147.1H4V4.8h72.3V147.1z"/>
		<rect x="4.1" y="4.8" class="st3" width="72.2" height="142.5"/>
	</g>
	<g>
		<rect x="8.7" y="12.4" class="st4" width="62.6" height="1.2"/>
		<rect x="8.5" y="25.9" class="st4" width="62.6" height="1.2"/>
		<rect x="8.5" y="39.2" class="st4" width="62.6" height="1.2"/>
		<circle class="st5" cx="17.5" cy="17" r="1.1"/>
		<circle class="st5" cx="17.5" cy="43.4" r="1.1"/>
		<circle class="st5" cx="17.5" cy="30.2" r="1.1"/>
		<circle class="st6" cx="15.4" cy="17.1" r="1.1"/>
		<circle class="st6" cx="15.4" cy="43.5" r="1.1"/>
		<circle class="st6" cx="15.5" cy="30.2" r="1.1"/>
		<circle class="st7" cx="13.3" cy="16.9" r="1.1"/>
		<circle class="st7" cx="13.3" cy="43.5" r="1.1"/>
		<circle class="st7" cx="13.4" cy="30.3" r="1.1"/>
		<circle class="st4" cx="14.6" cy="11.8" r="3"/>
		<circle class="st4" cx="14.3" cy="38.2" r="3"/>
		<circle class="st4" cx="14.4" cy="25" r="3"/>
		<path class="st2" d="M12.7,6.9c-1.5,0-2.7,1.2-2.7,2.7v7c0,1.5,1.2,2.7,2.7,2.7H40V6.9H12.7z M13.4,17.5c-0.3,0-0.6-0.3-0.6-0.6
			c0-0.3,0.3-0.6,0.6-0.6c0.3,0,0.6,0.3,0.6,0.6C14,17.2,13.7,17.5,13.4,17.5z M15.4,17.5c-0.3,0-0.6-0.3-0.6-0.6
			c0-0.3,0.3-0.6,0.6-0.6c0.3,0,0.6,0.3,0.6,0.6C16,17.2,15.7,17.5,15.4,17.5z M14.4,13.4c-1,0-1.9-0.8-1.9-1.9c0-1,0.8-1.9,1.9-1.9
			c1,0,1.9,0.8,1.9,1.9C16.3,12.6,15.4,13.4,14.4,13.4z M17.4,17.5c-0.3,0-0.6-0.3-0.6-0.6c0-0.3,0.3-0.6,0.6-0.6
			c0.3,0,0.6,0.3,0.6,0.6C18,17.2,17.7,17.5,17.4,17.5z"/>
		<path class="st8" d="M70,16.6v-7c0-1.5-1.2-2.7-2.7-2.7H40v12.4h27.2C68.7,19.3,70,18.1,70,16.6z"/>
		<path class="st2" d="M10.1,22.9v7c0,1.5,1.2,2.7,2.7,2.7H40V20.2H12.7C11.2,20.2,10.1,21.4,10.1,22.9z M13.4,30.8
			c-0.3,0-0.6-0.3-0.6-0.6c0-0.3,0.3-0.6,0.6-0.6c0.3,0,0.6,0.3,0.6,0.6C14,30.5,13.7,30.8,13.4,30.8z M15.4,30.8
			c-0.3,0-0.6-0.3-0.6-0.6c0-0.3,0.3-0.6,0.6-0.6c0.3,0,0.6,0.3,0.6,0.6C16,30.5,15.7,30.8,15.4,30.8z M17.4,29.6
			c0.3,0,0.6,0.3,0.6,0.6c0,0.3-0.3,0.6-0.6,0.6c-0.3,0-0.6-0.3-0.6-0.6C16.8,29.9,17.1,29.6,17.4,29.6z M14.4,23
			c1,0,1.9,0.8,1.9,1.9c0,1-0.8,1.9-1.9,1.9c-1,0-1.9-0.8-1.9-1.9C12.5,23.8,13.4,23,14.4,23z"/>
		<path class="st8" d="M67.3,32.6c1.5,0,2.7-1.2,2.7-2.7v-7c0-1.5-1.2-2.7-2.7-2.7H40v12.4H67.3z"/>
		<path class="st8" d="M67.3,45.9c1.5,0,2.7-1.2,2.7-2.7v-7c0-1.5-1.2-2.7-2.7-2.7H40v12.4H67.3z"/>
		<path class="st2" d="M10.1,36.2v7c0,1.5,1.2,2.7,2.7,2.7H40V33.5H12.7C11.2,33.5,10.1,34.7,10.1,36.2z M13.4,44.1
			c-0.3,0-0.6-0.3-0.6-0.6c0-0.3,0.3-0.6,0.6-0.6c0.3,0,0.6,0.3,0.6,0.6C14,43.8,13.7,44.1,13.4,44.1z M15.4,44.1
			c-0.3,0-0.6-0.3-0.6-0.6c0-0.3,0.3-0.6,0.6-0.6c0.3,0,0.6,0.3,0.6,0.6C16,43.8,15.7,44.1,15.4,44.1z M17.4,42.9
			c0.3,0,0.6,0.3,0.6,0.6c0,0.3-0.3,0.6-0.6,0.6c-0.3,0-0.6-0.3-0.6-0.6C16.8,43.2,17.1,42.9,17.4,42.9z M14.4,36.3
			c1,0,1.9,0.8,1.9,1.9c0,1-0.8,1.9-1.9,1.9c-1,0-1.9-0.8-1.9-1.9C12.5,37.1,13.4,36.3,14.4,36.3z"/>
		<g>
			<path class="st4" d="M7.4,5.7c-1,0-1.9,0.8-1.9,1.9v37.5c0,1,0.8,1.9,1.9,1.9c0,0,0.1,0,0.1,0L7.4,5.7C7.4,5.7,7.4,5.7,7.4,5.7z"
				/>
			<path class="st9" d="M7.5,5.8v41.3c1,0,1.8-0.9,1.8-1.9V7.6C9.3,6.6,8.5,5.8,7.5,5.8z"/>
		</g>
		<g>
			<path class="st4" d="M70.7,7.6v37.5c0,1,0.8,1.9,1.9,1.9V5.7C71.6,5.7,70.7,6.6,70.7,7.6z"/>
			<path class="st9" d="M72.6,5.7L72.6,5.7v41.3l0,0c1,0,1.9-0.8,1.9-1.9V7.6C74.5,6.6,73.7,5.7,72.6,5.7z"/>
		</g>
	</g>
	<rect x="3.3" y="47.6" class="st2" width="73.8" height="4.9"/>
	<g>
		<rect x="8.7" y="61" class="st4" width="62.6" height="1.2"/>
		<rect x="8.5" y="74.4" class="st4" width="62.6" height="1.2"/>
		<rect x="8.5" y="87.8" class="st4" width="62.6" height="1.2"/>
		<circle class="st5" cx="17.5" cy="65.6" r="1.1"/>
		<circle class="st5" cx="17.5" cy="91.9" r="1.1"/>
		<circle class="st5" cx="17.5" cy="78.7" r="1.1"/>
		<circle class="st6" cx="15.4" cy="65.6" r="1.1"/>
		<circle class="st6" cx="15.4" cy="92" r="1.1"/>
		<circle class="st6" cx="15.5" cy="78.8" r="1.1"/>
		<circle class="st7" cx="13.3" cy="65.5" r="1.1"/>
		<circle class="st7" cx="13.3" cy="92.1" r="1.1"/>
		<circle class="st7" cx="13.4" cy="78.8" r="1.1"/>
		<circle class="st4" cx="14.6" cy="60.4" r="3"/>
		<circle class="st4" cx="14.3" cy="86.8" r="3"/>
		<circle class="st4" cx="14.4" cy="73.5" r="3"/>
		<path class="st2" d="M12.7,55.5c-1.5,0-2.7,1.2-2.7,2.7v7c0,1.5,1.2,2.7,2.7,2.7H40V55.5H12.7z M13.4,66.1c-0.3,0-0.6-0.3-0.6-0.6
			c0-0.3,0.3-0.6,0.6-0.6c0.3,0,0.6,0.3,0.6,0.6C14,65.8,13.7,66.1,13.4,66.1z M15.4,66.1c-0.3,0-0.6-0.3-0.6-0.6
			c0-0.3,0.3-0.6,0.6-0.6c0.3,0,0.6,0.3,0.6,0.6C16,65.8,15.7,66.1,15.4,66.1z M14.4,62c-1,0-1.9-0.8-1.9-1.9c0-1,0.8-1.9,1.9-1.9
			c1,0,1.9,0.8,1.9,1.9C16.3,61.2,15.4,62,14.4,62z M17.4,66.1c-0.3,0-0.6-0.3-0.6-0.6c0-0.3,0.3-0.6,0.6-0.6c0.3,0,0.6,0.3,0.6,0.6
			C18,65.8,17.7,66.1,17.4,66.1z"/>
		<path class="st8" d="M70,65.2v-7c0-1.5-1.2-2.7-2.7-2.7H40v12.4h27.2C68.7,67.9,70,66.7,70,65.2z"/>
		<path class="st2" d="M10.1,71.5v7c0,1.5,1.2,2.7,2.7,2.7H40V68.8H12.7C11.2,68.8,10.1,70,10.1,71.5z M13.4,79.4
			c-0.3,0-0.6-0.3-0.6-0.6c0-0.3,0.3-0.6,0.6-0.6c0.3,0,0.6,0.3,0.6,0.6C14,79.1,13.7,79.4,13.4,79.4z M15.4,79.4
			c-0.3,0-0.6-0.3-0.6-0.6c0-0.3,0.3-0.6,0.6-0.6c0.3,0,0.6,0.3,0.6,0.6C16,79.1,15.7,79.4,15.4,79.4z M17.4,78.2
			c0.3,0,0.6,0.3,0.6,0.6c0,0.3-0.3,0.6-0.6,0.6c-0.3,0-0.6-0.3-0.6-0.6C16.8,78.4,17.1,78.2,17.4,78.2z M14.4,71.6
			c1,0,1.9,0.8,1.9,1.9c0,1-0.8,1.9-1.9,1.9c-1,0-1.9-0.8-1.9-1.9C12.5,72.4,13.4,71.6,14.4,71.6z"/>
		<path class="st8" d="M67.3,81.2c1.5,0,2.7-1.2,2.7-2.7v-7c0-1.5-1.2-2.7-2.7-2.7H40v12.4H67.3z"/>
		<path class="st8" d="M67.3,94.4c1.5,0,2.7-1.2,2.7-2.7v-7c0-1.5-1.2-2.7-2.7-2.7H40v12.4H67.3z"/>
		<path class="st2" d="M10.1,84.7v7c0,1.5,1.2,2.7,2.7,2.7H40V82.1H12.7C11.2,82.1,10.1,83.3,10.1,84.7z M13.4,92.7
			c-0.3,0-0.6-0.3-0.6-0.6c0-0.3,0.3-0.6,0.6-0.6c0.3,0,0.6,0.3,0.6,0.6C14,92.4,13.7,92.7,13.4,92.7z M15.4,92.7
			c-0.3,0-0.6-0.3-0.6-0.6c0-0.3,0.3-0.6,0.6-0.6c0.3,0,0.6,0.3,0.6,0.6C16,92.4,15.7,92.7,15.4,92.7z M17.4,91.4
			c0.3,0,0.6,0.3,0.6,0.6c0,0.3-0.3,0.6-0.6,0.6c-0.3,0-0.6-0.3-0.6-0.6C16.8,91.7,17.1,91.4,17.4,91.4z M14.4,84.9
			c1,0,1.9,0.8,1.9,1.9c0,1-0.8,1.9-1.9,1.9c-1,0-1.9-0.8-1.9-1.9C12.5,85.7,13.4,84.9,14.4,84.9z"/>
		<g>
			<path class="st4" d="M7.4,54.3c-1,0-1.9,0.8-1.9,1.9v37.5c0,1,0.8,1.9,1.9,1.9c0,0,0.1,0,0.1,0L7.4,54.3
				C7.4,54.3,7.4,54.3,7.4,54.3z"/>
			<path class="st9" d="M7.5,54.3v41.3c1,0,1.8-0.9,1.8-1.9V56.2C9.3,55.2,8.5,54.4,7.5,54.3z"/>
		</g>
		<g>
			<path class="st4" d="M70.7,56.2v37.5c0,1,0.8,1.9,1.9,1.9V54.3C71.6,54.3,70.7,55.2,70.7,56.2z"/>
			<path class="st9" d="M72.6,54.3L72.6,54.3v41.3l0,0c1,0,1.9-0.8,1.9-1.9V56.2C74.5,55.2,73.7,54.3,72.6,54.3z"/>
		</g>
	</g>
	<rect x="3.7" y="96.1" class="st2" width="73.4" height="4.9"/>
	<g>
		<rect x="8.7" y="110.2" class="st4" width="62.6" height="1.2"/>
		<rect x="8.5" y="123.6" class="st4" width="62.6" height="1.2"/>
		<rect x="8.5" y="136.9" class="st4" width="62.6" height="1.2"/>
		<circle class="st5" cx="17.5" cy="114.7" r="1.1"/>
		<circle class="st5" cx="17.5" cy="141.1" r="1.1"/>
		<circle class="st5" cx="17.5" cy="127.9" r="1.1"/>
		<circle class="st6" cx="15.4" cy="114.8" r="1.1"/>
		<circle class="st6" cx="15.4" cy="141.2" r="1.1"/>
		<circle class="st6" cx="15.5" cy="128" r="1.1"/>
		<circle class="st7" cx="13.3" cy="114.6" r="1.1"/>
		<circle class="st7" cx="13.3" cy="141.3" r="1.1"/>
		<circle class="st7" cx="13.4" cy="128" r="1.1"/>
		<circle class="st4" cx="14.6" cy="109.6" r="3"/>
		<circle class="st4" cx="14.3" cy="136" r="3"/>
		<circle class="st4" cx="14.4" cy="122.7" r="3"/>
		<path class="st2" d="M12.7,104.7c-1.5,0-2.7,1.2-2.7,2.7v7c0,1.5,1.2,2.7,2.7,2.7H40v-12.4H12.7z M13.4,115.3
			c-0.3,0-0.6-0.3-0.6-0.6c0-0.3,0.3-0.6,0.6-0.6c0.3,0,0.6,0.3,0.6,0.6C14,115,13.7,115.3,13.4,115.3z M15.4,115.3
			c-0.3,0-0.6-0.3-0.6-0.6c0-0.3,0.3-0.6,0.6-0.6c0.3,0,0.6,0.3,0.6,0.6C16,115,15.7,115.3,15.4,115.3z M14.4,111.2
			c-1,0-1.9-0.8-1.9-1.9s0.8-1.9,1.9-1.9c1,0,1.9,0.8,1.9,1.9S15.4,111.2,14.4,111.2z M17.4,115.3c-0.3,0-0.6-0.3-0.6-0.6
			c0-0.3,0.3-0.6,0.6-0.6c0.3,0,0.6,0.3,0.6,0.6C18,115,17.7,115.3,17.4,115.3z"/>
		<path class="st8" d="M70,114.4v-7c0-1.5-1.2-2.7-2.7-2.7H40V117h27.2C68.7,117,70,115.8,70,114.4z"/>
		<path class="st2" d="M10.1,120.6v7c0,1.5,1.2,2.7,2.7,2.7H40V118H12.7C11.2,118,10.1,119.2,10.1,120.6z M13.4,128.6
			c-0.3,0-0.6-0.3-0.6-0.6c0-0.3,0.3-0.6,0.6-0.6c0.3,0,0.6,0.3,0.6,0.6C14,128.3,13.7,128.6,13.4,128.6z M15.4,128.6
			c-0.3,0-0.6-0.3-0.6-0.6c0-0.3,0.3-0.6,0.6-0.6c0.3,0,0.6,0.3,0.6,0.6C16,128.3,15.7,128.6,15.4,128.6z M17.4,127.3
			c0.3,0,0.6,0.3,0.6,0.6c0,0.3-0.3,0.6-0.6,0.6c-0.3,0-0.6-0.3-0.6-0.6C16.8,127.6,17.1,127.3,17.4,127.3z M14.4,120.7
			c1,0,1.9,0.8,1.9,1.9c0,1-0.8,1.9-1.9,1.9c-1,0-1.9-0.8-1.9-1.9C12.5,121.6,13.4,120.7,14.4,120.7z"/>
		<path class="st8" d="M67.3,130.3c1.5,0,2.7-1.2,2.7-2.7v-7c0-1.5-1.2-2.7-2.7-2.7H40v12.4H67.3z"/>
		<path class="st8" d="M67.3,143.6c1.5,0,2.7-1.2,2.7-2.7v-7c0-1.5-1.2-2.7-2.7-2.7H40v12.4H67.3z"/>
		<path class="st2" d="M10.1,133.9v7c0,1.5,1.2,2.7,2.7,2.7H40v-12.4H12.7C11.2,131.3,10.1,132.4,10.1,133.9z M13.4,141.8
			c-0.3,0-0.6-0.3-0.6-0.6c0-0.3,0.3-0.6,0.6-0.6c0.3,0,0.6,0.3,0.6,0.6C14,141.6,13.7,141.8,13.4,141.8z M15.4,141.8
			c-0.3,0-0.6-0.3-0.6-0.6c0-0.3,0.3-0.6,0.6-0.6c0.3,0,0.6,0.3,0.6,0.6C16,141.6,15.7,141.8,15.4,141.8z M17.4,140.6
			c0.3,0,0.6,0.3,0.6,0.6c0,0.3-0.3,0.6-0.6,0.6c-0.3,0-0.6-0.3-0.6-0.6C16.8,140.9,17.1,140.6,17.4,140.6z M14.4,134
			c1,0,1.9,0.8,1.9,1.9c0,1-0.8,1.9-1.9,1.9c-1,0-1.9-0.8-1.9-1.9C12.5,134.9,13.4,134,14.4,134z"/>
		<g>
			<path class="st4" d="M7.4,103.5c-1,0-1.9,0.8-1.9,1.9v37.5c0,1,0.8,1.9,1.9,1.9c0,0,0.1,0,0.1,0L7.4,103.5
				C7.4,103.5,7.4,103.5,7.4,103.5z"/>
			<path class="st9" d="M7.5,103.5v41.3c1,0,1.8-0.9,1.8-1.9v-37.5C9.3,104.4,8.5,103.5,7.5,103.5z"/>
		</g>
		<g>
			<path class="st4" d="M70.7,105.4v37.5c0,1,0.8,1.9,1.9,1.9v-41.3C71.6,103.5,70.7,104.3,70.7,105.4z"/>
			<path class="st9" d="M72.6,103.5L72.6,103.5v41.3l0,0c1,0,1.9-0.8,1.9-1.9v-37.5C74.5,104.3,73.7,103.5,72.6,103.5z"/>
		</g>
	</g>
</g>
</svg>
