<?xml version="1.0" encoding="utf-8"?>
<!-- Generator: Adobe Illustrator 19.1.0, SVG Export Plug-In . SVG Version: 6.00 Build 0)  -->
<svg version="1.1" id="Слой_1" xmlns="http://www.w3.org/2000/svg" xmlns:xlink="http://www.w3.org/1999/xlink" x="0px" y="0px"
	 viewBox="0 0 55.2 55.2" style="enable-background:new 0 0 55.2 55.2;" xml:space="preserve">
<style type="text/css">
	.st0{fill:url(#SVGID_1_);}
	.st1{fill:url(#SVGID_2_);}
	.st2{fill:#2F2B77;}
	.st3{fill:#014FA5;}
	.st4{fill:#B2A8EE;}
	.st5{fill:#1C84FF;}
	.st6{fill:#8FA888;}
	.st7{fill:#E22873;}
	.st8{fill:#34307C;}
	.st9{fill:#D8CCFF;}
	.st10{fill:#F2D6AD;}
	.st11{fill:#DADADA;}
	.st12{fill:#9E7A45;}
	.st13{fill:url(#SVGID_3_);}
	.st14{fill:#DAB686;}
	.st15{fill:#D8A364;}
	.st16{fill:#9E7A45;stroke:#9E7A45;stroke-width:3.2104;stroke-miterlimit:10;}
	.st17{fill:none;stroke:#CBAE7F;stroke-width:2.1403;stroke-miterlimit:10;}
	.st18{fill:none;stroke:#CBAE7F;stroke-width:0.8219;stroke-miterlimit:10;}
	.st19{fill:#434E57;}
	.st20{fill:none;stroke:#7A7A7A;stroke-width:2.1403;stroke-miterlimit:10;}
	.st21{fill:#FF3200;}
	.st22{opacity:0.36;fill:url(#SVGID_4_);}
	.st23{opacity:0.36;fill:url(#SVGID_5_);}
	.st24{fill:url(#SVGID_6_);}
	.st25{fill:url(#SVGID_7_);}
	.st26{fill:#E4E4E4;}
	.st27{fill:#FFFFFF;stroke:#5B5B5B;stroke-width:2.6401;stroke-miterlimit:10;}
	.st28{fill:#FFFFFF;stroke:#5B5B5B;stroke-width:2.6684;stroke-miterlimit:10;}
	.st29{fill:#FFFFFF;stroke:#5B5B5B;stroke-width:1.3201;stroke-miterlimit:10;}
	.st30{fill:#656565;}
</style>
<g>
	<circle class="st27" cx="27.6" cy="27.6" r="26.3"/>
	<line class="st28" x1="27.8" y1="4.5" x2="27.8" y2="9.4"/>
	<line class="st29" x1="44.1" y1="44.1" x2="40.5" y2="40.5"/>
	<line class="st29" x1="11.2" y1="44.1" x2="14.7" y2="40.5"/>
	<line class="st29" x1="44.1" y1="11.2" x2="40.5" y2="14.7"/>
	<line class="st29" x1="11.2" y1="11.2" x2="14.7" y2="14.7"/>
	<line class="st28" x1="4.2" y1="27.7" x2="9.5" y2="27.7"/>
	<line class="st28" x1="27.8" y1="50.8" x2="27.8" y2="45.9"/>
	<line class="st28" x1="50.9" y1="27.7" x2="46" y2="27.7"/>
	<g>
		<path class="st30" d="M27.6,12.9c0.3,0.6,0.5,1.2,0.8,1.8l0.3,0.9c0.1,0.3,0.3,0.6,0.2,0.9c0,0.3,0,0.6,0,0.9v0.9v1.8v7.3
			l-0.3-0.9l4,4.4l1,1.1c0.2,0.2,0.3,0.4,0.5,0.5c0.2,0.1,0.3,0.4,0.4,0.6c0.4,1,0.8,2,1.1,3c-1-0.4-2-0.9-2.9-1.4
			c-0.2-0.1-0.5-0.2-0.6-0.5c-0.2-0.2-0.3-0.4-0.5-0.6l-1-1.1l-4-4.4l-0.3-0.4v-0.5v-7.3v-1.8v-0.9c0-0.3,0-0.6,0-0.9
			c-0.1-0.3,0.1-0.6,0.2-0.9l0.3-0.9C27.1,14.2,27.3,13.6,27.6,12.9z"/>
	</g>
</g>
</svg>
