<?xml version="1.0" encoding="utf-8"?>
<!-- Generator: Adobe Illustrator 19.1.0, SVG Export Plug-In . SVG Version: 6.00 Build 0)  -->
<svg version="1.1" id="Слой_1" xmlns="http://www.w3.org/2000/svg" xmlns:xlink="http://www.w3.org/1999/xlink" x="0px" y="0px"
	 viewBox="0 0 80.5 151.6" style="enable-background:new 0 0 80.5 151.6;" xml:space="preserve">
<style type="text/css">
	.st0{fill:url(#SVGID_1_);}
	.st1{fill:url(#SVGID_2_);}
	.st2{fill:#2F2B77;}
	.st3{fill:#014FA5;}
	.st4{fill:#B2A8EE;}
	.st5{fill:#1C84FF;}
	.st6{fill:#8FA888;}
	.st7{fill:#E22873;}
	.st8{fill:#34307C;}
	.st9{fill:#D8CCFF;}
	.st10{fill:#F2D6AD;}
	.st11{fill:#DADADA;}
	.st12{fill:#9E7A45;}
	.st13{fill:url(#SVGID_3_);}
	.st14{fill:#DAB686;}
	.st15{fill:#D8A364;}
	.st16{fill:#9E7A45;stroke:#9E7A45;stroke-width:3.2104;stroke-miterlimit:10;}
	.st17{fill:none;stroke:#CBAE7F;stroke-width:2.1403;stroke-miterlimit:10;}
	.st18{fill:none;stroke:#CBAE7F;stroke-width:0.8219;stroke-miterlimit:10;}
	.st19{fill:#434E57;}
	.st20{fill:none;stroke:#7A7A7A;stroke-width:2.1403;stroke-miterlimit:10;}
	.st21{fill:#FF3200;}
	.st22{opacity:0.36;fill:url(#SVGID_4_);}
	.st23{opacity:0.36;fill:url(#SVGID_5_);}
	.st24{fill:url(#SVGID_6_);}
	.st25{fill:url(#SVGID_7_);}
	.st26{fill:#E4E4E4;}
	.st27{fill:#FFFFFF;stroke:#5B5B5B;stroke-width:2.6401;stroke-miterlimit:10;}
	.st28{fill:#FFFFFF;stroke:#5B5B5B;stroke-width:2.6684;stroke-miterlimit:10;}
	.st29{fill:#FFFFFF;stroke:#5B5B5B;stroke-width:1.3201;stroke-miterlimit:10;}
	.st30{fill:#656565;}
</style>
<g>
	<g>
		<g>
			<path class="st2" d="M0,0v151.6h80V0H0z M76.1,146.8H4V4.9h72.1V146.8z"/>
			<rect x="4" y="4.9" class="st3" width="72.1" height="141.9"/>
		</g>
		<g>
			<rect x="8.7" y="12.4" class="st4" width="62.5" height="1.2"/>
			<rect x="8.5" y="25.8" class="st4" width="62.5" height="1.2"/>
			<rect x="8.5" y="39.1" class="st4" width="62.5" height="1.2"/>
			<circle class="st5" cx="17.4" cy="17" r="1.1"/>
			<circle class="st5" cx="17.5" cy="43.3" r="1.1"/>
			<circle class="st5" cx="17.5" cy="30.1" r="1.1"/>
			<circle class="st6" cx="15.4" cy="17.1" r="1.1"/>
			<circle class="st6" cx="15.4" cy="43.4" r="1.1"/>
			<circle class="st6" cx="15.5" cy="30.2" r="1.1"/>
			<circle class="st7" cx="13.3" cy="16.9" r="1.1"/>
			<circle class="st7" cx="13.3" cy="43.5" r="1.1"/>
			<circle class="st7" cx="13.3" cy="30.2" r="1.1"/>
			<circle class="st4" cx="14.5" cy="11.8" r="3"/>
			<circle class="st4" cx="14.2" cy="38.2" r="3"/>
			<circle class="st4" cx="14.4" cy="24.9" r="3"/>
			<path class="st2" d="M12.7,6.9c-1.5,0-2.7,1.2-2.7,2.7v7c0,1.5,1.2,2.7,2.7,2.7h27.2V6.9H12.7z M13.4,17.5
				c-0.3,0-0.6-0.3-0.6-0.6c0-0.3,0.3-0.6,0.6-0.6c0.3,0,0.6,0.3,0.6,0.6C14,17.2,13.7,17.5,13.4,17.5z M15.3,17.5
				c-0.3,0-0.6-0.3-0.6-0.6c0-0.3,0.3-0.6,0.6-0.6c0.3,0,0.6,0.3,0.6,0.6C15.9,17.2,15.7,17.5,15.3,17.5z M14.4,13.4
				c-1,0-1.9-0.8-1.9-1.9c0-1,0.8-1.9,1.9-1.9c1,0,1.9,0.8,1.9,1.9C16.2,12.6,15.4,13.4,14.4,13.4z M17.4,17.5
				c-0.3,0-0.6-0.3-0.6-0.6c0-0.3,0.3-0.6,0.6-0.6c0.3,0,0.6,0.3,0.6,0.6C18,17.2,17.7,17.5,17.4,17.5z"/>
			<path class="st8" d="M69.8,16.6v-7c0-1.5-1.2-2.7-2.7-2.7H39.9v12.3h27.2C68.6,19.3,69.8,18.1,69.8,16.6z"/>
			<path class="st2" d="M10,22.9v7c0,1.5,1.2,2.7,2.7,2.7h27.2V20.2H12.7C11.2,20.2,10,21.4,10,22.9z M13.4,30.8
				c-0.3,0-0.6-0.3-0.6-0.6c0-0.3,0.3-0.6,0.6-0.6c0.3,0,0.6,0.3,0.6,0.6C14,30.5,13.7,30.8,13.4,30.8z M15.3,30.8
				c-0.3,0-0.6-0.3-0.6-0.6c0-0.3,0.3-0.6,0.6-0.6c0.3,0,0.6,0.3,0.6,0.6C15.9,30.5,15.7,30.8,15.3,30.8z M17.4,29.6
				c0.3,0,0.6,0.3,0.6,0.6c0,0.3-0.3,0.6-0.6,0.6c-0.3,0-0.6-0.3-0.6-0.6C16.7,29.8,17,29.6,17.4,29.6z M14.4,23
				c1,0,1.9,0.8,1.9,1.9c0,1-0.8,1.9-1.9,1.9c-1,0-1.9-0.8-1.9-1.9C12.5,23.8,13.3,23,14.4,23z"/>
			<path class="st8" d="M67.1,32.6c1.5,0,2.7-1.2,2.7-2.7v-7c0-1.5-1.2-2.7-2.7-2.7H39.9v12.3H67.1z"/>
			<path class="st8" d="M67.1,45.8c1.5,0,2.7-1.2,2.7-2.7v-7c0-1.5-1.2-2.7-2.7-2.7H39.9v12.3H67.1z"/>
			<path class="st2" d="M10,36.1v7c0,1.5,1.2,2.7,2.7,2.7h27.2V33.5H12.7C11.2,33.5,10,34.7,10,36.1z M13.4,44
				c-0.3,0-0.6-0.3-0.6-0.6c0-0.3,0.3-0.6,0.6-0.6c0.3,0,0.6,0.3,0.6,0.6C14,43.8,13.7,44,13.4,44z M15.3,44c-0.3,0-0.6-0.3-0.6-0.6
				c0-0.3,0.3-0.6,0.6-0.6c0.3,0,0.6,0.3,0.6,0.6C15.9,43.8,15.7,44,15.3,44z M17.4,42.8c0.3,0,0.6,0.3,0.6,0.6
				c0,0.3-0.3,0.6-0.6,0.6c-0.3,0-0.6-0.3-0.6-0.6C16.7,43.1,17,42.8,17.4,42.8z M14.4,36.2c1,0,1.9,0.8,1.9,1.9
				c0,1-0.8,1.9-1.9,1.9c-1,0-1.9-0.8-1.9-1.9C12.5,37.1,13.3,36.2,14.4,36.2z"/>
			<g>
				<path class="st4" d="M7.4,5.8c-1,0-1.9,0.8-1.9,1.9v37.5c0,1,0.8,1.9,1.9,1.9c0,0,0.1,0,0.1,0L7.4,5.8C7.4,5.8,7.4,5.8,7.4,5.8z
					"/>
				<path class="st9" d="M7.5,5.8V47c1,0,1.8-0.9,1.8-1.9V7.7C9.3,6.6,8.5,5.8,7.5,5.8z"/>
			</g>
			<g>
				<path class="st4" d="M70.6,7.7v37.5c0,1,0.8,1.9,1.9,1.9V5.8C71.4,5.8,70.6,6.6,70.6,7.7z"/>
				<path class="st9" d="M72.5,5.8L72.5,5.8V47l0,0c1,0,1.9-0.8,1.9-1.9V7.7C74.3,6.6,73.5,5.8,72.5,5.8z"/>
			</g>
		</g>
		<rect x="3.4" y="47.6" class="st2" width="73.4" height="4.9"/>
		<g>
			<rect x="8.7" y="60.9" class="st4" width="62.5" height="1.2"/>
			<rect x="8.5" y="74.3" class="st4" width="62.5" height="1.2"/>
			<rect x="8.5" y="87.6" class="st4" width="62.5" height="1.2"/>
			<circle class="st5" cx="17.4" cy="65.5" r="1.1"/>
			<circle class="st5" cx="17.5" cy="91.8" r="1.1"/>
			<circle class="st5" cx="17.5" cy="78.6" r="1.1"/>
			<circle class="st6" cx="15.4" cy="65.5" r="1.1"/>
			<circle class="st6" cx="15.4" cy="91.9" r="1.1"/>
			<circle class="st6" cx="15.5" cy="78.7" r="1.1"/>
			<circle class="st7" cx="13.3" cy="65.3" r="1.1"/>
			<circle class="st7" cx="13.3" cy="91.9" r="1.1"/>
			<circle class="st7" cx="13.3" cy="78.7" r="1.1"/>
			<circle class="st4" cx="14.5" cy="60.3" r="3"/>
			<circle class="st4" cx="14.2" cy="86.6" r="3"/>
			<circle class="st4" cx="14.4" cy="73.4" r="3"/>
			<path class="st2" d="M12.7,55.4c-1.5,0-2.7,1.2-2.7,2.7v7c0,1.5,1.2,2.7,2.7,2.7h27.2V55.4H12.7z M13.4,66
				c-0.3,0-0.6-0.3-0.6-0.6c0-0.3,0.3-0.6,0.6-0.6c0.3,0,0.6,0.3,0.6,0.6C14,65.7,13.7,66,13.4,66z M15.3,66c-0.3,0-0.6-0.3-0.6-0.6
				c0-0.3,0.3-0.6,0.6-0.6c0.3,0,0.6,0.3,0.6,0.6C15.9,65.7,15.7,66,15.3,66z M14.4,61.9c-1,0-1.9-0.8-1.9-1.9c0-1,0.8-1.9,1.9-1.9
				c1,0,1.9,0.8,1.9,1.9C16.2,61.1,15.4,61.9,14.4,61.9z M17.4,66c-0.3,0-0.6-0.3-0.6-0.6c0-0.3,0.3-0.6,0.6-0.6
				c0.3,0,0.6,0.3,0.6,0.6C18,65.7,17.7,66,17.4,66z"/>
			<path class="st8" d="M69.8,65.1v-7c0-1.5-1.2-2.7-2.7-2.7H39.9v12.3h27.2C68.6,67.8,69.8,66.6,69.8,65.1z"/>
			<path class="st2" d="M10,71.3v7c0,1.5,1.2,2.7,2.7,2.7h27.2V68.7H12.7C11.2,68.7,10,69.9,10,71.3z M13.4,79.2
				c-0.3,0-0.6-0.3-0.6-0.6c0-0.3,0.3-0.6,0.6-0.6c0.3,0,0.6,0.3,0.6,0.6C14,79,13.7,79.2,13.4,79.2z M15.3,79.2
				c-0.3,0-0.6-0.3-0.6-0.6c0-0.3,0.3-0.6,0.6-0.6c0.3,0,0.6,0.3,0.6,0.6C15.9,79,15.7,79.2,15.3,79.2z M17.4,78
				c0.3,0,0.6,0.3,0.6,0.6c0,0.3-0.3,0.6-0.6,0.6c-0.3,0-0.6-0.3-0.6-0.6C16.7,78.3,17,78,17.4,78z M14.4,71.4c1,0,1.9,0.8,1.9,1.9
				c0,1-0.8,1.9-1.9,1.9c-1,0-1.9-0.8-1.9-1.9C12.5,72.3,13.3,71.4,14.4,71.4z"/>
			<path class="st8" d="M67.1,81c1.5,0,2.7-1.2,2.7-2.7v-7c0-1.5-1.2-2.7-2.7-2.7H39.9V81H67.1z"/>
			<path class="st8" d="M67.1,94.3c1.5,0,2.7-1.2,2.7-2.7v-7c0-1.5-1.2-2.7-2.7-2.7H39.9v12.3H67.1z"/>
			<path class="st2" d="M10,84.6v7c0,1.5,1.2,2.7,2.7,2.7h27.2V81.9H12.7C11.2,81.9,10,83.1,10,84.6z M13.4,92.5
				c-0.3,0-0.6-0.3-0.6-0.6c0-0.3,0.3-0.6,0.6-0.6c0.3,0,0.6,0.3,0.6,0.6C14,92.2,13.7,92.5,13.4,92.5z M15.3,92.5
				c-0.3,0-0.6-0.3-0.6-0.6c0-0.3,0.3-0.6,0.6-0.6c0.3,0,0.6,0.3,0.6,0.6C15.9,92.2,15.7,92.5,15.3,92.5z M17.4,91.3
				c0.3,0,0.6,0.3,0.6,0.6c0,0.3-0.3,0.6-0.6,0.6c-0.3,0-0.6-0.3-0.6-0.6C16.7,91.6,17,91.3,17.4,91.3z M14.4,84.7
				c1,0,1.9,0.8,1.9,1.9c0,1-0.8,1.9-1.9,1.9c-1,0-1.9-0.8-1.9-1.9C12.5,85.5,13.3,84.7,14.4,84.7z"/>
			<g>
				<path class="st4" d="M7.4,54.2c-1,0-1.9,0.8-1.9,1.9v37.5c0,1,0.8,1.9,1.9,1.9c0,0,0.1,0,0.1,0L7.4,54.2
					C7.4,54.2,7.4,54.2,7.4,54.2z"/>
				<path class="st9" d="M7.5,54.2v41.2c1,0,1.8-0.9,1.8-1.9V56.1C9.3,55.1,8.5,54.3,7.5,54.2z"/>
			</g>
			<g>
				<path class="st4" d="M70.6,56.1v37.5c0,1,0.8,1.9,1.9,1.9V54.2C71.4,54.2,70.6,55.1,70.6,56.1z"/>
				<path class="st9" d="M72.5,54.2L72.5,54.2v41.2l0,0c1,0,1.9-0.8,1.9-1.9V56.1C74.3,55.1,73.5,54.2,72.5,54.2z"/>
			</g>
		</g>
		<rect x="3.5" y="96.1" class="st2" width="73.4" height="4.9"/>
		<g>
			<rect x="8.7" y="110" class="st4" width="62.5" height="1.2"/>
			<rect x="8.5" y="123.4" class="st4" width="62.5" height="1.2"/>
			<rect x="8.5" y="136.7" class="st4" width="62.5" height="1.2"/>
			<circle class="st5" cx="17.4" cy="114.5" r="1.1"/>
			<circle class="st5" cx="17.5" cy="140.9" r="1.1"/>
			<circle class="st5" cx="17.5" cy="127.7" r="1.1"/>
			<circle class="st6" cx="15.4" cy="114.6" r="1.1"/>
			<circle class="st6" cx="15.4" cy="140.9" r="1.1"/>
			<circle class="st6" cx="15.5" cy="127.7" r="1.1"/>
			<circle class="st7" cx="13.3" cy="114.4" r="1.1"/>
			<circle class="st7" cx="13.3" cy="141" r="1.1"/>
			<circle class="st7" cx="13.3" cy="127.8" r="1.1"/>
			<circle class="st4" cx="14.5" cy="109.4" r="3"/>
			<circle class="st4" cx="14.2" cy="135.7" r="3"/>
			<circle class="st4" cx="14.4" cy="122.5" r="3"/>
			<path class="st2" d="M12.7,104.5c-1.5,0-2.7,1.2-2.7,2.7v7c0,1.5,1.2,2.7,2.7,2.7h27.2v-12.3H12.7z M13.4,115.1
				c-0.3,0-0.6-0.3-0.6-0.6c0-0.3,0.3-0.6,0.6-0.6c0.3,0,0.6,0.3,0.6,0.6C14,114.8,13.7,115.1,13.4,115.1z M15.3,115.1
				c-0.3,0-0.6-0.3-0.6-0.6c0-0.3,0.3-0.6,0.6-0.6c0.3,0,0.6,0.3,0.6,0.6C15.9,114.8,15.7,115.1,15.3,115.1z M14.4,111
				c-1,0-1.9-0.8-1.9-1.9c0-1,0.8-1.9,1.9-1.9c1,0,1.9,0.8,1.9,1.9C16.2,110.2,15.4,111,14.4,111z M17.4,115.1
				c-0.3,0-0.6-0.3-0.6-0.6c0-0.3,0.3-0.6,0.6-0.6c0.3,0,0.6,0.3,0.6,0.6C18,114.8,17.7,115.1,17.4,115.1z"/>
			<path class="st8" d="M69.8,114.2v-7c0-1.5-1.2-2.7-2.7-2.7H39.9v12.3h27.2C68.6,116.8,69.8,115.6,69.8,114.2z"/>
			<path class="st2" d="M10,120.4v7c0,1.5,1.2,2.7,2.7,2.7h27.2v-12.3H12.7C11.2,117.7,10,118.9,10,120.4z M13.4,128.3
				c-0.3,0-0.6-0.3-0.6-0.6c0-0.3,0.3-0.6,0.6-0.6c0.3,0,0.6,0.3,0.6,0.6C14,128,13.7,128.3,13.4,128.3z M15.3,128.3
				c-0.3,0-0.6-0.3-0.6-0.6c0-0.3,0.3-0.6,0.6-0.6c0.3,0,0.6,0.3,0.6,0.6C15.9,128,15.7,128.3,15.3,128.3z M17.4,127.1
				c0.3,0,0.6,0.3,0.6,0.6c0,0.3-0.3,0.6-0.6,0.6c-0.3,0-0.6-0.3-0.6-0.6C16.7,127.4,17,127.1,17.4,127.1z M14.4,120.5
				c1,0,1.9,0.8,1.9,1.9c0,1-0.8,1.9-1.9,1.9c-1,0-1.9-0.8-1.9-1.9C12.5,121.4,13.3,120.5,14.4,120.5z"/>
			<path class="st8" d="M67.1,130.1c1.5,0,2.7-1.2,2.7-2.7v-7c0-1.5-1.2-2.7-2.7-2.7H39.9v12.3H67.1z"/>
			<path class="st8" d="M67.1,143.4c1.5,0,2.7-1.2,2.7-2.7v-7c0-1.5-1.2-2.7-2.7-2.7H39.9v12.3H67.1z"/>
			<path class="st2" d="M10,133.7v7c0,1.5,1.2,2.7,2.7,2.7h27.2V131H12.7C11.2,131,10,132.2,10,133.7z M13.4,141.6
				c-0.3,0-0.6-0.3-0.6-0.6c0-0.3,0.3-0.6,0.6-0.6c0.3,0,0.6,0.3,0.6,0.6C14,141.3,13.7,141.6,13.4,141.6z M15.3,141.6
				c-0.3,0-0.6-0.3-0.6-0.6c0-0.3,0.3-0.6,0.6-0.6c0.3,0,0.6,0.3,0.6,0.6C15.9,141.3,15.7,141.6,15.3,141.6z M17.4,140.4
				c0.3,0,0.6,0.3,0.6,0.6c0,0.3-0.3,0.6-0.6,0.6c-0.3,0-0.6-0.3-0.6-0.6C16.7,140.6,17,140.4,17.4,140.4z M14.4,133.8
				c1,0,1.9,0.8,1.9,1.9c0,1-0.8,1.9-1.9,1.9c-1,0-1.9-0.8-1.9-1.9C12.5,134.6,13.3,133.8,14.4,133.8z"/>
			<g>
				<path class="st4" d="M7.4,103.3c-1,0-1.9,0.8-1.9,1.9v37.5c0,1,0.8,1.9,1.9,1.9c0,0,0.1,0,0.1,0L7.4,103.3
					C7.4,103.3,7.4,103.3,7.4,103.3z"/>
				<path class="st9" d="M7.5,103.3v41.2c1,0,1.8-0.9,1.8-1.9v-37.5C9.3,104.2,8.5,103.4,7.5,103.3z"/>
			</g>
			<g>
				<path class="st4" d="M70.6,105.2v37.5c0,1,0.8,1.9,1.9,1.9v-41.2C71.4,103.3,70.6,104.1,70.6,105.2z"/>
				<path class="st9" d="M72.5,103.3L72.5,103.3v41.2l0,0c1,0,1.9-0.8,1.9-1.9v-37.5C74.3,104.1,73.5,103.3,72.5,103.3z"/>
			</g>
		</g>
		<rect x="0.2" y="0" class="st2" width="79.8" height="151.3"/>
	</g>
	<rect x="0.4" y="0" class="st2" width="80.1" height="151.6"/>
</g>
</svg>
